G04 #@! TF.GenerationSoftware,KiCad,Pcbnew,(5.1.4)-1*
G04 #@! TF.CreationDate,2019-10-17T13:45:54+02:00*
G04 #@! TF.ProjectId,Project3_ArduinoClone,50726f6a-6563-4743-935f-41726475696e,v1*
G04 #@! TF.SameCoordinates,Original*
G04 #@! TF.FileFunction,Legend,Bot*
G04 #@! TF.FilePolarity,Positive*
%FSLAX46Y46*%
G04 Gerber Fmt 4.6, Leading zero omitted, Abs format (unit mm)*
G04 Created by KiCad (PCBNEW (5.1.4)-1) date 2019-10-17 13:45:54*
%MOMM*%
%LPD*%
G04 APERTURE LIST*
%ADD10C,0.150000*%
%ADD11C,0.010000*%
G04 APERTURE END LIST*
D10*
X116377404Y-132913380D02*
X116377404Y-131913380D01*
X116139309Y-131913380D01*
X115996452Y-131961000D01*
X115901214Y-132056238D01*
X115853595Y-132151476D01*
X115805976Y-132341952D01*
X115805976Y-132484809D01*
X115853595Y-132675285D01*
X115901214Y-132770523D01*
X115996452Y-132865761D01*
X116139309Y-132913380D01*
X116377404Y-132913380D01*
X114996452Y-132865761D02*
X115091690Y-132913380D01*
X115282166Y-132913380D01*
X115377404Y-132865761D01*
X115425023Y-132770523D01*
X115425023Y-132389571D01*
X115377404Y-132294333D01*
X115282166Y-132246714D01*
X115091690Y-132246714D01*
X114996452Y-132294333D01*
X114948833Y-132389571D01*
X114948833Y-132484809D01*
X115425023Y-132580047D01*
X114567880Y-132865761D02*
X114472642Y-132913380D01*
X114282166Y-132913380D01*
X114186928Y-132865761D01*
X114139309Y-132770523D01*
X114139309Y-132722904D01*
X114186928Y-132627666D01*
X114282166Y-132580047D01*
X114425023Y-132580047D01*
X114520261Y-132532428D01*
X114567880Y-132437190D01*
X114567880Y-132389571D01*
X114520261Y-132294333D01*
X114425023Y-132246714D01*
X114282166Y-132246714D01*
X114186928Y-132294333D01*
X113710738Y-132913380D02*
X113710738Y-132246714D01*
X113710738Y-131913380D02*
X113758357Y-131961000D01*
X113710738Y-132008619D01*
X113663119Y-131961000D01*
X113710738Y-131913380D01*
X113710738Y-132008619D01*
X112805976Y-132246714D02*
X112805976Y-133056238D01*
X112853595Y-133151476D01*
X112901214Y-133199095D01*
X112996452Y-133246714D01*
X113139309Y-133246714D01*
X113234547Y-133199095D01*
X112805976Y-132865761D02*
X112901214Y-132913380D01*
X113091690Y-132913380D01*
X113186928Y-132865761D01*
X113234547Y-132818142D01*
X113282166Y-132722904D01*
X113282166Y-132437190D01*
X113234547Y-132341952D01*
X113186928Y-132294333D01*
X113091690Y-132246714D01*
X112901214Y-132246714D01*
X112805976Y-132294333D01*
X112329785Y-132246714D02*
X112329785Y-132913380D01*
X112329785Y-132341952D02*
X112282166Y-132294333D01*
X112186928Y-132246714D01*
X112044071Y-132246714D01*
X111948833Y-132294333D01*
X111901214Y-132389571D01*
X111901214Y-132913380D01*
X111044071Y-132865761D02*
X111139309Y-132913380D01*
X111329785Y-132913380D01*
X111425023Y-132865761D01*
X111472642Y-132770523D01*
X111472642Y-132389571D01*
X111425023Y-132294333D01*
X111329785Y-132246714D01*
X111139309Y-132246714D01*
X111044071Y-132294333D01*
X110996452Y-132389571D01*
X110996452Y-132484809D01*
X111472642Y-132580047D01*
X110139309Y-132913380D02*
X110139309Y-131913380D01*
X110139309Y-132865761D02*
X110234547Y-132913380D01*
X110425023Y-132913380D01*
X110520261Y-132865761D01*
X110567880Y-132818142D01*
X110615500Y-132722904D01*
X110615500Y-132437190D01*
X110567880Y-132341952D01*
X110520261Y-132294333D01*
X110425023Y-132246714D01*
X110234547Y-132246714D01*
X110139309Y-132294333D01*
X108901214Y-132913380D02*
X108901214Y-131913380D01*
X108901214Y-132294333D02*
X108805976Y-132246714D01*
X108615500Y-132246714D01*
X108520261Y-132294333D01*
X108472642Y-132341952D01*
X108425023Y-132437190D01*
X108425023Y-132722904D01*
X108472642Y-132818142D01*
X108520261Y-132865761D01*
X108615500Y-132913380D01*
X108805976Y-132913380D01*
X108901214Y-132865761D01*
X108091690Y-132246714D02*
X107853595Y-132913380D01*
X107615500Y-132246714D02*
X107853595Y-132913380D01*
X107948833Y-133151476D01*
X107996452Y-133199095D01*
X108091690Y-133246714D01*
X106472642Y-132913380D02*
X106472642Y-131913380D01*
X106091690Y-131913380D01*
X105996452Y-131961000D01*
X105948833Y-132008619D01*
X105901214Y-132103857D01*
X105901214Y-132246714D01*
X105948833Y-132341952D01*
X105996452Y-132389571D01*
X106091690Y-132437190D01*
X106472642Y-132437190D01*
X105044071Y-132913380D02*
X105044071Y-132389571D01*
X105091690Y-132294333D01*
X105186928Y-132246714D01*
X105377404Y-132246714D01*
X105472642Y-132294333D01*
X105044071Y-132865761D02*
X105139309Y-132913380D01*
X105377404Y-132913380D01*
X105472642Y-132865761D01*
X105520261Y-132770523D01*
X105520261Y-132675285D01*
X105472642Y-132580047D01*
X105377404Y-132532428D01*
X105139309Y-132532428D01*
X105044071Y-132484809D01*
X104567880Y-132913380D02*
X104567880Y-131913380D01*
X104567880Y-132294333D02*
X104472642Y-132246714D01*
X104282166Y-132246714D01*
X104186928Y-132294333D01*
X104139309Y-132341952D01*
X104091690Y-132437190D01*
X104091690Y-132722904D01*
X104139309Y-132818142D01*
X104186928Y-132865761D01*
X104282166Y-132913380D01*
X104472642Y-132913380D01*
X104567880Y-132865761D01*
X103520261Y-132913380D02*
X103615500Y-132865761D01*
X103663119Y-132770523D01*
X103663119Y-131913380D01*
X102996452Y-132913380D02*
X103091690Y-132865761D01*
X103139309Y-132818142D01*
X103186928Y-132722904D01*
X103186928Y-132437190D01*
X103139309Y-132341952D01*
X103091690Y-132294333D01*
X102996452Y-132246714D01*
X102853595Y-132246714D01*
X102758357Y-132294333D01*
X102710738Y-132341952D01*
X102663119Y-132437190D01*
X102663119Y-132722904D01*
X102710738Y-132818142D01*
X102758357Y-132865761D01*
X102853595Y-132913380D01*
X102996452Y-132913380D01*
X100901214Y-132913380D02*
X101234547Y-132437190D01*
X101472642Y-132913380D02*
X101472642Y-131913380D01*
X101091690Y-131913380D01*
X100996452Y-131961000D01*
X100948833Y-132008619D01*
X100901214Y-132103857D01*
X100901214Y-132246714D01*
X100948833Y-132341952D01*
X100996452Y-132389571D01*
X101091690Y-132437190D01*
X101472642Y-132437190D01*
X100329785Y-132913380D02*
X100425023Y-132865761D01*
X100472642Y-132818142D01*
X100520261Y-132722904D01*
X100520261Y-132437190D01*
X100472642Y-132341952D01*
X100425023Y-132294333D01*
X100329785Y-132246714D01*
X100186928Y-132246714D01*
X100091690Y-132294333D01*
X100044071Y-132341952D01*
X99996452Y-132437190D01*
X99996452Y-132722904D01*
X100044071Y-132818142D01*
X100091690Y-132865761D01*
X100186928Y-132913380D01*
X100329785Y-132913380D01*
X99567880Y-132913380D02*
X99567880Y-132246714D01*
X99567880Y-131913380D02*
X99615500Y-131961000D01*
X99567880Y-132008619D01*
X99520261Y-131961000D01*
X99567880Y-131913380D01*
X99567880Y-132008619D01*
X98663119Y-132246714D02*
X98663119Y-133056238D01*
X98710738Y-133151476D01*
X98758357Y-133199095D01*
X98853595Y-133246714D01*
X98996452Y-133246714D01*
X99091690Y-133199095D01*
X98663119Y-132865761D02*
X98758357Y-132913380D01*
X98948833Y-132913380D01*
X99044071Y-132865761D01*
X99091690Y-132818142D01*
X99139309Y-132722904D01*
X99139309Y-132437190D01*
X99091690Y-132341952D01*
X99044071Y-132294333D01*
X98948833Y-132246714D01*
X98758357Y-132246714D01*
X98663119Y-132294333D01*
X116425023Y-124818666D02*
X115948833Y-124818666D01*
X116520261Y-125104380D02*
X116186928Y-124104380D01*
X115853595Y-125104380D01*
X115520261Y-125104380D02*
X115520261Y-124437714D01*
X115520261Y-124628190D02*
X115472642Y-124532952D01*
X115425023Y-124485333D01*
X115329785Y-124437714D01*
X115234547Y-124437714D01*
X114472642Y-125104380D02*
X114472642Y-124104380D01*
X114472642Y-125056761D02*
X114567880Y-125104380D01*
X114758357Y-125104380D01*
X114853595Y-125056761D01*
X114901214Y-125009142D01*
X114948833Y-124913904D01*
X114948833Y-124628190D01*
X114901214Y-124532952D01*
X114853595Y-124485333D01*
X114758357Y-124437714D01*
X114567880Y-124437714D01*
X114472642Y-124485333D01*
X113567880Y-124437714D02*
X113567880Y-125104380D01*
X113996452Y-124437714D02*
X113996452Y-124961523D01*
X113948833Y-125056761D01*
X113853595Y-125104380D01*
X113710738Y-125104380D01*
X113615500Y-125056761D01*
X113567880Y-125009142D01*
X113091690Y-125104380D02*
X113091690Y-124437714D01*
X113091690Y-124104380D02*
X113139309Y-124152000D01*
X113091690Y-124199619D01*
X113044071Y-124152000D01*
X113091690Y-124104380D01*
X113091690Y-124199619D01*
X112615500Y-124437714D02*
X112615500Y-125104380D01*
X112615500Y-124532952D02*
X112567880Y-124485333D01*
X112472642Y-124437714D01*
X112329785Y-124437714D01*
X112234547Y-124485333D01*
X112186928Y-124580571D01*
X112186928Y-125104380D01*
X111567880Y-125104380D02*
X111663119Y-125056761D01*
X111710738Y-125009142D01*
X111758357Y-124913904D01*
X111758357Y-124628190D01*
X111710738Y-124532952D01*
X111663119Y-124485333D01*
X111567880Y-124437714D01*
X111425023Y-124437714D01*
X111329785Y-124485333D01*
X111282166Y-124532952D01*
X111234547Y-124628190D01*
X111234547Y-124913904D01*
X111282166Y-125009142D01*
X111329785Y-125056761D01*
X111425023Y-125104380D01*
X111567880Y-125104380D01*
X109472642Y-125009142D02*
X109520261Y-125056761D01*
X109663119Y-125104380D01*
X109758357Y-125104380D01*
X109901214Y-125056761D01*
X109996452Y-124961523D01*
X110044071Y-124866285D01*
X110091690Y-124675809D01*
X110091690Y-124532952D01*
X110044071Y-124342476D01*
X109996452Y-124247238D01*
X109901214Y-124152000D01*
X109758357Y-124104380D01*
X109663119Y-124104380D01*
X109520261Y-124152000D01*
X109472642Y-124199619D01*
X108901214Y-125104380D02*
X108996452Y-125056761D01*
X109044071Y-124961523D01*
X109044071Y-124104380D01*
X108377404Y-125104380D02*
X108472642Y-125056761D01*
X108520261Y-125009142D01*
X108567880Y-124913904D01*
X108567880Y-124628190D01*
X108520261Y-124532952D01*
X108472642Y-124485333D01*
X108377404Y-124437714D01*
X108234547Y-124437714D01*
X108139309Y-124485333D01*
X108091690Y-124532952D01*
X108044071Y-124628190D01*
X108044071Y-124913904D01*
X108091690Y-125009142D01*
X108139309Y-125056761D01*
X108234547Y-125104380D01*
X108377404Y-125104380D01*
X107615500Y-124437714D02*
X107615500Y-125104380D01*
X107615500Y-124532952D02*
X107567880Y-124485333D01*
X107472642Y-124437714D01*
X107329785Y-124437714D01*
X107234547Y-124485333D01*
X107186928Y-124580571D01*
X107186928Y-125104380D01*
X106329785Y-125056761D02*
X106425023Y-125104380D01*
X106615500Y-125104380D01*
X106710738Y-125056761D01*
X106758357Y-124961523D01*
X106758357Y-124580571D01*
X106710738Y-124485333D01*
X106615500Y-124437714D01*
X106425023Y-124437714D01*
X106329785Y-124485333D01*
X106282166Y-124580571D01*
X106282166Y-124675809D01*
X106758357Y-124771047D01*
X116377404Y-126373428D02*
X115615500Y-126373428D01*
X115139309Y-126230571D02*
X114805976Y-126230571D01*
X114663119Y-126754380D02*
X115139309Y-126754380D01*
X115139309Y-125754380D01*
X114663119Y-125754380D01*
X114234547Y-126230571D02*
X113901214Y-126230571D01*
X113758357Y-126754380D02*
X114234547Y-126754380D01*
X114234547Y-125754380D01*
X113758357Y-125754380D01*
X113329785Y-126754380D02*
X113329785Y-125754380D01*
X112948833Y-125754380D01*
X112853595Y-125802000D01*
X112805976Y-125849619D01*
X112758357Y-125944857D01*
X112758357Y-126087714D01*
X112805976Y-126182952D01*
X112853595Y-126230571D01*
X112948833Y-126278190D01*
X113329785Y-126278190D01*
X111758357Y-126754380D02*
X112091690Y-126278190D01*
X112329785Y-126754380D02*
X112329785Y-125754380D01*
X111948833Y-125754380D01*
X111853595Y-125802000D01*
X111805976Y-125849619D01*
X111758357Y-125944857D01*
X111758357Y-126087714D01*
X111805976Y-126182952D01*
X111853595Y-126230571D01*
X111948833Y-126278190D01*
X112329785Y-126278190D01*
X111139309Y-125754380D02*
X110948833Y-125754380D01*
X110853595Y-125802000D01*
X110758357Y-125897238D01*
X110710738Y-126087714D01*
X110710738Y-126421047D01*
X110758357Y-126611523D01*
X110853595Y-126706761D01*
X110948833Y-126754380D01*
X111139309Y-126754380D01*
X111234547Y-126706761D01*
X111329785Y-126611523D01*
X111377404Y-126421047D01*
X111377404Y-126087714D01*
X111329785Y-125897238D01*
X111234547Y-125802000D01*
X111139309Y-125754380D01*
X110282166Y-126754380D02*
X110282166Y-125754380D01*
X109948833Y-126468666D01*
X109615500Y-125754380D01*
X109615500Y-126754380D01*
X108425023Y-125849619D02*
X108377404Y-125802000D01*
X108282166Y-125754380D01*
X108044071Y-125754380D01*
X107948833Y-125802000D01*
X107901214Y-125849619D01*
X107853595Y-125944857D01*
X107853595Y-126040095D01*
X107901214Y-126182952D01*
X108472642Y-126754380D01*
X107853595Y-126754380D01*
X107425023Y-126754380D02*
X107425023Y-125754380D01*
X107091690Y-126468666D01*
X106758357Y-125754380D01*
X106758357Y-126754380D01*
X105948833Y-126230571D02*
X105805976Y-126278190D01*
X105758357Y-126325809D01*
X105710738Y-126421047D01*
X105710738Y-126563904D01*
X105758357Y-126659142D01*
X105805976Y-126706761D01*
X105901214Y-126754380D01*
X106282166Y-126754380D01*
X106282166Y-125754380D01*
X105948833Y-125754380D01*
X105853595Y-125802000D01*
X105805976Y-125849619D01*
X105758357Y-125944857D01*
X105758357Y-126040095D01*
X105805976Y-126135333D01*
X105853595Y-126182952D01*
X105948833Y-126230571D01*
X106282166Y-126230571D01*
X116377404Y-128023428D02*
X115615500Y-128023428D01*
X114567880Y-128404380D02*
X114901214Y-127928190D01*
X115139309Y-128404380D02*
X115139309Y-127404380D01*
X114758357Y-127404380D01*
X114663119Y-127452000D01*
X114615500Y-127499619D01*
X114567880Y-127594857D01*
X114567880Y-127737714D01*
X114615500Y-127832952D01*
X114663119Y-127880571D01*
X114758357Y-127928190D01*
X115139309Y-127928190D01*
X114282166Y-127404380D02*
X113710738Y-127404380D01*
X113996452Y-128404380D02*
X113996452Y-127404380D01*
X112805976Y-128309142D02*
X112853595Y-128356761D01*
X112996452Y-128404380D01*
X113091690Y-128404380D01*
X113234547Y-128356761D01*
X113329785Y-128261523D01*
X113377404Y-128166285D01*
X113425023Y-127975809D01*
X113425023Y-127832952D01*
X113377404Y-127642476D01*
X113329785Y-127547238D01*
X113234547Y-127452000D01*
X113091690Y-127404380D01*
X112996452Y-127404380D01*
X112853595Y-127452000D01*
X112805976Y-127499619D01*
X116377404Y-129673428D02*
X115615500Y-129673428D01*
X115234547Y-129054380D02*
X114615500Y-129054380D01*
X114948833Y-129435333D01*
X114805976Y-129435333D01*
X114710738Y-129482952D01*
X114663119Y-129530571D01*
X114615500Y-129625809D01*
X114615500Y-129863904D01*
X114663119Y-129959142D01*
X114710738Y-130006761D01*
X114805976Y-130054380D01*
X115091690Y-130054380D01*
X115186928Y-130006761D01*
X115234547Y-129959142D01*
X114329785Y-129054380D02*
X113996452Y-130054380D01*
X113663119Y-129054380D01*
X112425023Y-130054380D02*
X112520261Y-130006761D01*
X112567880Y-129959142D01*
X112615500Y-129863904D01*
X112615500Y-129578190D01*
X112567880Y-129482952D01*
X112520261Y-129435333D01*
X112425023Y-129387714D01*
X112282166Y-129387714D01*
X112186928Y-129435333D01*
X112139309Y-129482952D01*
X112091690Y-129578190D01*
X112091690Y-129863904D01*
X112139309Y-129959142D01*
X112186928Y-130006761D01*
X112282166Y-130054380D01*
X112425023Y-130054380D01*
X111663119Y-130054380D02*
X111663119Y-129387714D01*
X111663119Y-129578190D02*
X111615500Y-129482952D01*
X111567880Y-129435333D01*
X111472642Y-129387714D01*
X111377404Y-129387714D01*
X110377404Y-129054380D02*
X109758357Y-129054380D01*
X110091690Y-129435333D01*
X109948833Y-129435333D01*
X109853595Y-129482952D01*
X109805976Y-129530571D01*
X109758357Y-129625809D01*
X109758357Y-129863904D01*
X109805976Y-129959142D01*
X109853595Y-130006761D01*
X109948833Y-130054380D01*
X110234547Y-130054380D01*
X110329785Y-130006761D01*
X110377404Y-129959142D01*
X109472642Y-129054380D02*
X109139309Y-130054380D01*
X108805976Y-129054380D01*
X108567880Y-129054380D02*
X107948833Y-129054380D01*
X108282166Y-129435333D01*
X108139309Y-129435333D01*
X108044071Y-129482952D01*
X107996452Y-129530571D01*
X107948833Y-129625809D01*
X107948833Y-129863904D01*
X107996452Y-129959142D01*
X108044071Y-130006761D01*
X108139309Y-130054380D01*
X108425023Y-130054380D01*
X108520261Y-130006761D01*
X108567880Y-129959142D01*
X106758357Y-129387714D02*
X106758357Y-130387714D01*
X106758357Y-129435333D02*
X106663119Y-129387714D01*
X106472642Y-129387714D01*
X106377404Y-129435333D01*
X106329785Y-129482952D01*
X106282166Y-129578190D01*
X106282166Y-129863904D01*
X106329785Y-129959142D01*
X106377404Y-130006761D01*
X106472642Y-130054380D01*
X106663119Y-130054380D01*
X106758357Y-130006761D01*
X105710738Y-130054380D02*
X105805976Y-130006761D01*
X105853595Y-129959142D01*
X105901214Y-129863904D01*
X105901214Y-129578190D01*
X105853595Y-129482952D01*
X105805976Y-129435333D01*
X105710738Y-129387714D01*
X105567880Y-129387714D01*
X105472642Y-129435333D01*
X105425023Y-129482952D01*
X105377404Y-129578190D01*
X105377404Y-129863904D01*
X105425023Y-129959142D01*
X105472642Y-130006761D01*
X105567880Y-130054380D01*
X105710738Y-130054380D01*
X105044071Y-129387714D02*
X104853595Y-130054380D01*
X104663119Y-129578190D01*
X104472642Y-130054380D01*
X104282166Y-129387714D01*
X103520261Y-130006761D02*
X103615500Y-130054380D01*
X103805976Y-130054380D01*
X103901214Y-130006761D01*
X103948833Y-129911523D01*
X103948833Y-129530571D01*
X103901214Y-129435333D01*
X103805976Y-129387714D01*
X103615500Y-129387714D01*
X103520261Y-129435333D01*
X103472642Y-129530571D01*
X103472642Y-129625809D01*
X103948833Y-129721047D01*
X103044071Y-130054380D02*
X103044071Y-129387714D01*
X103044071Y-129578190D02*
X102996452Y-129482952D01*
X102948833Y-129435333D01*
X102853595Y-129387714D01*
X102758357Y-129387714D01*
X102044071Y-130006761D02*
X102139309Y-130054380D01*
X102329785Y-130054380D01*
X102425023Y-130006761D01*
X102472642Y-129911523D01*
X102472642Y-129530571D01*
X102425023Y-129435333D01*
X102329785Y-129387714D01*
X102139309Y-129387714D01*
X102044071Y-129435333D01*
X101996452Y-129530571D01*
X101996452Y-129625809D01*
X102472642Y-129721047D01*
X101139309Y-130054380D02*
X101139309Y-129054380D01*
X101139309Y-130006761D02*
X101234547Y-130054380D01*
X101425023Y-130054380D01*
X101520261Y-130006761D01*
X101567880Y-129959142D01*
X101615500Y-129863904D01*
X101615500Y-129578190D01*
X101567880Y-129482952D01*
X101520261Y-129435333D01*
X101425023Y-129387714D01*
X101234547Y-129387714D01*
X101139309Y-129435333D01*
D11*
G36*
X97159036Y-135085018D02*
G01*
X97102188Y-135386570D01*
X96682662Y-135559512D01*
X96431016Y-135388395D01*
X96360542Y-135340750D01*
X96296837Y-135298210D01*
X96242874Y-135262715D01*
X96201627Y-135236210D01*
X96176066Y-135220636D01*
X96169105Y-135217278D01*
X96156565Y-135225914D01*
X96129769Y-135249792D01*
X96091720Y-135285859D01*
X96045421Y-135331067D01*
X95993877Y-135382364D01*
X95940091Y-135436701D01*
X95887065Y-135491028D01*
X95837805Y-135542295D01*
X95795313Y-135587451D01*
X95762593Y-135623446D01*
X95742649Y-135647230D01*
X95737881Y-135655190D01*
X95744743Y-135669865D01*
X95763980Y-135702014D01*
X95793570Y-135748492D01*
X95831490Y-135806156D01*
X95875718Y-135871860D01*
X95901346Y-135909336D01*
X95948059Y-135977768D01*
X95989568Y-136039520D01*
X96023860Y-136091519D01*
X96048920Y-136130692D01*
X96062736Y-136153965D01*
X96064812Y-136158855D01*
X96060105Y-136172755D01*
X96047277Y-136205150D01*
X96028262Y-136251485D01*
X96004997Y-136307206D01*
X95979416Y-136367758D01*
X95953455Y-136428586D01*
X95929050Y-136485136D01*
X95908137Y-136532852D01*
X95892651Y-136567181D01*
X95884528Y-136583568D01*
X95884048Y-136584212D01*
X95871293Y-136587341D01*
X95837323Y-136594321D01*
X95785660Y-136604467D01*
X95719824Y-136617092D01*
X95643336Y-136631509D01*
X95598710Y-136639823D01*
X95516979Y-136655384D01*
X95443157Y-136670192D01*
X95380979Y-136683436D01*
X95334178Y-136694305D01*
X95306491Y-136701989D01*
X95300926Y-136704427D01*
X95295474Y-136720930D01*
X95291076Y-136758200D01*
X95287728Y-136811880D01*
X95285426Y-136877612D01*
X95284168Y-136951037D01*
X95283952Y-137027796D01*
X95284773Y-137103532D01*
X95286629Y-137173886D01*
X95289518Y-137234500D01*
X95293435Y-137281016D01*
X95298378Y-137309075D01*
X95301343Y-137314916D01*
X95319066Y-137321917D01*
X95356619Y-137331927D01*
X95409036Y-137343769D01*
X95471348Y-137356267D01*
X95493100Y-137360310D01*
X95597976Y-137379520D01*
X95680820Y-137394991D01*
X95744370Y-137407337D01*
X95791363Y-137417173D01*
X95824537Y-137425114D01*
X95846629Y-137431776D01*
X95860376Y-137437773D01*
X95868516Y-137443719D01*
X95869655Y-137444894D01*
X95881023Y-137463826D01*
X95898365Y-137500669D01*
X95919950Y-137550913D01*
X95944046Y-137610046D01*
X95968921Y-137673556D01*
X95992843Y-137736932D01*
X96014081Y-137795662D01*
X96030903Y-137845235D01*
X96041578Y-137881139D01*
X96044373Y-137898862D01*
X96044140Y-137899483D01*
X96034669Y-137913970D01*
X96013182Y-137945844D01*
X95981937Y-137991789D01*
X95943193Y-138048485D01*
X95899207Y-138112617D01*
X95886681Y-138130842D01*
X95842016Y-138196914D01*
X95802712Y-138257200D01*
X95770912Y-138308235D01*
X95748755Y-138346560D01*
X95738383Y-138368711D01*
X95737881Y-138371432D01*
X95746595Y-138385736D01*
X95770675Y-138414072D01*
X95807024Y-138453396D01*
X95852547Y-138500661D01*
X95904148Y-138552823D01*
X95958733Y-138606835D01*
X96013206Y-138659653D01*
X96064471Y-138708231D01*
X96109433Y-138749523D01*
X96144996Y-138780485D01*
X96168065Y-138798070D01*
X96174446Y-138800941D01*
X96189301Y-138794178D01*
X96219714Y-138775939D01*
X96260732Y-138749297D01*
X96292291Y-138727852D01*
X96349475Y-138688503D01*
X96417194Y-138642171D01*
X96485120Y-138595913D01*
X96521639Y-138571155D01*
X96645248Y-138487547D01*
X96749009Y-138543650D01*
X96796280Y-138568228D01*
X96836477Y-138587331D01*
X96863674Y-138598227D01*
X96870598Y-138599743D01*
X96878923Y-138588549D01*
X96895346Y-138556917D01*
X96918643Y-138507765D01*
X96947586Y-138444010D01*
X96980950Y-138368571D01*
X97017509Y-138284364D01*
X97056036Y-138194308D01*
X97095306Y-138101321D01*
X97134092Y-138008320D01*
X97171170Y-137918223D01*
X97205311Y-137833948D01*
X97235292Y-137758413D01*
X97259884Y-137694534D01*
X97277864Y-137645231D01*
X97288003Y-137613421D01*
X97289634Y-137602496D01*
X97276709Y-137588561D01*
X97248411Y-137565940D01*
X97210654Y-137539333D01*
X97207485Y-137537228D01*
X97109900Y-137459114D01*
X97031214Y-137367982D01*
X96972109Y-137266745D01*
X96933268Y-137158318D01*
X96915372Y-137045614D01*
X96919103Y-136931548D01*
X96945143Y-136819034D01*
X96994175Y-136710985D01*
X97008600Y-136687345D01*
X97083631Y-136591887D01*
X97172270Y-136515232D01*
X97271451Y-136457780D01*
X97378105Y-136419929D01*
X97489164Y-136402078D01*
X97601561Y-136404625D01*
X97712227Y-136427970D01*
X97818094Y-136472510D01*
X97916095Y-136538645D01*
X97946410Y-136565487D01*
X98023562Y-136649512D01*
X98079782Y-136737966D01*
X98118347Y-136837115D01*
X98139826Y-136935303D01*
X98145128Y-137045697D01*
X98127448Y-137156640D01*
X98088581Y-137264381D01*
X98030323Y-137365169D01*
X97954469Y-137455256D01*
X97862817Y-137530892D01*
X97850772Y-137538864D01*
X97812611Y-137564974D01*
X97783601Y-137587595D01*
X97769732Y-137602039D01*
X97769531Y-137602496D01*
X97772508Y-137618121D01*
X97784311Y-137653582D01*
X97803714Y-137705962D01*
X97829488Y-137772345D01*
X97860409Y-137849814D01*
X97895249Y-137935450D01*
X97932783Y-138026337D01*
X97971783Y-138119559D01*
X98011023Y-138212197D01*
X98049276Y-138301335D01*
X98085317Y-138384055D01*
X98117917Y-138457441D01*
X98145852Y-138518575D01*
X98167895Y-138564541D01*
X98182818Y-138592421D01*
X98188828Y-138599743D01*
X98207191Y-138594041D01*
X98241552Y-138578749D01*
X98285984Y-138556599D01*
X98310417Y-138543650D01*
X98414178Y-138487547D01*
X98537787Y-138571155D01*
X98600886Y-138613987D01*
X98669970Y-138661122D01*
X98734707Y-138705503D01*
X98767134Y-138727852D01*
X98812741Y-138758477D01*
X98851360Y-138782747D01*
X98877952Y-138797587D01*
X98886590Y-138800724D01*
X98899161Y-138792261D01*
X98926984Y-138768636D01*
X98967361Y-138732302D01*
X99017595Y-138685711D01*
X99074988Y-138631317D01*
X99111286Y-138596392D01*
X99174790Y-138533996D01*
X99229673Y-138478188D01*
X99273714Y-138431354D01*
X99304695Y-138395882D01*
X99320398Y-138374161D01*
X99321905Y-138369752D01*
X99314914Y-138352985D01*
X99295594Y-138319082D01*
X99266091Y-138271476D01*
X99228545Y-138213599D01*
X99185100Y-138148884D01*
X99172745Y-138130842D01*
X99127727Y-138065267D01*
X99087340Y-138006228D01*
X99053840Y-137957042D01*
X99029486Y-137921028D01*
X99016536Y-137901502D01*
X99015285Y-137899483D01*
X99017156Y-137883922D01*
X99027087Y-137849709D01*
X99043347Y-137801355D01*
X99064205Y-137743371D01*
X99087927Y-137680270D01*
X99112784Y-137616563D01*
X99137042Y-137556761D01*
X99158971Y-137505376D01*
X99176838Y-137466919D01*
X99188913Y-137445902D01*
X99189771Y-137444894D01*
X99197154Y-137438888D01*
X99209625Y-137432948D01*
X99229920Y-137426460D01*
X99260778Y-137418809D01*
X99304934Y-137409380D01*
X99365126Y-137397559D01*
X99444093Y-137382729D01*
X99544570Y-137364277D01*
X99566325Y-137360310D01*
X99630802Y-137347853D01*
X99687011Y-137335666D01*
X99729987Y-137324926D01*
X99754760Y-137316809D01*
X99758082Y-137314916D01*
X99763556Y-137298138D01*
X99768006Y-137260645D01*
X99771428Y-137206794D01*
X99773819Y-137140944D01*
X99775177Y-137067453D01*
X99775499Y-136990680D01*
X99774781Y-136914983D01*
X99773021Y-136844720D01*
X99770216Y-136784250D01*
X99766362Y-136737930D01*
X99761457Y-136710119D01*
X99758500Y-136704427D01*
X99742037Y-136698686D01*
X99704551Y-136689345D01*
X99649775Y-136677215D01*
X99581445Y-136663107D01*
X99503294Y-136647830D01*
X99460716Y-136639823D01*
X99379929Y-136624721D01*
X99307887Y-136611040D01*
X99248111Y-136599467D01*
X99204121Y-136590687D01*
X99179439Y-136585387D01*
X99175377Y-136584212D01*
X99168511Y-136570965D01*
X99153998Y-136539057D01*
X99133771Y-136493047D01*
X99109766Y-136437492D01*
X99083918Y-136376953D01*
X99058160Y-136315986D01*
X99034427Y-136259151D01*
X99014654Y-136211006D01*
X99000776Y-136176110D01*
X98994726Y-136159021D01*
X98994614Y-136158274D01*
X99001472Y-136144793D01*
X99020698Y-136113770D01*
X99050272Y-136068289D01*
X99088173Y-136011432D01*
X99132380Y-135946283D01*
X99158079Y-135908862D01*
X99204907Y-135840247D01*
X99246499Y-135777952D01*
X99280825Y-135725129D01*
X99305857Y-135684927D01*
X99319565Y-135660500D01*
X99321544Y-135655024D01*
X99313034Y-135642278D01*
X99289507Y-135615063D01*
X99253968Y-135576428D01*
X99209423Y-135529423D01*
X99158877Y-135477095D01*
X99105336Y-135422495D01*
X99051805Y-135368670D01*
X99001289Y-135318670D01*
X98956794Y-135275543D01*
X98921325Y-135242339D01*
X98897887Y-135222106D01*
X98890046Y-135217278D01*
X98877280Y-135224067D01*
X98846744Y-135243142D01*
X98801410Y-135272561D01*
X98744244Y-135310381D01*
X98678216Y-135354661D01*
X98628410Y-135388395D01*
X98376764Y-135559512D01*
X98167001Y-135473041D01*
X97957237Y-135386570D01*
X97900389Y-135085018D01*
X97843540Y-134783466D01*
X97215885Y-134783466D01*
X97159036Y-135085018D01*
X97159036Y-135085018D01*
G37*
X97159036Y-135085018D02*
X97102188Y-135386570D01*
X96682662Y-135559512D01*
X96431016Y-135388395D01*
X96360542Y-135340750D01*
X96296837Y-135298210D01*
X96242874Y-135262715D01*
X96201627Y-135236210D01*
X96176066Y-135220636D01*
X96169105Y-135217278D01*
X96156565Y-135225914D01*
X96129769Y-135249792D01*
X96091720Y-135285859D01*
X96045421Y-135331067D01*
X95993877Y-135382364D01*
X95940091Y-135436701D01*
X95887065Y-135491028D01*
X95837805Y-135542295D01*
X95795313Y-135587451D01*
X95762593Y-135623446D01*
X95742649Y-135647230D01*
X95737881Y-135655190D01*
X95744743Y-135669865D01*
X95763980Y-135702014D01*
X95793570Y-135748492D01*
X95831490Y-135806156D01*
X95875718Y-135871860D01*
X95901346Y-135909336D01*
X95948059Y-135977768D01*
X95989568Y-136039520D01*
X96023860Y-136091519D01*
X96048920Y-136130692D01*
X96062736Y-136153965D01*
X96064812Y-136158855D01*
X96060105Y-136172755D01*
X96047277Y-136205150D01*
X96028262Y-136251485D01*
X96004997Y-136307206D01*
X95979416Y-136367758D01*
X95953455Y-136428586D01*
X95929050Y-136485136D01*
X95908137Y-136532852D01*
X95892651Y-136567181D01*
X95884528Y-136583568D01*
X95884048Y-136584212D01*
X95871293Y-136587341D01*
X95837323Y-136594321D01*
X95785660Y-136604467D01*
X95719824Y-136617092D01*
X95643336Y-136631509D01*
X95598710Y-136639823D01*
X95516979Y-136655384D01*
X95443157Y-136670192D01*
X95380979Y-136683436D01*
X95334178Y-136694305D01*
X95306491Y-136701989D01*
X95300926Y-136704427D01*
X95295474Y-136720930D01*
X95291076Y-136758200D01*
X95287728Y-136811880D01*
X95285426Y-136877612D01*
X95284168Y-136951037D01*
X95283952Y-137027796D01*
X95284773Y-137103532D01*
X95286629Y-137173886D01*
X95289518Y-137234500D01*
X95293435Y-137281016D01*
X95298378Y-137309075D01*
X95301343Y-137314916D01*
X95319066Y-137321917D01*
X95356619Y-137331927D01*
X95409036Y-137343769D01*
X95471348Y-137356267D01*
X95493100Y-137360310D01*
X95597976Y-137379520D01*
X95680820Y-137394991D01*
X95744370Y-137407337D01*
X95791363Y-137417173D01*
X95824537Y-137425114D01*
X95846629Y-137431776D01*
X95860376Y-137437773D01*
X95868516Y-137443719D01*
X95869655Y-137444894D01*
X95881023Y-137463826D01*
X95898365Y-137500669D01*
X95919950Y-137550913D01*
X95944046Y-137610046D01*
X95968921Y-137673556D01*
X95992843Y-137736932D01*
X96014081Y-137795662D01*
X96030903Y-137845235D01*
X96041578Y-137881139D01*
X96044373Y-137898862D01*
X96044140Y-137899483D01*
X96034669Y-137913970D01*
X96013182Y-137945844D01*
X95981937Y-137991789D01*
X95943193Y-138048485D01*
X95899207Y-138112617D01*
X95886681Y-138130842D01*
X95842016Y-138196914D01*
X95802712Y-138257200D01*
X95770912Y-138308235D01*
X95748755Y-138346560D01*
X95738383Y-138368711D01*
X95737881Y-138371432D01*
X95746595Y-138385736D01*
X95770675Y-138414072D01*
X95807024Y-138453396D01*
X95852547Y-138500661D01*
X95904148Y-138552823D01*
X95958733Y-138606835D01*
X96013206Y-138659653D01*
X96064471Y-138708231D01*
X96109433Y-138749523D01*
X96144996Y-138780485D01*
X96168065Y-138798070D01*
X96174446Y-138800941D01*
X96189301Y-138794178D01*
X96219714Y-138775939D01*
X96260732Y-138749297D01*
X96292291Y-138727852D01*
X96349475Y-138688503D01*
X96417194Y-138642171D01*
X96485120Y-138595913D01*
X96521639Y-138571155D01*
X96645248Y-138487547D01*
X96749009Y-138543650D01*
X96796280Y-138568228D01*
X96836477Y-138587331D01*
X96863674Y-138598227D01*
X96870598Y-138599743D01*
X96878923Y-138588549D01*
X96895346Y-138556917D01*
X96918643Y-138507765D01*
X96947586Y-138444010D01*
X96980950Y-138368571D01*
X97017509Y-138284364D01*
X97056036Y-138194308D01*
X97095306Y-138101321D01*
X97134092Y-138008320D01*
X97171170Y-137918223D01*
X97205311Y-137833948D01*
X97235292Y-137758413D01*
X97259884Y-137694534D01*
X97277864Y-137645231D01*
X97288003Y-137613421D01*
X97289634Y-137602496D01*
X97276709Y-137588561D01*
X97248411Y-137565940D01*
X97210654Y-137539333D01*
X97207485Y-137537228D01*
X97109900Y-137459114D01*
X97031214Y-137367982D01*
X96972109Y-137266745D01*
X96933268Y-137158318D01*
X96915372Y-137045614D01*
X96919103Y-136931548D01*
X96945143Y-136819034D01*
X96994175Y-136710985D01*
X97008600Y-136687345D01*
X97083631Y-136591887D01*
X97172270Y-136515232D01*
X97271451Y-136457780D01*
X97378105Y-136419929D01*
X97489164Y-136402078D01*
X97601561Y-136404625D01*
X97712227Y-136427970D01*
X97818094Y-136472510D01*
X97916095Y-136538645D01*
X97946410Y-136565487D01*
X98023562Y-136649512D01*
X98079782Y-136737966D01*
X98118347Y-136837115D01*
X98139826Y-136935303D01*
X98145128Y-137045697D01*
X98127448Y-137156640D01*
X98088581Y-137264381D01*
X98030323Y-137365169D01*
X97954469Y-137455256D01*
X97862817Y-137530892D01*
X97850772Y-137538864D01*
X97812611Y-137564974D01*
X97783601Y-137587595D01*
X97769732Y-137602039D01*
X97769531Y-137602496D01*
X97772508Y-137618121D01*
X97784311Y-137653582D01*
X97803714Y-137705962D01*
X97829488Y-137772345D01*
X97860409Y-137849814D01*
X97895249Y-137935450D01*
X97932783Y-138026337D01*
X97971783Y-138119559D01*
X98011023Y-138212197D01*
X98049276Y-138301335D01*
X98085317Y-138384055D01*
X98117917Y-138457441D01*
X98145852Y-138518575D01*
X98167895Y-138564541D01*
X98182818Y-138592421D01*
X98188828Y-138599743D01*
X98207191Y-138594041D01*
X98241552Y-138578749D01*
X98285984Y-138556599D01*
X98310417Y-138543650D01*
X98414178Y-138487547D01*
X98537787Y-138571155D01*
X98600886Y-138613987D01*
X98669970Y-138661122D01*
X98734707Y-138705503D01*
X98767134Y-138727852D01*
X98812741Y-138758477D01*
X98851360Y-138782747D01*
X98877952Y-138797587D01*
X98886590Y-138800724D01*
X98899161Y-138792261D01*
X98926984Y-138768636D01*
X98967361Y-138732302D01*
X99017595Y-138685711D01*
X99074988Y-138631317D01*
X99111286Y-138596392D01*
X99174790Y-138533996D01*
X99229673Y-138478188D01*
X99273714Y-138431354D01*
X99304695Y-138395882D01*
X99320398Y-138374161D01*
X99321905Y-138369752D01*
X99314914Y-138352985D01*
X99295594Y-138319082D01*
X99266091Y-138271476D01*
X99228545Y-138213599D01*
X99185100Y-138148884D01*
X99172745Y-138130842D01*
X99127727Y-138065267D01*
X99087340Y-138006228D01*
X99053840Y-137957042D01*
X99029486Y-137921028D01*
X99016536Y-137901502D01*
X99015285Y-137899483D01*
X99017156Y-137883922D01*
X99027087Y-137849709D01*
X99043347Y-137801355D01*
X99064205Y-137743371D01*
X99087927Y-137680270D01*
X99112784Y-137616563D01*
X99137042Y-137556761D01*
X99158971Y-137505376D01*
X99176838Y-137466919D01*
X99188913Y-137445902D01*
X99189771Y-137444894D01*
X99197154Y-137438888D01*
X99209625Y-137432948D01*
X99229920Y-137426460D01*
X99260778Y-137418809D01*
X99304934Y-137409380D01*
X99365126Y-137397559D01*
X99444093Y-137382729D01*
X99544570Y-137364277D01*
X99566325Y-137360310D01*
X99630802Y-137347853D01*
X99687011Y-137335666D01*
X99729987Y-137324926D01*
X99754760Y-137316809D01*
X99758082Y-137314916D01*
X99763556Y-137298138D01*
X99768006Y-137260645D01*
X99771428Y-137206794D01*
X99773819Y-137140944D01*
X99775177Y-137067453D01*
X99775499Y-136990680D01*
X99774781Y-136914983D01*
X99773021Y-136844720D01*
X99770216Y-136784250D01*
X99766362Y-136737930D01*
X99761457Y-136710119D01*
X99758500Y-136704427D01*
X99742037Y-136698686D01*
X99704551Y-136689345D01*
X99649775Y-136677215D01*
X99581445Y-136663107D01*
X99503294Y-136647830D01*
X99460716Y-136639823D01*
X99379929Y-136624721D01*
X99307887Y-136611040D01*
X99248111Y-136599467D01*
X99204121Y-136590687D01*
X99179439Y-136585387D01*
X99175377Y-136584212D01*
X99168511Y-136570965D01*
X99153998Y-136539057D01*
X99133771Y-136493047D01*
X99109766Y-136437492D01*
X99083918Y-136376953D01*
X99058160Y-136315986D01*
X99034427Y-136259151D01*
X99014654Y-136211006D01*
X99000776Y-136176110D01*
X98994726Y-136159021D01*
X98994614Y-136158274D01*
X99001472Y-136144793D01*
X99020698Y-136113770D01*
X99050272Y-136068289D01*
X99088173Y-136011432D01*
X99132380Y-135946283D01*
X99158079Y-135908862D01*
X99204907Y-135840247D01*
X99246499Y-135777952D01*
X99280825Y-135725129D01*
X99305857Y-135684927D01*
X99319565Y-135660500D01*
X99321544Y-135655024D01*
X99313034Y-135642278D01*
X99289507Y-135615063D01*
X99253968Y-135576428D01*
X99209423Y-135529423D01*
X99158877Y-135477095D01*
X99105336Y-135422495D01*
X99051805Y-135368670D01*
X99001289Y-135318670D01*
X98956794Y-135275543D01*
X98921325Y-135242339D01*
X98897887Y-135222106D01*
X98890046Y-135217278D01*
X98877280Y-135224067D01*
X98846744Y-135243142D01*
X98801410Y-135272561D01*
X98744244Y-135310381D01*
X98678216Y-135354661D01*
X98628410Y-135388395D01*
X98376764Y-135559512D01*
X98167001Y-135473041D01*
X97957237Y-135386570D01*
X97900389Y-135085018D01*
X97843540Y-134783466D01*
X97215885Y-134783466D01*
X97159036Y-135085018D01*
G36*
X95736540Y-139253030D02*
G01*
X95693289Y-139266245D01*
X95665442Y-139282941D01*
X95656371Y-139296145D01*
X95658868Y-139311797D01*
X95675069Y-139336385D01*
X95688768Y-139353800D01*
X95717008Y-139385283D01*
X95738225Y-139398529D01*
X95756312Y-139397664D01*
X95809965Y-139384010D01*
X95849370Y-139384630D01*
X95881368Y-139400104D01*
X95892110Y-139409161D01*
X95926495Y-139441027D01*
X95926495Y-139857179D01*
X96064812Y-139857179D01*
X96064812Y-139253614D01*
X95995653Y-139253614D01*
X95954131Y-139255256D01*
X95932709Y-139261087D01*
X95926498Y-139272461D01*
X95926495Y-139272798D01*
X95923561Y-139284713D01*
X95910296Y-139283159D01*
X95891916Y-139274563D01*
X95853954Y-139258568D01*
X95823128Y-139248945D01*
X95783464Y-139246478D01*
X95736540Y-139253030D01*
X95736540Y-139253030D01*
G37*
X95736540Y-139253030D02*
X95693289Y-139266245D01*
X95665442Y-139282941D01*
X95656371Y-139296145D01*
X95658868Y-139311797D01*
X95675069Y-139336385D01*
X95688768Y-139353800D01*
X95717008Y-139385283D01*
X95738225Y-139398529D01*
X95756312Y-139397664D01*
X95809965Y-139384010D01*
X95849370Y-139384630D01*
X95881368Y-139400104D01*
X95892110Y-139409161D01*
X95926495Y-139441027D01*
X95926495Y-139857179D01*
X96064812Y-139857179D01*
X96064812Y-139253614D01*
X95995653Y-139253614D01*
X95954131Y-139255256D01*
X95932709Y-139261087D01*
X95926498Y-139272461D01*
X95926495Y-139272798D01*
X95923561Y-139284713D01*
X95910296Y-139283159D01*
X95891916Y-139274563D01*
X95853954Y-139258568D01*
X95823128Y-139248945D01*
X95783464Y-139246478D01*
X95736540Y-139253030D01*
G36*
X98290012Y-139264002D02*
G01*
X98258717Y-139278950D01*
X98228409Y-139300541D01*
X98205318Y-139325391D01*
X98188500Y-139357087D01*
X98177006Y-139399214D01*
X98169891Y-139455358D01*
X98166207Y-139529106D01*
X98165008Y-139624044D01*
X98164989Y-139633985D01*
X98164713Y-139857179D01*
X98303030Y-139857179D01*
X98303030Y-139651418D01*
X98303128Y-139575189D01*
X98303809Y-139519939D01*
X98305651Y-139481501D01*
X98309233Y-139455706D01*
X98315132Y-139438384D01*
X98323927Y-139425368D01*
X98336180Y-139412507D01*
X98379047Y-139384873D01*
X98425843Y-139379745D01*
X98470424Y-139397217D01*
X98485928Y-139410221D01*
X98497310Y-139422447D01*
X98505481Y-139435540D01*
X98510974Y-139453615D01*
X98514320Y-139480787D01*
X98516051Y-139521170D01*
X98516697Y-139578879D01*
X98516792Y-139649132D01*
X98516792Y-139857179D01*
X98655109Y-139857179D01*
X98655109Y-139253614D01*
X98585950Y-139253614D01*
X98544428Y-139255256D01*
X98523006Y-139261087D01*
X98516795Y-139272461D01*
X98516792Y-139272798D01*
X98513910Y-139283938D01*
X98501199Y-139282674D01*
X98475926Y-139270434D01*
X98418605Y-139252424D01*
X98353037Y-139250421D01*
X98290012Y-139264002D01*
X98290012Y-139264002D01*
G37*
X98290012Y-139264002D02*
X98258717Y-139278950D01*
X98228409Y-139300541D01*
X98205318Y-139325391D01*
X98188500Y-139357087D01*
X98177006Y-139399214D01*
X98169891Y-139455358D01*
X98166207Y-139529106D01*
X98165008Y-139624044D01*
X98164989Y-139633985D01*
X98164713Y-139857179D01*
X98303030Y-139857179D01*
X98303030Y-139651418D01*
X98303128Y-139575189D01*
X98303809Y-139519939D01*
X98305651Y-139481501D01*
X98309233Y-139455706D01*
X98315132Y-139438384D01*
X98323927Y-139425368D01*
X98336180Y-139412507D01*
X98379047Y-139384873D01*
X98425843Y-139379745D01*
X98470424Y-139397217D01*
X98485928Y-139410221D01*
X98497310Y-139422447D01*
X98505481Y-139435540D01*
X98510974Y-139453615D01*
X98514320Y-139480787D01*
X98516051Y-139521170D01*
X98516697Y-139578879D01*
X98516792Y-139649132D01*
X98516792Y-139857179D01*
X98655109Y-139857179D01*
X98655109Y-139253614D01*
X98585950Y-139253614D01*
X98544428Y-139255256D01*
X98523006Y-139261087D01*
X98516795Y-139272461D01*
X98516792Y-139272798D01*
X98513910Y-139283938D01*
X98501199Y-139282674D01*
X98475926Y-139270434D01*
X98418605Y-139252424D01*
X98353037Y-139250421D01*
X98290012Y-139264002D01*
G36*
X94858102Y-139251457D02*
G01*
X94825904Y-139259279D01*
X94764175Y-139287921D01*
X94711390Y-139331667D01*
X94674859Y-139384117D01*
X94669840Y-139395893D01*
X94662955Y-139426740D01*
X94658136Y-139472371D01*
X94656495Y-139518492D01*
X94656495Y-139605693D01*
X94838822Y-139605693D01*
X94914021Y-139605978D01*
X94966997Y-139607704D01*
X95000675Y-139612181D01*
X95017980Y-139620720D01*
X95021837Y-139634630D01*
X95015171Y-139655222D01*
X95003230Y-139679315D01*
X94969920Y-139719525D01*
X94923632Y-139739558D01*
X94867056Y-139738905D01*
X94802969Y-139717101D01*
X94747583Y-139690193D01*
X94701625Y-139726532D01*
X94655667Y-139762872D01*
X94698904Y-139802819D01*
X94756626Y-139840563D01*
X94827614Y-139863320D01*
X94903971Y-139869688D01*
X94977801Y-139858268D01*
X94989713Y-139854393D01*
X95054601Y-139820506D01*
X95102870Y-139769986D01*
X95135535Y-139701325D01*
X95153615Y-139613014D01*
X95153825Y-139611121D01*
X95155444Y-139514878D01*
X95148900Y-139480542D01*
X95021148Y-139480542D01*
X95009416Y-139485822D01*
X94977562Y-139489867D01*
X94930603Y-139492176D01*
X94900846Y-139492525D01*
X94845352Y-139492306D01*
X94810654Y-139490916D01*
X94792399Y-139487251D01*
X94786234Y-139480210D01*
X94787805Y-139468690D01*
X94789122Y-139464233D01*
X94811618Y-139422355D01*
X94846997Y-139388604D01*
X94878220Y-139373773D01*
X94919699Y-139374668D01*
X94961731Y-139393164D01*
X94996988Y-139423786D01*
X95018146Y-139461062D01*
X95021148Y-139480542D01*
X95148900Y-139480542D01*
X95139310Y-139430229D01*
X95107302Y-139359191D01*
X95061299Y-139303779D01*
X95003179Y-139266009D01*
X94934820Y-139247896D01*
X94858102Y-139251457D01*
X94858102Y-139251457D01*
G37*
X94858102Y-139251457D02*
X94825904Y-139259279D01*
X94764175Y-139287921D01*
X94711390Y-139331667D01*
X94674859Y-139384117D01*
X94669840Y-139395893D01*
X94662955Y-139426740D01*
X94658136Y-139472371D01*
X94656495Y-139518492D01*
X94656495Y-139605693D01*
X94838822Y-139605693D01*
X94914021Y-139605978D01*
X94966997Y-139607704D01*
X95000675Y-139612181D01*
X95017980Y-139620720D01*
X95021837Y-139634630D01*
X95015171Y-139655222D01*
X95003230Y-139679315D01*
X94969920Y-139719525D01*
X94923632Y-139739558D01*
X94867056Y-139738905D01*
X94802969Y-139717101D01*
X94747583Y-139690193D01*
X94701625Y-139726532D01*
X94655667Y-139762872D01*
X94698904Y-139802819D01*
X94756626Y-139840563D01*
X94827614Y-139863320D01*
X94903971Y-139869688D01*
X94977801Y-139858268D01*
X94989713Y-139854393D01*
X95054601Y-139820506D01*
X95102870Y-139769986D01*
X95135535Y-139701325D01*
X95153615Y-139613014D01*
X95153825Y-139611121D01*
X95155444Y-139514878D01*
X95148900Y-139480542D01*
X95021148Y-139480542D01*
X95009416Y-139485822D01*
X94977562Y-139489867D01*
X94930603Y-139492176D01*
X94900846Y-139492525D01*
X94845352Y-139492306D01*
X94810654Y-139490916D01*
X94792399Y-139487251D01*
X94786234Y-139480210D01*
X94787805Y-139468690D01*
X94789122Y-139464233D01*
X94811618Y-139422355D01*
X94846997Y-139388604D01*
X94878220Y-139373773D01*
X94919699Y-139374668D01*
X94961731Y-139393164D01*
X94996988Y-139423786D01*
X95018146Y-139461062D01*
X95021148Y-139480542D01*
X95148900Y-139480542D01*
X95139310Y-139430229D01*
X95107302Y-139359191D01*
X95061299Y-139303779D01*
X95003179Y-139266009D01*
X94934820Y-139247896D01*
X94858102Y-139251457D01*
G36*
X95318774Y-139258880D02*
G01*
X95245920Y-139289830D01*
X95222973Y-139304895D01*
X95193646Y-139328048D01*
X95175236Y-139346253D01*
X95172039Y-139352183D01*
X95181065Y-139365340D01*
X95204163Y-139387667D01*
X95222656Y-139403250D01*
X95273272Y-139443926D01*
X95313240Y-139410295D01*
X95344126Y-139388584D01*
X95374241Y-139381090D01*
X95408708Y-139382920D01*
X95463439Y-139396528D01*
X95501114Y-139424772D01*
X95524009Y-139470433D01*
X95534403Y-139536289D01*
X95534405Y-139536331D01*
X95533506Y-139609939D01*
X95519537Y-139663946D01*
X95491672Y-139700716D01*
X95472675Y-139713168D01*
X95422224Y-139728673D01*
X95368337Y-139728683D01*
X95321454Y-139713638D01*
X95310356Y-139706287D01*
X95282524Y-139687511D01*
X95260764Y-139684434D01*
X95237296Y-139698409D01*
X95211351Y-139723510D01*
X95170284Y-139765880D01*
X95215879Y-139803464D01*
X95286326Y-139845882D01*
X95365767Y-139866785D01*
X95448785Y-139865272D01*
X95503306Y-139851411D01*
X95567030Y-139817135D01*
X95617995Y-139763212D01*
X95641149Y-139725149D01*
X95659901Y-139670536D01*
X95669285Y-139601369D01*
X95669357Y-139526407D01*
X95660176Y-139454409D01*
X95641801Y-139394137D01*
X95638907Y-139387958D01*
X95596048Y-139327351D01*
X95538021Y-139283224D01*
X95469409Y-139256493D01*
X95394799Y-139248073D01*
X95318774Y-139258880D01*
X95318774Y-139258880D01*
G37*
X95318774Y-139258880D02*
X95245920Y-139289830D01*
X95222973Y-139304895D01*
X95193646Y-139328048D01*
X95175236Y-139346253D01*
X95172039Y-139352183D01*
X95181065Y-139365340D01*
X95204163Y-139387667D01*
X95222656Y-139403250D01*
X95273272Y-139443926D01*
X95313240Y-139410295D01*
X95344126Y-139388584D01*
X95374241Y-139381090D01*
X95408708Y-139382920D01*
X95463439Y-139396528D01*
X95501114Y-139424772D01*
X95524009Y-139470433D01*
X95534403Y-139536289D01*
X95534405Y-139536331D01*
X95533506Y-139609939D01*
X95519537Y-139663946D01*
X95491672Y-139700716D01*
X95472675Y-139713168D01*
X95422224Y-139728673D01*
X95368337Y-139728683D01*
X95321454Y-139713638D01*
X95310356Y-139706287D01*
X95282524Y-139687511D01*
X95260764Y-139684434D01*
X95237296Y-139698409D01*
X95211351Y-139723510D01*
X95170284Y-139765880D01*
X95215879Y-139803464D01*
X95286326Y-139845882D01*
X95365767Y-139866785D01*
X95448785Y-139865272D01*
X95503306Y-139851411D01*
X95567030Y-139817135D01*
X95617995Y-139763212D01*
X95641149Y-139725149D01*
X95659901Y-139670536D01*
X95669285Y-139601369D01*
X95669357Y-139526407D01*
X95660176Y-139454409D01*
X95641801Y-139394137D01*
X95638907Y-139387958D01*
X95596048Y-139327351D01*
X95538021Y-139283224D01*
X95469409Y-139256493D01*
X95394799Y-139248073D01*
X95318774Y-139258880D01*
G36*
X96542633Y-139449342D02*
G01*
X96541445Y-139541563D01*
X96537103Y-139611610D01*
X96528442Y-139662381D01*
X96514296Y-139696772D01*
X96493500Y-139717679D01*
X96464890Y-139728000D01*
X96429465Y-139730636D01*
X96392364Y-139727682D01*
X96364182Y-139716889D01*
X96343757Y-139695360D01*
X96329921Y-139660199D01*
X96321509Y-139608510D01*
X96317357Y-139537394D01*
X96316297Y-139449342D01*
X96316297Y-139253614D01*
X96177980Y-139253614D01*
X96177980Y-139857179D01*
X96247138Y-139857179D01*
X96288830Y-139855489D01*
X96310299Y-139849556D01*
X96316297Y-139838293D01*
X96319909Y-139828261D01*
X96334286Y-139830383D01*
X96363264Y-139844580D01*
X96429681Y-139866480D01*
X96500125Y-139864928D01*
X96567623Y-139841147D01*
X96599767Y-139822362D01*
X96624285Y-139802022D01*
X96642196Y-139776573D01*
X96654521Y-139742458D01*
X96662277Y-139696121D01*
X96666484Y-139634007D01*
X96668160Y-139552561D01*
X96668376Y-139489578D01*
X96668376Y-139253614D01*
X96542633Y-139253614D01*
X96542633Y-139449342D01*
X96542633Y-139449342D01*
G37*
X96542633Y-139449342D02*
X96541445Y-139541563D01*
X96537103Y-139611610D01*
X96528442Y-139662381D01*
X96514296Y-139696772D01*
X96493500Y-139717679D01*
X96464890Y-139728000D01*
X96429465Y-139730636D01*
X96392364Y-139727682D01*
X96364182Y-139716889D01*
X96343757Y-139695360D01*
X96329921Y-139660199D01*
X96321509Y-139608510D01*
X96317357Y-139537394D01*
X96316297Y-139449342D01*
X96316297Y-139253614D01*
X96177980Y-139253614D01*
X96177980Y-139857179D01*
X96247138Y-139857179D01*
X96288830Y-139855489D01*
X96310299Y-139849556D01*
X96316297Y-139838293D01*
X96319909Y-139828261D01*
X96334286Y-139830383D01*
X96363264Y-139844580D01*
X96429681Y-139866480D01*
X96500125Y-139864928D01*
X96567623Y-139841147D01*
X96599767Y-139822362D01*
X96624285Y-139802022D01*
X96642196Y-139776573D01*
X96654521Y-139742458D01*
X96662277Y-139696121D01*
X96666484Y-139634007D01*
X96668160Y-139552561D01*
X96668376Y-139489578D01*
X96668376Y-139253614D01*
X96542633Y-139253614D01*
X96542633Y-139449342D01*
G36*
X96925238Y-139261055D02*
G01*
X96861637Y-139295692D01*
X96811877Y-139350372D01*
X96788432Y-139394842D01*
X96778366Y-139434121D01*
X96771844Y-139490116D01*
X96769049Y-139554621D01*
X96770164Y-139619429D01*
X96775374Y-139676334D01*
X96781459Y-139706727D01*
X96801986Y-139748306D01*
X96837537Y-139792468D01*
X96880381Y-139831087D01*
X96922789Y-139856034D01*
X96923823Y-139856430D01*
X96976447Y-139867331D01*
X97038812Y-139867601D01*
X97098076Y-139857676D01*
X97120960Y-139849722D01*
X97179898Y-139816300D01*
X97222110Y-139772511D01*
X97249844Y-139714538D01*
X97265349Y-139638565D01*
X97268857Y-139598771D01*
X97268410Y-139548766D01*
X97133624Y-139548766D01*
X97129083Y-139621732D01*
X97116014Y-139677334D01*
X97095244Y-139712861D01*
X97080448Y-139723020D01*
X97042536Y-139730104D01*
X96997473Y-139728007D01*
X96958513Y-139717812D01*
X96948296Y-139712204D01*
X96921341Y-139679538D01*
X96903549Y-139629545D01*
X96895976Y-139568705D01*
X96899675Y-139503497D01*
X96907943Y-139464253D01*
X96931680Y-139418805D01*
X96969151Y-139390396D01*
X97014280Y-139380573D01*
X97060989Y-139390887D01*
X97096868Y-139416112D01*
X97115723Y-139436925D01*
X97126728Y-139457439D01*
X97131974Y-139485203D01*
X97133551Y-139527762D01*
X97133624Y-139548766D01*
X97268410Y-139548766D01*
X97267906Y-139492580D01*
X97250612Y-139405501D01*
X97216971Y-139337530D01*
X97166982Y-139288664D01*
X97100644Y-139258899D01*
X97086399Y-139255448D01*
X97000790Y-139247345D01*
X96925238Y-139261055D01*
X96925238Y-139261055D01*
G37*
X96925238Y-139261055D02*
X96861637Y-139295692D01*
X96811877Y-139350372D01*
X96788432Y-139394842D01*
X96778366Y-139434121D01*
X96771844Y-139490116D01*
X96769049Y-139554621D01*
X96770164Y-139619429D01*
X96775374Y-139676334D01*
X96781459Y-139706727D01*
X96801986Y-139748306D01*
X96837537Y-139792468D01*
X96880381Y-139831087D01*
X96922789Y-139856034D01*
X96923823Y-139856430D01*
X96976447Y-139867331D01*
X97038812Y-139867601D01*
X97098076Y-139857676D01*
X97120960Y-139849722D01*
X97179898Y-139816300D01*
X97222110Y-139772511D01*
X97249844Y-139714538D01*
X97265349Y-139638565D01*
X97268857Y-139598771D01*
X97268410Y-139548766D01*
X97133624Y-139548766D01*
X97129083Y-139621732D01*
X97116014Y-139677334D01*
X97095244Y-139712861D01*
X97080448Y-139723020D01*
X97042536Y-139730104D01*
X96997473Y-139728007D01*
X96958513Y-139717812D01*
X96948296Y-139712204D01*
X96921341Y-139679538D01*
X96903549Y-139629545D01*
X96895976Y-139568705D01*
X96899675Y-139503497D01*
X96907943Y-139464253D01*
X96931680Y-139418805D01*
X96969151Y-139390396D01*
X97014280Y-139380573D01*
X97060989Y-139390887D01*
X97096868Y-139416112D01*
X97115723Y-139436925D01*
X97126728Y-139457439D01*
X97131974Y-139485203D01*
X97133551Y-139527762D01*
X97133624Y-139548766D01*
X97268410Y-139548766D01*
X97267906Y-139492580D01*
X97250612Y-139405501D01*
X97216971Y-139337530D01*
X97166982Y-139288664D01*
X97100644Y-139258899D01*
X97086399Y-139255448D01*
X97000790Y-139247345D01*
X96925238Y-139261055D01*
G36*
X97521983Y-139251452D02*
G01*
X97474366Y-139260482D01*
X97424966Y-139279370D01*
X97419688Y-139281777D01*
X97382226Y-139301476D01*
X97356283Y-139319781D01*
X97347897Y-139331508D01*
X97355883Y-139350632D01*
X97375280Y-139378850D01*
X97383890Y-139389384D01*
X97419372Y-139430847D01*
X97465115Y-139403858D01*
X97508650Y-139385878D01*
X97558950Y-139376267D01*
X97607188Y-139375660D01*
X97644533Y-139384691D01*
X97653495Y-139390327D01*
X97670563Y-139416171D01*
X97672637Y-139445941D01*
X97659866Y-139469197D01*
X97652312Y-139473708D01*
X97629675Y-139479309D01*
X97589885Y-139485892D01*
X97540834Y-139492183D01*
X97531785Y-139493170D01*
X97453004Y-139506798D01*
X97395864Y-139529946D01*
X97357970Y-139564752D01*
X97336921Y-139613354D01*
X97330365Y-139672718D01*
X97339423Y-139740198D01*
X97368836Y-139793188D01*
X97418722Y-139831783D01*
X97489200Y-139856081D01*
X97567435Y-139865667D01*
X97631234Y-139865552D01*
X97682984Y-139856845D01*
X97718327Y-139844825D01*
X97762983Y-139823880D01*
X97804253Y-139799574D01*
X97818921Y-139788876D01*
X97856643Y-139758084D01*
X97811148Y-139712049D01*
X97765653Y-139666013D01*
X97713928Y-139700243D01*
X97662048Y-139725952D01*
X97606649Y-139739399D01*
X97553395Y-139740818D01*
X97507951Y-139730443D01*
X97475984Y-139708507D01*
X97465662Y-139689998D01*
X97467211Y-139660314D01*
X97492860Y-139637615D01*
X97542540Y-139621940D01*
X97596969Y-139614695D01*
X97680736Y-139600873D01*
X97742967Y-139574796D01*
X97784493Y-139535699D01*
X97806147Y-139482820D01*
X97809147Y-139420126D01*
X97794329Y-139354642D01*
X97760546Y-139305144D01*
X97707495Y-139271408D01*
X97634874Y-139253207D01*
X97581072Y-139249639D01*
X97521983Y-139251452D01*
X97521983Y-139251452D01*
G37*
X97521983Y-139251452D02*
X97474366Y-139260482D01*
X97424966Y-139279370D01*
X97419688Y-139281777D01*
X97382226Y-139301476D01*
X97356283Y-139319781D01*
X97347897Y-139331508D01*
X97355883Y-139350632D01*
X97375280Y-139378850D01*
X97383890Y-139389384D01*
X97419372Y-139430847D01*
X97465115Y-139403858D01*
X97508650Y-139385878D01*
X97558950Y-139376267D01*
X97607188Y-139375660D01*
X97644533Y-139384691D01*
X97653495Y-139390327D01*
X97670563Y-139416171D01*
X97672637Y-139445941D01*
X97659866Y-139469197D01*
X97652312Y-139473708D01*
X97629675Y-139479309D01*
X97589885Y-139485892D01*
X97540834Y-139492183D01*
X97531785Y-139493170D01*
X97453004Y-139506798D01*
X97395864Y-139529946D01*
X97357970Y-139564752D01*
X97336921Y-139613354D01*
X97330365Y-139672718D01*
X97339423Y-139740198D01*
X97368836Y-139793188D01*
X97418722Y-139831783D01*
X97489200Y-139856081D01*
X97567435Y-139865667D01*
X97631234Y-139865552D01*
X97682984Y-139856845D01*
X97718327Y-139844825D01*
X97762983Y-139823880D01*
X97804253Y-139799574D01*
X97818921Y-139788876D01*
X97856643Y-139758084D01*
X97811148Y-139712049D01*
X97765653Y-139666013D01*
X97713928Y-139700243D01*
X97662048Y-139725952D01*
X97606649Y-139739399D01*
X97553395Y-139740818D01*
X97507951Y-139730443D01*
X97475984Y-139708507D01*
X97465662Y-139689998D01*
X97467211Y-139660314D01*
X97492860Y-139637615D01*
X97542540Y-139621940D01*
X97596969Y-139614695D01*
X97680736Y-139600873D01*
X97742967Y-139574796D01*
X97784493Y-139535699D01*
X97806147Y-139482820D01*
X97809147Y-139420126D01*
X97794329Y-139354642D01*
X97760546Y-139305144D01*
X97707495Y-139271408D01*
X97634874Y-139253207D01*
X97581072Y-139249639D01*
X97521983Y-139251452D01*
G36*
X98892699Y-139267614D02*
G01*
X98880168Y-139273514D01*
X98836799Y-139305283D01*
X98795790Y-139351646D01*
X98765168Y-139402696D01*
X98756459Y-139426166D01*
X98748512Y-139468091D01*
X98743774Y-139518757D01*
X98743199Y-139539679D01*
X98743129Y-139605693D01*
X99123083Y-139605693D01*
X99114983Y-139640273D01*
X99095104Y-139681170D01*
X99060347Y-139716514D01*
X99018998Y-139739282D01*
X98992649Y-139744010D01*
X98956916Y-139738273D01*
X98914282Y-139723882D01*
X98899799Y-139717262D01*
X98846240Y-139690513D01*
X98800533Y-139725376D01*
X98774158Y-139748955D01*
X98760124Y-139768417D01*
X98759414Y-139774129D01*
X98771951Y-139787973D01*
X98799428Y-139809012D01*
X98824366Y-139825425D01*
X98891664Y-139854930D01*
X98967110Y-139868284D01*
X99041888Y-139864812D01*
X99101495Y-139846663D01*
X99162941Y-139807784D01*
X99206608Y-139756595D01*
X99233926Y-139690367D01*
X99246322Y-139606371D01*
X99247421Y-139567936D01*
X99243022Y-139479861D01*
X99242482Y-139477299D01*
X99116582Y-139477299D01*
X99113115Y-139485558D01*
X99098863Y-139490113D01*
X99069470Y-139492065D01*
X99020575Y-139492517D01*
X99001748Y-139492525D01*
X98944467Y-139491843D01*
X98908141Y-139489364D01*
X98888604Y-139484443D01*
X98881690Y-139476434D01*
X98881445Y-139473862D01*
X98889336Y-139453423D01*
X98909085Y-139424789D01*
X98917575Y-139414763D01*
X98949094Y-139386408D01*
X98981949Y-139375259D01*
X98999651Y-139374327D01*
X99047539Y-139385981D01*
X99087699Y-139417285D01*
X99113173Y-139462752D01*
X99113625Y-139464233D01*
X99116582Y-139477299D01*
X99242482Y-139477299D01*
X99228392Y-139410510D01*
X99202038Y-139355025D01*
X99169807Y-139315639D01*
X99110217Y-139272931D01*
X99040168Y-139250109D01*
X98965661Y-139248046D01*
X98892699Y-139267614D01*
X98892699Y-139267614D01*
G37*
X98892699Y-139267614D02*
X98880168Y-139273514D01*
X98836799Y-139305283D01*
X98795790Y-139351646D01*
X98765168Y-139402696D01*
X98756459Y-139426166D01*
X98748512Y-139468091D01*
X98743774Y-139518757D01*
X98743199Y-139539679D01*
X98743129Y-139605693D01*
X99123083Y-139605693D01*
X99114983Y-139640273D01*
X99095104Y-139681170D01*
X99060347Y-139716514D01*
X99018998Y-139739282D01*
X98992649Y-139744010D01*
X98956916Y-139738273D01*
X98914282Y-139723882D01*
X98899799Y-139717262D01*
X98846240Y-139690513D01*
X98800533Y-139725376D01*
X98774158Y-139748955D01*
X98760124Y-139768417D01*
X98759414Y-139774129D01*
X98771951Y-139787973D01*
X98799428Y-139809012D01*
X98824366Y-139825425D01*
X98891664Y-139854930D01*
X98967110Y-139868284D01*
X99041888Y-139864812D01*
X99101495Y-139846663D01*
X99162941Y-139807784D01*
X99206608Y-139756595D01*
X99233926Y-139690367D01*
X99246322Y-139606371D01*
X99247421Y-139567936D01*
X99243022Y-139479861D01*
X99242482Y-139477299D01*
X99116582Y-139477299D01*
X99113115Y-139485558D01*
X99098863Y-139490113D01*
X99069470Y-139492065D01*
X99020575Y-139492517D01*
X99001748Y-139492525D01*
X98944467Y-139491843D01*
X98908141Y-139489364D01*
X98888604Y-139484443D01*
X98881690Y-139476434D01*
X98881445Y-139473862D01*
X98889336Y-139453423D01*
X98909085Y-139424789D01*
X98917575Y-139414763D01*
X98949094Y-139386408D01*
X98981949Y-139375259D01*
X98999651Y-139374327D01*
X99047539Y-139385981D01*
X99087699Y-139417285D01*
X99113173Y-139462752D01*
X99113625Y-139464233D01*
X99116582Y-139477299D01*
X99242482Y-139477299D01*
X99228392Y-139410510D01*
X99202038Y-139355025D01*
X99169807Y-139315639D01*
X99110217Y-139272931D01*
X99040168Y-139250109D01*
X98965661Y-139248046D01*
X98892699Y-139267614D01*
G36*
X100074261Y-139260148D02*
G01*
X100008479Y-139289231D01*
X99958540Y-139337793D01*
X99924374Y-139405908D01*
X99905907Y-139493651D01*
X99904583Y-139507351D01*
X99903546Y-139603939D01*
X99916993Y-139688602D01*
X99944108Y-139757221D01*
X99958627Y-139779294D01*
X100009201Y-139826011D01*
X100073609Y-139856268D01*
X100145666Y-139868824D01*
X100219185Y-139862439D01*
X100275072Y-139842772D01*
X100323132Y-139809629D01*
X100362412Y-139766175D01*
X100363092Y-139765158D01*
X100379044Y-139738338D01*
X100389410Y-139711368D01*
X100395688Y-139677332D01*
X100399373Y-139629310D01*
X100400997Y-139589931D01*
X100401672Y-139554219D01*
X100275955Y-139554219D01*
X100274726Y-139589770D01*
X100270266Y-139637094D01*
X100262397Y-139667465D01*
X100248207Y-139689072D01*
X100234917Y-139701694D01*
X100187802Y-139728122D01*
X100138505Y-139731653D01*
X100092593Y-139712639D01*
X100069638Y-139691331D01*
X100053096Y-139669859D01*
X100043421Y-139649313D01*
X100039174Y-139622574D01*
X100038920Y-139582523D01*
X100040228Y-139545638D01*
X100043043Y-139492947D01*
X100047505Y-139458772D01*
X100055548Y-139436480D01*
X100069103Y-139419442D01*
X100079845Y-139409703D01*
X100124777Y-139384123D01*
X100173249Y-139382847D01*
X100213894Y-139397999D01*
X100248567Y-139429642D01*
X100269224Y-139481620D01*
X100275955Y-139554219D01*
X100401672Y-139554219D01*
X100402479Y-139511621D01*
X100399948Y-139453056D01*
X100392362Y-139409007D01*
X100378681Y-139374248D01*
X100357865Y-139343551D01*
X100350147Y-139334436D01*
X100301889Y-139289021D01*
X100250128Y-139262493D01*
X100186828Y-139251379D01*
X100155961Y-139250471D01*
X100074261Y-139260148D01*
X100074261Y-139260148D01*
G37*
X100074261Y-139260148D02*
X100008479Y-139289231D01*
X99958540Y-139337793D01*
X99924374Y-139405908D01*
X99905907Y-139493651D01*
X99904583Y-139507351D01*
X99903546Y-139603939D01*
X99916993Y-139688602D01*
X99944108Y-139757221D01*
X99958627Y-139779294D01*
X100009201Y-139826011D01*
X100073609Y-139856268D01*
X100145666Y-139868824D01*
X100219185Y-139862439D01*
X100275072Y-139842772D01*
X100323132Y-139809629D01*
X100362412Y-139766175D01*
X100363092Y-139765158D01*
X100379044Y-139738338D01*
X100389410Y-139711368D01*
X100395688Y-139677332D01*
X100399373Y-139629310D01*
X100400997Y-139589931D01*
X100401672Y-139554219D01*
X100275955Y-139554219D01*
X100274726Y-139589770D01*
X100270266Y-139637094D01*
X100262397Y-139667465D01*
X100248207Y-139689072D01*
X100234917Y-139701694D01*
X100187802Y-139728122D01*
X100138505Y-139731653D01*
X100092593Y-139712639D01*
X100069638Y-139691331D01*
X100053096Y-139669859D01*
X100043421Y-139649313D01*
X100039174Y-139622574D01*
X100038920Y-139582523D01*
X100040228Y-139545638D01*
X100043043Y-139492947D01*
X100047505Y-139458772D01*
X100055548Y-139436480D01*
X100069103Y-139419442D01*
X100079845Y-139409703D01*
X100124777Y-139384123D01*
X100173249Y-139382847D01*
X100213894Y-139397999D01*
X100248567Y-139429642D01*
X100269224Y-139481620D01*
X100275955Y-139554219D01*
X100401672Y-139554219D01*
X100402479Y-139511621D01*
X100399948Y-139453056D01*
X100392362Y-139409007D01*
X100378681Y-139374248D01*
X100357865Y-139343551D01*
X100350147Y-139334436D01*
X100301889Y-139289021D01*
X100250128Y-139262493D01*
X100186828Y-139251379D01*
X100155961Y-139250471D01*
X100074261Y-139260148D01*
G36*
X95503419Y-140199970D02*
G01*
X95443315Y-140215597D01*
X95392979Y-140247848D01*
X95368607Y-140271940D01*
X95328655Y-140328895D01*
X95305758Y-140394965D01*
X95297892Y-140476182D01*
X95297852Y-140482748D01*
X95297782Y-140548763D01*
X95677736Y-140548763D01*
X95669637Y-140583342D01*
X95655013Y-140614659D01*
X95629419Y-140647291D01*
X95624065Y-140652500D01*
X95578057Y-140680694D01*
X95525590Y-140685475D01*
X95465197Y-140666926D01*
X95454960Y-140661931D01*
X95423561Y-140646745D01*
X95402530Y-140638094D01*
X95398861Y-140637293D01*
X95386052Y-140645063D01*
X95361622Y-140664072D01*
X95349221Y-140674460D01*
X95323524Y-140698321D01*
X95315085Y-140714077D01*
X95320942Y-140728571D01*
X95324072Y-140732534D01*
X95345275Y-140749879D01*
X95380262Y-140770959D01*
X95404663Y-140783265D01*
X95473928Y-140804946D01*
X95550612Y-140811971D01*
X95623235Y-140803647D01*
X95643574Y-140797686D01*
X95706524Y-140763952D01*
X95753185Y-140712045D01*
X95783827Y-140641459D01*
X95798718Y-140551692D01*
X95800353Y-140504753D01*
X95795579Y-140436413D01*
X95675010Y-140436413D01*
X95663348Y-140441465D01*
X95632002Y-140445429D01*
X95586429Y-140447768D01*
X95555554Y-140448169D01*
X95500019Y-140447783D01*
X95464967Y-140445975D01*
X95445738Y-140441773D01*
X95437670Y-140434203D01*
X95436099Y-140423218D01*
X95446879Y-140389381D01*
X95474020Y-140355940D01*
X95509723Y-140330272D01*
X95545440Y-140319772D01*
X95593952Y-140329086D01*
X95635947Y-140356013D01*
X95665064Y-140394827D01*
X95675010Y-140436413D01*
X95795579Y-140436413D01*
X95793401Y-140405236D01*
X95771945Y-140325949D01*
X95735530Y-140266263D01*
X95683703Y-140225549D01*
X95616010Y-140203179D01*
X95579338Y-140198871D01*
X95503419Y-140199970D01*
X95503419Y-140199970D01*
G37*
X95503419Y-140199970D02*
X95443315Y-140215597D01*
X95392979Y-140247848D01*
X95368607Y-140271940D01*
X95328655Y-140328895D01*
X95305758Y-140394965D01*
X95297892Y-140476182D01*
X95297852Y-140482748D01*
X95297782Y-140548763D01*
X95677736Y-140548763D01*
X95669637Y-140583342D01*
X95655013Y-140614659D01*
X95629419Y-140647291D01*
X95624065Y-140652500D01*
X95578057Y-140680694D01*
X95525590Y-140685475D01*
X95465197Y-140666926D01*
X95454960Y-140661931D01*
X95423561Y-140646745D01*
X95402530Y-140638094D01*
X95398861Y-140637293D01*
X95386052Y-140645063D01*
X95361622Y-140664072D01*
X95349221Y-140674460D01*
X95323524Y-140698321D01*
X95315085Y-140714077D01*
X95320942Y-140728571D01*
X95324072Y-140732534D01*
X95345275Y-140749879D01*
X95380262Y-140770959D01*
X95404663Y-140783265D01*
X95473928Y-140804946D01*
X95550612Y-140811971D01*
X95623235Y-140803647D01*
X95643574Y-140797686D01*
X95706524Y-140763952D01*
X95753185Y-140712045D01*
X95783827Y-140641459D01*
X95798718Y-140551692D01*
X95800353Y-140504753D01*
X95795579Y-140436413D01*
X95675010Y-140436413D01*
X95663348Y-140441465D01*
X95632002Y-140445429D01*
X95586429Y-140447768D01*
X95555554Y-140448169D01*
X95500019Y-140447783D01*
X95464967Y-140445975D01*
X95445738Y-140441773D01*
X95437670Y-140434203D01*
X95436099Y-140423218D01*
X95446879Y-140389381D01*
X95474020Y-140355940D01*
X95509723Y-140330272D01*
X95545440Y-140319772D01*
X95593952Y-140329086D01*
X95635947Y-140356013D01*
X95665064Y-140394827D01*
X95675010Y-140436413D01*
X95795579Y-140436413D01*
X95793401Y-140405236D01*
X95771945Y-140325949D01*
X95735530Y-140266263D01*
X95683703Y-140225549D01*
X95616010Y-140203179D01*
X95579338Y-140198871D01*
X95503419Y-140199970D01*
G36*
X95900745Y-140196486D02*
G01*
X95852405Y-140206015D01*
X95824886Y-140220125D01*
X95795936Y-140243568D01*
X95837124Y-140295571D01*
X95862518Y-140327064D01*
X95879762Y-140342428D01*
X95896898Y-140344776D01*
X95921973Y-140337217D01*
X95933743Y-140332941D01*
X95981730Y-140326631D01*
X96025676Y-140340156D01*
X96057940Y-140370710D01*
X96063181Y-140380452D01*
X96068888Y-140406258D01*
X96073294Y-140453817D01*
X96076189Y-140519758D01*
X96077369Y-140600710D01*
X96077386Y-140612226D01*
X96077386Y-140812822D01*
X96215703Y-140812822D01*
X96215703Y-140196683D01*
X96146544Y-140196683D01*
X96106667Y-140197725D01*
X96085893Y-140202358D01*
X96078211Y-140212849D01*
X96077386Y-140222745D01*
X96077386Y-140248806D01*
X96044255Y-140222745D01*
X96006265Y-140204965D01*
X95955230Y-140196174D01*
X95900745Y-140196486D01*
X95900745Y-140196486D01*
G37*
X95900745Y-140196486D02*
X95852405Y-140206015D01*
X95824886Y-140220125D01*
X95795936Y-140243568D01*
X95837124Y-140295571D01*
X95862518Y-140327064D01*
X95879762Y-140342428D01*
X95896898Y-140344776D01*
X95921973Y-140337217D01*
X95933743Y-140332941D01*
X95981730Y-140326631D01*
X96025676Y-140340156D01*
X96057940Y-140370710D01*
X96063181Y-140380452D01*
X96068888Y-140406258D01*
X96073294Y-140453817D01*
X96076189Y-140519758D01*
X96077369Y-140600710D01*
X96077386Y-140612226D01*
X96077386Y-140812822D01*
X96215703Y-140812822D01*
X96215703Y-140196683D01*
X96146544Y-140196683D01*
X96106667Y-140197725D01*
X96085893Y-140202358D01*
X96078211Y-140212849D01*
X96077386Y-140222745D01*
X96077386Y-140248806D01*
X96044255Y-140222745D01*
X96006265Y-140204965D01*
X95955230Y-140196174D01*
X95900745Y-140196486D01*
G36*
X96497589Y-140200417D02*
G01*
X96444589Y-140213290D01*
X96429269Y-140220110D01*
X96399572Y-140237974D01*
X96376780Y-140258093D01*
X96359917Y-140283962D01*
X96348002Y-140319073D01*
X96340058Y-140366920D01*
X96335106Y-140430996D01*
X96332169Y-140514794D01*
X96331053Y-140570768D01*
X96326948Y-140812822D01*
X96397068Y-140812822D01*
X96439607Y-140811038D01*
X96461524Y-140804942D01*
X96467188Y-140794706D01*
X96470179Y-140783637D01*
X96483549Y-140785754D01*
X96501767Y-140794629D01*
X96547376Y-140808233D01*
X96605993Y-140811899D01*
X96667646Y-140805903D01*
X96722362Y-140790521D01*
X96727270Y-140788386D01*
X96777277Y-140753255D01*
X96810244Y-140704419D01*
X96825413Y-140647333D01*
X96824254Y-140626824D01*
X96700492Y-140626824D01*
X96689587Y-140654425D01*
X96657255Y-140674204D01*
X96605090Y-140684819D01*
X96577213Y-140686228D01*
X96530753Y-140682620D01*
X96499871Y-140668597D01*
X96492336Y-140661931D01*
X96471924Y-140625666D01*
X96467188Y-140592773D01*
X96467188Y-140548763D01*
X96528487Y-140548763D01*
X96599744Y-140552395D01*
X96649724Y-140563818D01*
X96681304Y-140583824D01*
X96688374Y-140592743D01*
X96700492Y-140626824D01*
X96824254Y-140626824D01*
X96822029Y-140587456D01*
X96799337Y-140530244D01*
X96768376Y-140491580D01*
X96749624Y-140474864D01*
X96731267Y-140463878D01*
X96707381Y-140457180D01*
X96672043Y-140453326D01*
X96619331Y-140450873D01*
X96598423Y-140450168D01*
X96467188Y-140445879D01*
X96467380Y-140406158D01*
X96472463Y-140364405D01*
X96490838Y-140339158D01*
X96527961Y-140323030D01*
X96528957Y-140322742D01*
X96581590Y-140316400D01*
X96633094Y-140324684D01*
X96671370Y-140344827D01*
X96686728Y-140354773D01*
X96703270Y-140353397D01*
X96728725Y-140338987D01*
X96743672Y-140328817D01*
X96772909Y-140307088D01*
X96791020Y-140290800D01*
X96793926Y-140286137D01*
X96781960Y-140262005D01*
X96746604Y-140233185D01*
X96731247Y-140223461D01*
X96687099Y-140206714D01*
X96627602Y-140197227D01*
X96561513Y-140195095D01*
X96497589Y-140200417D01*
X96497589Y-140200417D01*
G37*
X96497589Y-140200417D02*
X96444589Y-140213290D01*
X96429269Y-140220110D01*
X96399572Y-140237974D01*
X96376780Y-140258093D01*
X96359917Y-140283962D01*
X96348002Y-140319073D01*
X96340058Y-140366920D01*
X96335106Y-140430996D01*
X96332169Y-140514794D01*
X96331053Y-140570768D01*
X96326948Y-140812822D01*
X96397068Y-140812822D01*
X96439607Y-140811038D01*
X96461524Y-140804942D01*
X96467188Y-140794706D01*
X96470179Y-140783637D01*
X96483549Y-140785754D01*
X96501767Y-140794629D01*
X96547376Y-140808233D01*
X96605993Y-140811899D01*
X96667646Y-140805903D01*
X96722362Y-140790521D01*
X96727270Y-140788386D01*
X96777277Y-140753255D01*
X96810244Y-140704419D01*
X96825413Y-140647333D01*
X96824254Y-140626824D01*
X96700492Y-140626824D01*
X96689587Y-140654425D01*
X96657255Y-140674204D01*
X96605090Y-140684819D01*
X96577213Y-140686228D01*
X96530753Y-140682620D01*
X96499871Y-140668597D01*
X96492336Y-140661931D01*
X96471924Y-140625666D01*
X96467188Y-140592773D01*
X96467188Y-140548763D01*
X96528487Y-140548763D01*
X96599744Y-140552395D01*
X96649724Y-140563818D01*
X96681304Y-140583824D01*
X96688374Y-140592743D01*
X96700492Y-140626824D01*
X96824254Y-140626824D01*
X96822029Y-140587456D01*
X96799337Y-140530244D01*
X96768376Y-140491580D01*
X96749624Y-140474864D01*
X96731267Y-140463878D01*
X96707381Y-140457180D01*
X96672043Y-140453326D01*
X96619331Y-140450873D01*
X96598423Y-140450168D01*
X96467188Y-140445879D01*
X96467380Y-140406158D01*
X96472463Y-140364405D01*
X96490838Y-140339158D01*
X96527961Y-140323030D01*
X96528957Y-140322742D01*
X96581590Y-140316400D01*
X96633094Y-140324684D01*
X96671370Y-140344827D01*
X96686728Y-140354773D01*
X96703270Y-140353397D01*
X96728725Y-140338987D01*
X96743672Y-140328817D01*
X96772909Y-140307088D01*
X96791020Y-140290800D01*
X96793926Y-140286137D01*
X96781960Y-140262005D01*
X96746604Y-140233185D01*
X96731247Y-140223461D01*
X96687099Y-140206714D01*
X96627602Y-140197227D01*
X96561513Y-140195095D01*
X96497589Y-140200417D01*
G36*
X97254476Y-140199237D02*
G01*
X97204745Y-140202971D01*
X97074709Y-140592773D01*
X97054322Y-140523614D01*
X97042054Y-140480874D01*
X97025915Y-140423115D01*
X97008488Y-140359625D01*
X96999274Y-140325570D01*
X96964612Y-140196683D01*
X96821609Y-140196683D01*
X96864354Y-140331857D01*
X96885404Y-140398342D01*
X96910833Y-140478539D01*
X96937390Y-140562193D01*
X96961098Y-140636782D01*
X97015098Y-140806535D01*
X97073402Y-140810328D01*
X97131705Y-140814122D01*
X97163321Y-140709734D01*
X97182818Y-140644889D01*
X97204096Y-140573400D01*
X97222692Y-140510263D01*
X97223426Y-140507750D01*
X97237316Y-140464969D01*
X97249571Y-140435779D01*
X97258154Y-140424741D01*
X97259918Y-140426018D01*
X97266109Y-140443130D01*
X97277872Y-140479787D01*
X97293775Y-140531378D01*
X97312386Y-140593294D01*
X97322457Y-140627352D01*
X97376993Y-140812822D01*
X97492736Y-140812822D01*
X97585263Y-140520471D01*
X97611256Y-140438462D01*
X97634934Y-140363987D01*
X97655180Y-140300544D01*
X97670874Y-140251632D01*
X97680898Y-140220749D01*
X97683945Y-140211726D01*
X97681533Y-140202487D01*
X97662592Y-140198441D01*
X97623177Y-140198846D01*
X97617007Y-140199152D01*
X97543914Y-140202971D01*
X97496043Y-140379010D01*
X97478447Y-140443211D01*
X97462723Y-140499649D01*
X97450254Y-140543422D01*
X97442426Y-140569630D01*
X97440980Y-140573903D01*
X97434986Y-140568990D01*
X97422899Y-140543532D01*
X97406107Y-140500997D01*
X97385997Y-140444850D01*
X97368997Y-140394130D01*
X97304206Y-140195504D01*
X97254476Y-140199237D01*
X97254476Y-140199237D01*
G37*
X97254476Y-140199237D02*
X97204745Y-140202971D01*
X97074709Y-140592773D01*
X97054322Y-140523614D01*
X97042054Y-140480874D01*
X97025915Y-140423115D01*
X97008488Y-140359625D01*
X96999274Y-140325570D01*
X96964612Y-140196683D01*
X96821609Y-140196683D01*
X96864354Y-140331857D01*
X96885404Y-140398342D01*
X96910833Y-140478539D01*
X96937390Y-140562193D01*
X96961098Y-140636782D01*
X97015098Y-140806535D01*
X97073402Y-140810328D01*
X97131705Y-140814122D01*
X97163321Y-140709734D01*
X97182818Y-140644889D01*
X97204096Y-140573400D01*
X97222692Y-140510263D01*
X97223426Y-140507750D01*
X97237316Y-140464969D01*
X97249571Y-140435779D01*
X97258154Y-140424741D01*
X97259918Y-140426018D01*
X97266109Y-140443130D01*
X97277872Y-140479787D01*
X97293775Y-140531378D01*
X97312386Y-140593294D01*
X97322457Y-140627352D01*
X97376993Y-140812822D01*
X97492736Y-140812822D01*
X97585263Y-140520471D01*
X97611256Y-140438462D01*
X97634934Y-140363987D01*
X97655180Y-140300544D01*
X97670874Y-140251632D01*
X97680898Y-140220749D01*
X97683945Y-140211726D01*
X97681533Y-140202487D01*
X97662592Y-140198441D01*
X97623177Y-140198846D01*
X97617007Y-140199152D01*
X97543914Y-140202971D01*
X97496043Y-140379010D01*
X97478447Y-140443211D01*
X97462723Y-140499649D01*
X97450254Y-140543422D01*
X97442426Y-140569630D01*
X97440980Y-140573903D01*
X97434986Y-140568990D01*
X97422899Y-140543532D01*
X97406107Y-140500997D01*
X97385997Y-140444850D01*
X97368997Y-140394130D01*
X97304206Y-140195504D01*
X97254476Y-140199237D01*
G36*
X97737188Y-140812822D02*
G01*
X97806346Y-140812822D01*
X97846488Y-140811645D01*
X97867394Y-140806772D01*
X97874922Y-140796186D01*
X97875505Y-140789029D01*
X97876774Y-140774676D01*
X97884779Y-140771923D01*
X97905815Y-140780771D01*
X97922173Y-140789029D01*
X97984977Y-140808597D01*
X98053248Y-140809729D01*
X98108752Y-140795135D01*
X98160438Y-140759877D01*
X98199838Y-140707835D01*
X98221413Y-140646450D01*
X98221962Y-140643018D01*
X98225167Y-140605571D01*
X98226761Y-140551813D01*
X98226633Y-140511155D01*
X98089279Y-140511155D01*
X98086097Y-140565194D01*
X98078859Y-140609735D01*
X98069060Y-140634888D01*
X98031989Y-140669260D01*
X97987974Y-140681582D01*
X97942584Y-140671618D01*
X97903797Y-140641895D01*
X97889108Y-140621905D01*
X97880519Y-140598050D01*
X97876496Y-140563230D01*
X97875505Y-140510930D01*
X97877278Y-140459139D01*
X97881963Y-140413634D01*
X97888603Y-140383181D01*
X97889710Y-140380452D01*
X97916491Y-140348000D01*
X97955579Y-140330183D01*
X97999315Y-140327306D01*
X98040038Y-140339674D01*
X98070087Y-140367593D01*
X98073204Y-140373148D01*
X98082961Y-140407022D01*
X98088277Y-140455728D01*
X98089279Y-140511155D01*
X98226633Y-140511155D01*
X98226568Y-140490540D01*
X98225664Y-140457563D01*
X98219514Y-140375981D01*
X98206733Y-140314730D01*
X98185471Y-140269449D01*
X98153878Y-140235779D01*
X98123207Y-140216014D01*
X98080354Y-140202120D01*
X98027056Y-140197354D01*
X97972480Y-140201236D01*
X97925792Y-140213282D01*
X97901124Y-140227693D01*
X97875505Y-140250878D01*
X97875505Y-139957773D01*
X97737188Y-139957773D01*
X97737188Y-140812822D01*
X97737188Y-140812822D01*
G37*
X97737188Y-140812822D02*
X97806346Y-140812822D01*
X97846488Y-140811645D01*
X97867394Y-140806772D01*
X97874922Y-140796186D01*
X97875505Y-140789029D01*
X97876774Y-140774676D01*
X97884779Y-140771923D01*
X97905815Y-140780771D01*
X97922173Y-140789029D01*
X97984977Y-140808597D01*
X98053248Y-140809729D01*
X98108752Y-140795135D01*
X98160438Y-140759877D01*
X98199838Y-140707835D01*
X98221413Y-140646450D01*
X98221962Y-140643018D01*
X98225167Y-140605571D01*
X98226761Y-140551813D01*
X98226633Y-140511155D01*
X98089279Y-140511155D01*
X98086097Y-140565194D01*
X98078859Y-140609735D01*
X98069060Y-140634888D01*
X98031989Y-140669260D01*
X97987974Y-140681582D01*
X97942584Y-140671618D01*
X97903797Y-140641895D01*
X97889108Y-140621905D01*
X97880519Y-140598050D01*
X97876496Y-140563230D01*
X97875505Y-140510930D01*
X97877278Y-140459139D01*
X97881963Y-140413634D01*
X97888603Y-140383181D01*
X97889710Y-140380452D01*
X97916491Y-140348000D01*
X97955579Y-140330183D01*
X97999315Y-140327306D01*
X98040038Y-140339674D01*
X98070087Y-140367593D01*
X98073204Y-140373148D01*
X98082961Y-140407022D01*
X98088277Y-140455728D01*
X98089279Y-140511155D01*
X98226633Y-140511155D01*
X98226568Y-140490540D01*
X98225664Y-140457563D01*
X98219514Y-140375981D01*
X98206733Y-140314730D01*
X98185471Y-140269449D01*
X98153878Y-140235779D01*
X98123207Y-140216014D01*
X98080354Y-140202120D01*
X98027056Y-140197354D01*
X97972480Y-140201236D01*
X97925792Y-140213282D01*
X97901124Y-140227693D01*
X97875505Y-140250878D01*
X97875505Y-139957773D01*
X97737188Y-139957773D01*
X97737188Y-140812822D01*
G36*
X98529356Y-140198020D02*
G01*
X98510539Y-140203660D01*
X98504473Y-140216053D01*
X98504218Y-140221647D01*
X98503129Y-140237230D01*
X98495632Y-140239676D01*
X98475381Y-140228993D01*
X98463351Y-140221694D01*
X98425400Y-140206063D01*
X98380072Y-140198334D01*
X98332544Y-140197740D01*
X98287995Y-140203513D01*
X98251602Y-140214884D01*
X98228543Y-140231088D01*
X98223996Y-140251355D01*
X98226291Y-140256843D01*
X98243020Y-140279626D01*
X98268963Y-140307647D01*
X98273655Y-140312177D01*
X98298383Y-140333005D01*
X98319718Y-140339735D01*
X98349555Y-140335038D01*
X98361508Y-140331917D01*
X98398705Y-140324421D01*
X98424859Y-140327792D01*
X98446946Y-140339681D01*
X98467178Y-140355635D01*
X98482079Y-140375700D01*
X98492434Y-140403702D01*
X98499029Y-140443467D01*
X98502649Y-140498823D01*
X98504078Y-140573594D01*
X98504218Y-140618740D01*
X98504218Y-140812822D01*
X98629960Y-140812822D01*
X98629960Y-140196683D01*
X98567089Y-140196683D01*
X98529356Y-140198020D01*
X98529356Y-140198020D01*
G37*
X98529356Y-140198020D02*
X98510539Y-140203660D01*
X98504473Y-140216053D01*
X98504218Y-140221647D01*
X98503129Y-140237230D01*
X98495632Y-140239676D01*
X98475381Y-140228993D01*
X98463351Y-140221694D01*
X98425400Y-140206063D01*
X98380072Y-140198334D01*
X98332544Y-140197740D01*
X98287995Y-140203513D01*
X98251602Y-140214884D01*
X98228543Y-140231088D01*
X98223996Y-140251355D01*
X98226291Y-140256843D01*
X98243020Y-140279626D01*
X98268963Y-140307647D01*
X98273655Y-140312177D01*
X98298383Y-140333005D01*
X98319718Y-140339735D01*
X98349555Y-140335038D01*
X98361508Y-140331917D01*
X98398705Y-140324421D01*
X98424859Y-140327792D01*
X98446946Y-140339681D01*
X98467178Y-140355635D01*
X98482079Y-140375700D01*
X98492434Y-140403702D01*
X98499029Y-140443467D01*
X98502649Y-140498823D01*
X98504078Y-140573594D01*
X98504218Y-140618740D01*
X98504218Y-140812822D01*
X98629960Y-140812822D01*
X98629960Y-140196683D01*
X98567089Y-140196683D01*
X98529356Y-140198020D01*
G36*
X98920210Y-140201555D02*
G01*
X98861055Y-140217339D01*
X98816023Y-140245948D01*
X98784246Y-140283419D01*
X98774366Y-140299411D01*
X98767073Y-140316163D01*
X98761974Y-140337592D01*
X98758679Y-140367616D01*
X98756797Y-140410154D01*
X98755937Y-140469122D01*
X98755707Y-140548440D01*
X98755703Y-140569484D01*
X98755703Y-140812822D01*
X98816059Y-140812822D01*
X98854557Y-140810126D01*
X98883023Y-140803295D01*
X98890155Y-140799083D01*
X98909652Y-140791813D01*
X98929566Y-140799083D01*
X98962353Y-140808160D01*
X99009978Y-140811813D01*
X99062764Y-140810228D01*
X99111036Y-140803589D01*
X99139218Y-140795072D01*
X99193753Y-140760063D01*
X99227835Y-140711479D01*
X99243157Y-140646882D01*
X99243299Y-140645223D01*
X99241955Y-140616566D01*
X99120356Y-140616566D01*
X99109726Y-140649161D01*
X99092410Y-140667505D01*
X99057652Y-140681379D01*
X99011773Y-140686917D01*
X98964988Y-140684191D01*
X98927514Y-140673274D01*
X98917015Y-140666269D01*
X98898668Y-140633904D01*
X98894020Y-140597111D01*
X98894020Y-140548763D01*
X98963582Y-140548763D01*
X99029667Y-140553850D01*
X99079764Y-140568263D01*
X99110929Y-140590729D01*
X99120356Y-140616566D01*
X99241955Y-140616566D01*
X99239987Y-140574647D01*
X99216710Y-140518845D01*
X99172948Y-140476647D01*
X99166899Y-140472808D01*
X99140907Y-140460309D01*
X99108735Y-140452740D01*
X99063760Y-140449061D01*
X99010331Y-140448216D01*
X98894020Y-140448169D01*
X98894020Y-140399411D01*
X98898953Y-140361581D01*
X98911543Y-140336236D01*
X98913017Y-140334887D01*
X98941034Y-140323800D01*
X98983326Y-140319503D01*
X99030064Y-140321615D01*
X99071418Y-140329756D01*
X99095957Y-140341965D01*
X99109253Y-140351746D01*
X99123294Y-140353613D01*
X99142671Y-140345600D01*
X99171976Y-140325739D01*
X99215803Y-140292063D01*
X99219825Y-140288909D01*
X99217764Y-140277236D01*
X99200568Y-140257822D01*
X99174433Y-140236248D01*
X99145552Y-140218096D01*
X99136478Y-140213809D01*
X99103380Y-140205256D01*
X99054880Y-140199155D01*
X99000695Y-140196708D01*
X98998161Y-140196703D01*
X98920210Y-140201555D01*
X98920210Y-140201555D01*
G37*
X98920210Y-140201555D02*
X98861055Y-140217339D01*
X98816023Y-140245948D01*
X98784246Y-140283419D01*
X98774366Y-140299411D01*
X98767073Y-140316163D01*
X98761974Y-140337592D01*
X98758679Y-140367616D01*
X98756797Y-140410154D01*
X98755937Y-140469122D01*
X98755707Y-140548440D01*
X98755703Y-140569484D01*
X98755703Y-140812822D01*
X98816059Y-140812822D01*
X98854557Y-140810126D01*
X98883023Y-140803295D01*
X98890155Y-140799083D01*
X98909652Y-140791813D01*
X98929566Y-140799083D01*
X98962353Y-140808160D01*
X99009978Y-140811813D01*
X99062764Y-140810228D01*
X99111036Y-140803589D01*
X99139218Y-140795072D01*
X99193753Y-140760063D01*
X99227835Y-140711479D01*
X99243157Y-140646882D01*
X99243299Y-140645223D01*
X99241955Y-140616566D01*
X99120356Y-140616566D01*
X99109726Y-140649161D01*
X99092410Y-140667505D01*
X99057652Y-140681379D01*
X99011773Y-140686917D01*
X98964988Y-140684191D01*
X98927514Y-140673274D01*
X98917015Y-140666269D01*
X98898668Y-140633904D01*
X98894020Y-140597111D01*
X98894020Y-140548763D01*
X98963582Y-140548763D01*
X99029667Y-140553850D01*
X99079764Y-140568263D01*
X99110929Y-140590729D01*
X99120356Y-140616566D01*
X99241955Y-140616566D01*
X99239987Y-140574647D01*
X99216710Y-140518845D01*
X99172948Y-140476647D01*
X99166899Y-140472808D01*
X99140907Y-140460309D01*
X99108735Y-140452740D01*
X99063760Y-140449061D01*
X99010331Y-140448216D01*
X98894020Y-140448169D01*
X98894020Y-140399411D01*
X98898953Y-140361581D01*
X98911543Y-140336236D01*
X98913017Y-140334887D01*
X98941034Y-140323800D01*
X98983326Y-140319503D01*
X99030064Y-140321615D01*
X99071418Y-140329756D01*
X99095957Y-140341965D01*
X99109253Y-140351746D01*
X99123294Y-140353613D01*
X99142671Y-140345600D01*
X99171976Y-140325739D01*
X99215803Y-140292063D01*
X99219825Y-140288909D01*
X99217764Y-140277236D01*
X99200568Y-140257822D01*
X99174433Y-140236248D01*
X99145552Y-140218096D01*
X99136478Y-140213809D01*
X99103380Y-140205256D01*
X99054880Y-140199155D01*
X99000695Y-140196708D01*
X98998161Y-140196703D01*
X98920210Y-140201555D01*
G36*
X99444759Y-139264184D02*
G01*
X99418247Y-139277282D01*
X99385553Y-139300106D01*
X99361725Y-139324996D01*
X99345406Y-139356249D01*
X99335240Y-139398166D01*
X99329872Y-139455044D01*
X99327944Y-139531184D01*
X99327831Y-139563917D01*
X99328161Y-139635656D01*
X99329527Y-139686927D01*
X99332500Y-139722404D01*
X99337649Y-139746763D01*
X99345543Y-139764680D01*
X99353757Y-139776902D01*
X99406187Y-139828905D01*
X99467930Y-139860184D01*
X99534536Y-139869592D01*
X99601558Y-139855980D01*
X99622792Y-139846354D01*
X99673624Y-139819859D01*
X99673624Y-140235052D01*
X99636525Y-140215868D01*
X99587643Y-140201025D01*
X99527561Y-140197222D01*
X99467564Y-140204243D01*
X99422256Y-140220013D01*
X99384675Y-140250047D01*
X99352564Y-140293024D01*
X99350150Y-140297436D01*
X99339967Y-140318221D01*
X99332530Y-140339170D01*
X99327411Y-140364548D01*
X99324181Y-140398618D01*
X99322413Y-140445641D01*
X99321677Y-140509882D01*
X99321544Y-140582176D01*
X99321544Y-140812822D01*
X99459861Y-140812822D01*
X99459861Y-140387533D01*
X99498549Y-140354979D01*
X99538738Y-140328940D01*
X99576797Y-140324205D01*
X99615066Y-140336389D01*
X99635462Y-140348320D01*
X99650642Y-140365313D01*
X99661438Y-140390995D01*
X99668683Y-140428991D01*
X99673208Y-140482926D01*
X99675844Y-140556425D01*
X99676772Y-140605347D01*
X99679911Y-140806535D01*
X99745926Y-140810336D01*
X99811940Y-140814136D01*
X99811940Y-139565650D01*
X99673624Y-139565650D01*
X99670097Y-139635254D01*
X99658215Y-139683569D01*
X99636020Y-139713631D01*
X99601559Y-139728471D01*
X99566742Y-139731436D01*
X99527329Y-139728028D01*
X99501171Y-139714617D01*
X99484814Y-139696896D01*
X99471937Y-139677835D01*
X99464272Y-139656601D01*
X99460861Y-139626849D01*
X99460749Y-139582236D01*
X99461897Y-139544880D01*
X99464532Y-139488604D01*
X99468456Y-139451658D01*
X99475063Y-139428223D01*
X99485749Y-139412480D01*
X99495833Y-139403380D01*
X99537970Y-139383537D01*
X99587840Y-139380332D01*
X99616476Y-139387168D01*
X99644828Y-139411464D01*
X99663609Y-139458728D01*
X99672712Y-139528624D01*
X99673624Y-139565650D01*
X99811940Y-139565650D01*
X99811940Y-139253614D01*
X99742782Y-139253614D01*
X99701260Y-139255256D01*
X99679838Y-139261087D01*
X99673626Y-139272461D01*
X99673624Y-139272798D01*
X99670742Y-139283938D01*
X99658030Y-139282673D01*
X99632757Y-139270433D01*
X99573869Y-139251707D01*
X99507615Y-139249739D01*
X99444759Y-139264184D01*
X99444759Y-139264184D01*
G37*
X99444759Y-139264184D02*
X99418247Y-139277282D01*
X99385553Y-139300106D01*
X99361725Y-139324996D01*
X99345406Y-139356249D01*
X99335240Y-139398166D01*
X99329872Y-139455044D01*
X99327944Y-139531184D01*
X99327831Y-139563917D01*
X99328161Y-139635656D01*
X99329527Y-139686927D01*
X99332500Y-139722404D01*
X99337649Y-139746763D01*
X99345543Y-139764680D01*
X99353757Y-139776902D01*
X99406187Y-139828905D01*
X99467930Y-139860184D01*
X99534536Y-139869592D01*
X99601558Y-139855980D01*
X99622792Y-139846354D01*
X99673624Y-139819859D01*
X99673624Y-140235052D01*
X99636525Y-140215868D01*
X99587643Y-140201025D01*
X99527561Y-140197222D01*
X99467564Y-140204243D01*
X99422256Y-140220013D01*
X99384675Y-140250047D01*
X99352564Y-140293024D01*
X99350150Y-140297436D01*
X99339967Y-140318221D01*
X99332530Y-140339170D01*
X99327411Y-140364548D01*
X99324181Y-140398618D01*
X99322413Y-140445641D01*
X99321677Y-140509882D01*
X99321544Y-140582176D01*
X99321544Y-140812822D01*
X99459861Y-140812822D01*
X99459861Y-140387533D01*
X99498549Y-140354979D01*
X99538738Y-140328940D01*
X99576797Y-140324205D01*
X99615066Y-140336389D01*
X99635462Y-140348320D01*
X99650642Y-140365313D01*
X99661438Y-140390995D01*
X99668683Y-140428991D01*
X99673208Y-140482926D01*
X99675844Y-140556425D01*
X99676772Y-140605347D01*
X99679911Y-140806535D01*
X99745926Y-140810336D01*
X99811940Y-140814136D01*
X99811940Y-139565650D01*
X99673624Y-139565650D01*
X99670097Y-139635254D01*
X99658215Y-139683569D01*
X99636020Y-139713631D01*
X99601559Y-139728471D01*
X99566742Y-139731436D01*
X99527329Y-139728028D01*
X99501171Y-139714617D01*
X99484814Y-139696896D01*
X99471937Y-139677835D01*
X99464272Y-139656601D01*
X99460861Y-139626849D01*
X99460749Y-139582236D01*
X99461897Y-139544880D01*
X99464532Y-139488604D01*
X99468456Y-139451658D01*
X99475063Y-139428223D01*
X99485749Y-139412480D01*
X99495833Y-139403380D01*
X99537970Y-139383537D01*
X99587840Y-139380332D01*
X99616476Y-139387168D01*
X99644828Y-139411464D01*
X99663609Y-139458728D01*
X99672712Y-139528624D01*
X99673624Y-139565650D01*
X99811940Y-139565650D01*
X99811940Y-139253614D01*
X99742782Y-139253614D01*
X99701260Y-139255256D01*
X99679838Y-139261087D01*
X99673626Y-139272461D01*
X99673624Y-139272798D01*
X99670742Y-139283938D01*
X99658030Y-139282673D01*
X99632757Y-139270433D01*
X99573869Y-139251707D01*
X99507615Y-139249739D01*
X99444759Y-139264184D01*
G36*
X104202306Y-140323533D02*
G01*
X104170927Y-140345776D01*
X104143218Y-140373485D01*
X104143218Y-140682920D01*
X104143291Y-140774799D01*
X104143634Y-140846840D01*
X104144437Y-140901780D01*
X104145888Y-140942360D01*
X104148177Y-140971317D01*
X104151493Y-140991391D01*
X104156024Y-141005321D01*
X104161960Y-141015845D01*
X104166615Y-141022100D01*
X104197346Y-141046673D01*
X104232633Y-141049341D01*
X104264884Y-141034271D01*
X104275541Y-141025374D01*
X104282665Y-141013557D01*
X104286962Y-140994526D01*
X104289138Y-140963992D01*
X104289901Y-140917662D01*
X104289974Y-140881871D01*
X104289974Y-140747045D01*
X104786685Y-140747045D01*
X104786685Y-140869700D01*
X104787198Y-140925787D01*
X104789253Y-140964333D01*
X104793621Y-140990361D01*
X104801073Y-141008897D01*
X104810082Y-141022100D01*
X104840985Y-141046604D01*
X104875933Y-141049506D01*
X104909391Y-141032089D01*
X104918525Y-141022959D01*
X104924977Y-141010855D01*
X104929232Y-140992001D01*
X104931777Y-140962620D01*
X104933100Y-140918937D01*
X104933686Y-140857175D01*
X104933754Y-140843000D01*
X104934238Y-140726631D01*
X104934488Y-140630727D01*
X104934406Y-140553177D01*
X104933898Y-140491869D01*
X104932867Y-140444690D01*
X104931216Y-140409530D01*
X104928850Y-140384276D01*
X104925672Y-140366817D01*
X104921585Y-140355041D01*
X104916495Y-140346835D01*
X104910863Y-140340645D01*
X104879001Y-140320844D01*
X104845772Y-140323533D01*
X104814394Y-140345776D01*
X104801696Y-140360126D01*
X104793603Y-140375978D01*
X104789087Y-140398554D01*
X104787123Y-140433078D01*
X104786685Y-140484776D01*
X104786685Y-140600289D01*
X104289974Y-140600289D01*
X104289974Y-140481756D01*
X104289467Y-140427148D01*
X104287431Y-140390275D01*
X104283094Y-140366307D01*
X104275682Y-140350415D01*
X104267396Y-140340645D01*
X104235535Y-140320844D01*
X104202306Y-140323533D01*
X104202306Y-140323533D01*
G37*
X104202306Y-140323533D02*
X104170927Y-140345776D01*
X104143218Y-140373485D01*
X104143218Y-140682920D01*
X104143291Y-140774799D01*
X104143634Y-140846840D01*
X104144437Y-140901780D01*
X104145888Y-140942360D01*
X104148177Y-140971317D01*
X104151493Y-140991391D01*
X104156024Y-141005321D01*
X104161960Y-141015845D01*
X104166615Y-141022100D01*
X104197346Y-141046673D01*
X104232633Y-141049341D01*
X104264884Y-141034271D01*
X104275541Y-141025374D01*
X104282665Y-141013557D01*
X104286962Y-140994526D01*
X104289138Y-140963992D01*
X104289901Y-140917662D01*
X104289974Y-140881871D01*
X104289974Y-140747045D01*
X104786685Y-140747045D01*
X104786685Y-140869700D01*
X104787198Y-140925787D01*
X104789253Y-140964333D01*
X104793621Y-140990361D01*
X104801073Y-141008897D01*
X104810082Y-141022100D01*
X104840985Y-141046604D01*
X104875933Y-141049506D01*
X104909391Y-141032089D01*
X104918525Y-141022959D01*
X104924977Y-141010855D01*
X104929232Y-140992001D01*
X104931777Y-140962620D01*
X104933100Y-140918937D01*
X104933686Y-140857175D01*
X104933754Y-140843000D01*
X104934238Y-140726631D01*
X104934488Y-140630727D01*
X104934406Y-140553177D01*
X104933898Y-140491869D01*
X104932867Y-140444690D01*
X104931216Y-140409530D01*
X104928850Y-140384276D01*
X104925672Y-140366817D01*
X104921585Y-140355041D01*
X104916495Y-140346835D01*
X104910863Y-140340645D01*
X104879001Y-140320844D01*
X104845772Y-140323533D01*
X104814394Y-140345776D01*
X104801696Y-140360126D01*
X104793603Y-140375978D01*
X104789087Y-140398554D01*
X104787123Y-140433078D01*
X104786685Y-140484776D01*
X104786685Y-140600289D01*
X104289974Y-140600289D01*
X104289974Y-140481756D01*
X104289467Y-140427148D01*
X104287431Y-140390275D01*
X104283094Y-140366307D01*
X104275682Y-140350415D01*
X104267396Y-140340645D01*
X104235535Y-140320844D01*
X104202306Y-140323533D01*
G36*
X105468064Y-140318163D02*
G01*
X105389357Y-140318542D01*
X105328266Y-140319333D01*
X105282312Y-140320670D01*
X105249015Y-140322683D01*
X105225893Y-140325506D01*
X105210467Y-140329269D01*
X105200258Y-140334105D01*
X105195316Y-140337822D01*
X105169672Y-140370358D01*
X105166570Y-140404138D01*
X105182418Y-140434826D01*
X105192781Y-140447089D01*
X105203933Y-140455450D01*
X105220094Y-140460657D01*
X105245487Y-140463457D01*
X105284331Y-140464596D01*
X105340849Y-140464821D01*
X105351949Y-140464822D01*
X105497885Y-140464822D01*
X105497885Y-140735756D01*
X105497981Y-140821154D01*
X105498418Y-140886864D01*
X105499417Y-140935774D01*
X105501201Y-140970773D01*
X105503992Y-140994749D01*
X105508012Y-141010593D01*
X105513484Y-141021191D01*
X105520463Y-141029267D01*
X105553395Y-141049112D01*
X105587775Y-141047548D01*
X105618953Y-141024906D01*
X105621243Y-141022100D01*
X105628700Y-141011492D01*
X105634382Y-140999081D01*
X105638528Y-140981850D01*
X105641379Y-140956784D01*
X105643175Y-140920867D01*
X105644157Y-140871083D01*
X105644565Y-140804417D01*
X105644640Y-140728589D01*
X105644640Y-140464822D01*
X105784002Y-140464822D01*
X105843807Y-140464418D01*
X105885211Y-140462840D01*
X105912381Y-140459547D01*
X105929483Y-140453992D01*
X105940686Y-140445631D01*
X105942046Y-140444178D01*
X105958404Y-140410939D01*
X105956957Y-140373362D01*
X105938151Y-140340645D01*
X105930879Y-140334298D01*
X105921502Y-140329266D01*
X105907520Y-140325396D01*
X105886433Y-140322537D01*
X105855740Y-140320535D01*
X105812940Y-140319239D01*
X105755534Y-140318498D01*
X105681019Y-140318158D01*
X105586896Y-140318068D01*
X105566869Y-140318067D01*
X105468064Y-140318163D01*
X105468064Y-140318163D01*
G37*
X105468064Y-140318163D02*
X105389357Y-140318542D01*
X105328266Y-140319333D01*
X105282312Y-140320670D01*
X105249015Y-140322683D01*
X105225893Y-140325506D01*
X105210467Y-140329269D01*
X105200258Y-140334105D01*
X105195316Y-140337822D01*
X105169672Y-140370358D01*
X105166570Y-140404138D01*
X105182418Y-140434826D01*
X105192781Y-140447089D01*
X105203933Y-140455450D01*
X105220094Y-140460657D01*
X105245487Y-140463457D01*
X105284331Y-140464596D01*
X105340849Y-140464821D01*
X105351949Y-140464822D01*
X105497885Y-140464822D01*
X105497885Y-140735756D01*
X105497981Y-140821154D01*
X105498418Y-140886864D01*
X105499417Y-140935774D01*
X105501201Y-140970773D01*
X105503992Y-140994749D01*
X105508012Y-141010593D01*
X105513484Y-141021191D01*
X105520463Y-141029267D01*
X105553395Y-141049112D01*
X105587775Y-141047548D01*
X105618953Y-141024906D01*
X105621243Y-141022100D01*
X105628700Y-141011492D01*
X105634382Y-140999081D01*
X105638528Y-140981850D01*
X105641379Y-140956784D01*
X105643175Y-140920867D01*
X105644157Y-140871083D01*
X105644565Y-140804417D01*
X105644640Y-140728589D01*
X105644640Y-140464822D01*
X105784002Y-140464822D01*
X105843807Y-140464418D01*
X105885211Y-140462840D01*
X105912381Y-140459547D01*
X105929483Y-140453992D01*
X105940686Y-140445631D01*
X105942046Y-140444178D01*
X105958404Y-140410939D01*
X105956957Y-140373362D01*
X105938151Y-140340645D01*
X105930879Y-140334298D01*
X105921502Y-140329266D01*
X105907520Y-140325396D01*
X105886433Y-140322537D01*
X105855740Y-140320535D01*
X105812940Y-140319239D01*
X105755534Y-140318498D01*
X105681019Y-140318158D01*
X105586896Y-140318068D01*
X105566869Y-140318067D01*
X105468064Y-140318163D01*
G36*
X106242515Y-140324877D02*
G01*
X106218802Y-140339647D01*
X106192151Y-140361227D01*
X106192151Y-140682773D01*
X106192236Y-140776830D01*
X106192600Y-140850932D01*
X106193405Y-140907704D01*
X106194816Y-140949768D01*
X106196996Y-140979748D01*
X106200108Y-141000267D01*
X106204315Y-141013949D01*
X106209781Y-141023416D01*
X106213657Y-141028082D01*
X106245095Y-141048575D01*
X106280896Y-141047739D01*
X106312256Y-141030264D01*
X106338907Y-141008684D01*
X106338907Y-140361227D01*
X106312256Y-140339647D01*
X106286535Y-140323949D01*
X106265529Y-140318067D01*
X106242515Y-140324877D01*
X106242515Y-140324877D01*
G37*
X106242515Y-140324877D02*
X106218802Y-140339647D01*
X106192151Y-140361227D01*
X106192151Y-140682773D01*
X106192236Y-140776830D01*
X106192600Y-140850932D01*
X106193405Y-140907704D01*
X106194816Y-140949768D01*
X106196996Y-140979748D01*
X106200108Y-141000267D01*
X106204315Y-141013949D01*
X106209781Y-141023416D01*
X106213657Y-141028082D01*
X106245095Y-141048575D01*
X106280896Y-141047739D01*
X106312256Y-141030264D01*
X106338907Y-141008684D01*
X106338907Y-140361227D01*
X106312256Y-140339647D01*
X106286535Y-140323949D01*
X106265529Y-140318067D01*
X106242515Y-140324877D01*
G36*
X106686464Y-140320034D02*
G01*
X106666874Y-140327035D01*
X106666119Y-140327377D01*
X106639516Y-140347678D01*
X106624859Y-140368561D01*
X106621991Y-140378352D01*
X106622133Y-140391361D01*
X106626168Y-140409895D01*
X106634983Y-140436257D01*
X106649460Y-140472752D01*
X106670484Y-140521687D01*
X106698941Y-140585365D01*
X106735714Y-140666093D01*
X106755954Y-140710216D01*
X106792504Y-140788985D01*
X106826814Y-140861423D01*
X106857577Y-140924880D01*
X106883481Y-140976708D01*
X106903219Y-141014259D01*
X106915479Y-141034884D01*
X106917905Y-141037733D01*
X106948946Y-141050302D01*
X106984008Y-141048619D01*
X107012129Y-141033332D01*
X107013275Y-141032089D01*
X107024461Y-141015154D01*
X107043225Y-140982170D01*
X107067254Y-140937380D01*
X107094232Y-140885032D01*
X107103928Y-140865742D01*
X107177115Y-140719150D01*
X107256889Y-140878393D01*
X107285362Y-140933415D01*
X107311779Y-140981132D01*
X107333981Y-141017893D01*
X107349810Y-141040044D01*
X107355175Y-141044741D01*
X107396872Y-141051102D01*
X107431280Y-141037733D01*
X107441401Y-141023446D01*
X107458915Y-140991692D01*
X107482394Y-140945597D01*
X107510409Y-140888285D01*
X107541530Y-140822880D01*
X107574330Y-140752507D01*
X107607379Y-140680291D01*
X107639248Y-140609355D01*
X107668510Y-140542825D01*
X107693734Y-140483826D01*
X107713493Y-140435481D01*
X107726357Y-140400915D01*
X107730898Y-140383253D01*
X107730852Y-140382613D01*
X107719803Y-140360388D01*
X107697719Y-140337753D01*
X107696419Y-140336768D01*
X107669276Y-140321425D01*
X107644171Y-140321574D01*
X107634761Y-140324466D01*
X107623295Y-140330718D01*
X107611119Y-140343014D01*
X107596772Y-140363908D01*
X107578793Y-140395949D01*
X107555722Y-140441688D01*
X107526099Y-140503677D01*
X107499384Y-140560898D01*
X107468649Y-140627226D01*
X107441108Y-140686874D01*
X107418191Y-140736725D01*
X107401331Y-140773664D01*
X107391956Y-140794573D01*
X107390589Y-140797845D01*
X107384440Y-140792497D01*
X107370307Y-140770109D01*
X107350072Y-140733946D01*
X107325614Y-140687277D01*
X107315881Y-140668022D01*
X107282912Y-140603004D01*
X107257486Y-140555654D01*
X107237517Y-140523219D01*
X107220919Y-140502946D01*
X107205605Y-140492082D01*
X107189489Y-140487875D01*
X107178986Y-140487400D01*
X107160459Y-140489042D01*
X107144225Y-140495831D01*
X107128094Y-140510566D01*
X107109878Y-140536044D01*
X107087390Y-140575061D01*
X107058440Y-140630414D01*
X107042467Y-140661903D01*
X107016559Y-140712087D01*
X106993962Y-140753704D01*
X106976671Y-140783242D01*
X106966679Y-140797189D01*
X106965320Y-140797770D01*
X106958868Y-140786793D01*
X106944421Y-140758290D01*
X106923426Y-140715244D01*
X106897332Y-140660638D01*
X106867583Y-140597454D01*
X106852949Y-140566071D01*
X106814879Y-140485078D01*
X106784224Y-140422756D01*
X106759392Y-140377071D01*
X106738792Y-140345989D01*
X106720831Y-140327478D01*
X106703919Y-140319504D01*
X106686464Y-140320034D01*
X106686464Y-140320034D01*
G37*
X106686464Y-140320034D02*
X106666874Y-140327035D01*
X106666119Y-140327377D01*
X106639516Y-140347678D01*
X106624859Y-140368561D01*
X106621991Y-140378352D01*
X106622133Y-140391361D01*
X106626168Y-140409895D01*
X106634983Y-140436257D01*
X106649460Y-140472752D01*
X106670484Y-140521687D01*
X106698941Y-140585365D01*
X106735714Y-140666093D01*
X106755954Y-140710216D01*
X106792504Y-140788985D01*
X106826814Y-140861423D01*
X106857577Y-140924880D01*
X106883481Y-140976708D01*
X106903219Y-141014259D01*
X106915479Y-141034884D01*
X106917905Y-141037733D01*
X106948946Y-141050302D01*
X106984008Y-141048619D01*
X107012129Y-141033332D01*
X107013275Y-141032089D01*
X107024461Y-141015154D01*
X107043225Y-140982170D01*
X107067254Y-140937380D01*
X107094232Y-140885032D01*
X107103928Y-140865742D01*
X107177115Y-140719150D01*
X107256889Y-140878393D01*
X107285362Y-140933415D01*
X107311779Y-140981132D01*
X107333981Y-141017893D01*
X107349810Y-141040044D01*
X107355175Y-141044741D01*
X107396872Y-141051102D01*
X107431280Y-141037733D01*
X107441401Y-141023446D01*
X107458915Y-140991692D01*
X107482394Y-140945597D01*
X107510409Y-140888285D01*
X107541530Y-140822880D01*
X107574330Y-140752507D01*
X107607379Y-140680291D01*
X107639248Y-140609355D01*
X107668510Y-140542825D01*
X107693734Y-140483826D01*
X107713493Y-140435481D01*
X107726357Y-140400915D01*
X107730898Y-140383253D01*
X107730852Y-140382613D01*
X107719803Y-140360388D01*
X107697719Y-140337753D01*
X107696419Y-140336768D01*
X107669276Y-140321425D01*
X107644171Y-140321574D01*
X107634761Y-140324466D01*
X107623295Y-140330718D01*
X107611119Y-140343014D01*
X107596772Y-140363908D01*
X107578793Y-140395949D01*
X107555722Y-140441688D01*
X107526099Y-140503677D01*
X107499384Y-140560898D01*
X107468649Y-140627226D01*
X107441108Y-140686874D01*
X107418191Y-140736725D01*
X107401331Y-140773664D01*
X107391956Y-140794573D01*
X107390589Y-140797845D01*
X107384440Y-140792497D01*
X107370307Y-140770109D01*
X107350072Y-140733946D01*
X107325614Y-140687277D01*
X107315881Y-140668022D01*
X107282912Y-140603004D01*
X107257486Y-140555654D01*
X107237517Y-140523219D01*
X107220919Y-140502946D01*
X107205605Y-140492082D01*
X107189489Y-140487875D01*
X107178986Y-140487400D01*
X107160459Y-140489042D01*
X107144225Y-140495831D01*
X107128094Y-140510566D01*
X107109878Y-140536044D01*
X107087390Y-140575061D01*
X107058440Y-140630414D01*
X107042467Y-140661903D01*
X107016559Y-140712087D01*
X106993962Y-140753704D01*
X106976671Y-140783242D01*
X106966679Y-140797189D01*
X106965320Y-140797770D01*
X106958868Y-140786793D01*
X106944421Y-140758290D01*
X106923426Y-140715244D01*
X106897332Y-140660638D01*
X106867583Y-140597454D01*
X106852949Y-140566071D01*
X106814879Y-140485078D01*
X106784224Y-140422756D01*
X106759392Y-140377071D01*
X106738792Y-140345989D01*
X106720831Y-140327478D01*
X106703919Y-140319504D01*
X106686464Y-140320034D01*
G36*
X109412820Y-140318275D02*
G01*
X109283841Y-140322636D01*
X109174138Y-140335861D01*
X109081903Y-140358741D01*
X109005327Y-140392070D01*
X108942602Y-140436638D01*
X108891917Y-140493236D01*
X108851466Y-140562658D01*
X108850670Y-140564351D01*
X108826528Y-140626483D01*
X108817926Y-140681509D01*
X108824898Y-140736887D01*
X108847475Y-140800073D01*
X108851757Y-140809689D01*
X108880957Y-140865966D01*
X108913773Y-140909451D01*
X108956127Y-140946417D01*
X109013939Y-140983135D01*
X109017298Y-140985052D01*
X109067625Y-141009227D01*
X109124508Y-141027282D01*
X109191602Y-141039839D01*
X109272564Y-141047522D01*
X109371047Y-141050953D01*
X109405843Y-141051251D01*
X109571535Y-141051845D01*
X109594932Y-141022100D01*
X109601872Y-141012319D01*
X109607287Y-141000897D01*
X109611364Y-140985095D01*
X109614292Y-140962175D01*
X109616262Y-140929396D01*
X109616904Y-140905089D01*
X109460285Y-140905089D01*
X109366403Y-140905089D01*
X109311465Y-140903483D01*
X109255069Y-140899255D01*
X109208784Y-140893292D01*
X109205990Y-140892790D01*
X109123781Y-140870736D01*
X109060015Y-140837600D01*
X109012677Y-140791847D01*
X108979747Y-140731939D01*
X108974021Y-140716061D01*
X108968408Y-140691333D01*
X108970838Y-140666902D01*
X108982662Y-140634400D01*
X108989789Y-140618434D01*
X109013129Y-140576006D01*
X109041249Y-140546240D01*
X109072189Y-140525511D01*
X109134163Y-140498537D01*
X109213478Y-140478998D01*
X109305876Y-140467746D01*
X109372796Y-140465270D01*
X109460285Y-140464822D01*
X109460285Y-140905089D01*
X109616904Y-140905089D01*
X109617461Y-140884021D01*
X109618079Y-140823311D01*
X109618304Y-140744526D01*
X109618329Y-140682920D01*
X109618329Y-140373485D01*
X109590620Y-140345776D01*
X109578323Y-140334544D01*
X109565026Y-140326853D01*
X109546457Y-140322040D01*
X109518343Y-140319446D01*
X109476412Y-140318410D01*
X109416392Y-140318270D01*
X109412820Y-140318275D01*
X109412820Y-140318275D01*
G37*
X109412820Y-140318275D02*
X109283841Y-140322636D01*
X109174138Y-140335861D01*
X109081903Y-140358741D01*
X109005327Y-140392070D01*
X108942602Y-140436638D01*
X108891917Y-140493236D01*
X108851466Y-140562658D01*
X108850670Y-140564351D01*
X108826528Y-140626483D01*
X108817926Y-140681509D01*
X108824898Y-140736887D01*
X108847475Y-140800073D01*
X108851757Y-140809689D01*
X108880957Y-140865966D01*
X108913773Y-140909451D01*
X108956127Y-140946417D01*
X109013939Y-140983135D01*
X109017298Y-140985052D01*
X109067625Y-141009227D01*
X109124508Y-141027282D01*
X109191602Y-141039839D01*
X109272564Y-141047522D01*
X109371047Y-141050953D01*
X109405843Y-141051251D01*
X109571535Y-141051845D01*
X109594932Y-141022100D01*
X109601872Y-141012319D01*
X109607287Y-141000897D01*
X109611364Y-140985095D01*
X109614292Y-140962175D01*
X109616262Y-140929396D01*
X109616904Y-140905089D01*
X109460285Y-140905089D01*
X109366403Y-140905089D01*
X109311465Y-140903483D01*
X109255069Y-140899255D01*
X109208784Y-140893292D01*
X109205990Y-140892790D01*
X109123781Y-140870736D01*
X109060015Y-140837600D01*
X109012677Y-140791847D01*
X108979747Y-140731939D01*
X108974021Y-140716061D01*
X108968408Y-140691333D01*
X108970838Y-140666902D01*
X108982662Y-140634400D01*
X108989789Y-140618434D01*
X109013129Y-140576006D01*
X109041249Y-140546240D01*
X109072189Y-140525511D01*
X109134163Y-140498537D01*
X109213478Y-140478998D01*
X109305876Y-140467746D01*
X109372796Y-140465270D01*
X109460285Y-140464822D01*
X109460285Y-140905089D01*
X109616904Y-140905089D01*
X109617461Y-140884021D01*
X109618079Y-140823311D01*
X109618304Y-140744526D01*
X109618329Y-140682920D01*
X109618329Y-140373485D01*
X109590620Y-140345776D01*
X109578323Y-140334544D01*
X109565026Y-140326853D01*
X109546457Y-140322040D01*
X109518343Y-140319446D01*
X109476412Y-140318410D01*
X109416392Y-140318270D01*
X109412820Y-140318275D01*
G36*
X110200786Y-140318260D02*
G01*
X110124428Y-140319174D01*
X110065912Y-140321311D01*
X110022874Y-140325175D01*
X109992946Y-140331267D01*
X109973761Y-140340090D01*
X109962953Y-140352146D01*
X109958156Y-140367939D01*
X109957002Y-140387970D01*
X109956996Y-140390335D01*
X109957998Y-140412992D01*
X109962733Y-140430503D01*
X109973796Y-140443574D01*
X109993781Y-140452913D01*
X110025283Y-140459227D01*
X110070897Y-140463222D01*
X110133216Y-140465606D01*
X110214836Y-140467086D01*
X110239852Y-140467414D01*
X110481929Y-140470467D01*
X110485315Y-140535378D01*
X110488700Y-140600289D01*
X110320553Y-140600289D01*
X110254863Y-140600531D01*
X110207957Y-140601556D01*
X110176046Y-140603811D01*
X110155338Y-140607742D01*
X110142045Y-140613798D01*
X110132374Y-140622424D01*
X110132312Y-140622493D01*
X110114773Y-140656112D01*
X110115407Y-140692448D01*
X110133815Y-140723423D01*
X110137458Y-140726607D01*
X110150388Y-140734812D01*
X110168105Y-140740521D01*
X110194559Y-140744162D01*
X110233697Y-140746167D01*
X110289467Y-140746964D01*
X110325135Y-140747045D01*
X110487574Y-140747045D01*
X110487574Y-140905089D01*
X110240968Y-140905089D01*
X110159549Y-140905231D01*
X110097719Y-140905814D01*
X110052492Y-140907068D01*
X110020881Y-140909227D01*
X109999898Y-140912523D01*
X109986556Y-140917189D01*
X109977868Y-140923457D01*
X109975679Y-140925733D01*
X109959515Y-140957280D01*
X109958332Y-140993168D01*
X109971593Y-141024285D01*
X109982086Y-141034271D01*
X109993000Y-141039769D01*
X110009912Y-141044022D01*
X110035496Y-141047180D01*
X110072428Y-141049392D01*
X110123383Y-141050806D01*
X110191035Y-141051572D01*
X110278060Y-141051838D01*
X110297735Y-141051845D01*
X110386218Y-141051787D01*
X110454902Y-141051467D01*
X110506565Y-141050667D01*
X110543984Y-141049167D01*
X110569939Y-141046749D01*
X110587207Y-141043194D01*
X110598567Y-141038282D01*
X110606797Y-141031795D01*
X110611312Y-141027138D01*
X110618108Y-141018889D01*
X110623417Y-141008669D01*
X110627423Y-140993800D01*
X110630308Y-140971602D01*
X110632255Y-140939393D01*
X110633448Y-140894496D01*
X110634068Y-140834228D01*
X110634300Y-140755911D01*
X110634329Y-140689994D01*
X110634258Y-140597628D01*
X110633921Y-140525117D01*
X110633131Y-140469737D01*
X110631703Y-140428765D01*
X110629450Y-140399478D01*
X110626186Y-140379153D01*
X110621725Y-140365066D01*
X110615881Y-140354495D01*
X110610932Y-140347811D01*
X110587535Y-140318067D01*
X110297355Y-140318067D01*
X110200786Y-140318260D01*
X110200786Y-140318260D01*
G37*
X110200786Y-140318260D02*
X110124428Y-140319174D01*
X110065912Y-140321311D01*
X110022874Y-140325175D01*
X109992946Y-140331267D01*
X109973761Y-140340090D01*
X109962953Y-140352146D01*
X109958156Y-140367939D01*
X109957002Y-140387970D01*
X109956996Y-140390335D01*
X109957998Y-140412992D01*
X109962733Y-140430503D01*
X109973796Y-140443574D01*
X109993781Y-140452913D01*
X110025283Y-140459227D01*
X110070897Y-140463222D01*
X110133216Y-140465606D01*
X110214836Y-140467086D01*
X110239852Y-140467414D01*
X110481929Y-140470467D01*
X110485315Y-140535378D01*
X110488700Y-140600289D01*
X110320553Y-140600289D01*
X110254863Y-140600531D01*
X110207957Y-140601556D01*
X110176046Y-140603811D01*
X110155338Y-140607742D01*
X110142045Y-140613798D01*
X110132374Y-140622424D01*
X110132312Y-140622493D01*
X110114773Y-140656112D01*
X110115407Y-140692448D01*
X110133815Y-140723423D01*
X110137458Y-140726607D01*
X110150388Y-140734812D01*
X110168105Y-140740521D01*
X110194559Y-140744162D01*
X110233697Y-140746167D01*
X110289467Y-140746964D01*
X110325135Y-140747045D01*
X110487574Y-140747045D01*
X110487574Y-140905089D01*
X110240968Y-140905089D01*
X110159549Y-140905231D01*
X110097719Y-140905814D01*
X110052492Y-140907068D01*
X110020881Y-140909227D01*
X109999898Y-140912523D01*
X109986556Y-140917189D01*
X109977868Y-140923457D01*
X109975679Y-140925733D01*
X109959515Y-140957280D01*
X109958332Y-140993168D01*
X109971593Y-141024285D01*
X109982086Y-141034271D01*
X109993000Y-141039769D01*
X110009912Y-141044022D01*
X110035496Y-141047180D01*
X110072428Y-141049392D01*
X110123383Y-141050806D01*
X110191035Y-141051572D01*
X110278060Y-141051838D01*
X110297735Y-141051845D01*
X110386218Y-141051787D01*
X110454902Y-141051467D01*
X110506565Y-141050667D01*
X110543984Y-141049167D01*
X110569939Y-141046749D01*
X110587207Y-141043194D01*
X110598567Y-141038282D01*
X110606797Y-141031795D01*
X110611312Y-141027138D01*
X110618108Y-141018889D01*
X110623417Y-141008669D01*
X110627423Y-140993800D01*
X110630308Y-140971602D01*
X110632255Y-140939393D01*
X110633448Y-140894496D01*
X110634068Y-140834228D01*
X110634300Y-140755911D01*
X110634329Y-140689994D01*
X110634258Y-140597628D01*
X110633921Y-140525117D01*
X110633131Y-140469737D01*
X110631703Y-140428765D01*
X110629450Y-140399478D01*
X110626186Y-140379153D01*
X110621725Y-140365066D01*
X110615881Y-140354495D01*
X110610932Y-140347811D01*
X110587535Y-140318067D01*
X110297355Y-140318067D01*
X110200786Y-140318260D01*
G36*
X111731243Y-140322448D02*
G01*
X111707677Y-140336273D01*
X111676864Y-140358881D01*
X111637207Y-140391338D01*
X111587109Y-140434708D01*
X111524972Y-140490058D01*
X111449201Y-140558451D01*
X111362463Y-140637084D01*
X111181840Y-140800878D01*
X111176196Y-140581029D01*
X111174158Y-140505351D01*
X111172192Y-140448994D01*
X111169863Y-140408706D01*
X111166735Y-140381235D01*
X111162374Y-140363329D01*
X111156345Y-140351737D01*
X111148213Y-140343208D01*
X111143901Y-140339623D01*
X111109370Y-140320670D01*
X111076512Y-140323441D01*
X111050447Y-140339633D01*
X111023796Y-140361199D01*
X111020481Y-140676151D01*
X111019564Y-140768779D01*
X111019097Y-140841544D01*
X111019242Y-140897161D01*
X111020161Y-140938342D01*
X111022016Y-140967803D01*
X111024968Y-140988255D01*
X111029179Y-141002413D01*
X111034811Y-141012991D01*
X111041056Y-141021474D01*
X111054568Y-141037207D01*
X111068012Y-141047636D01*
X111083253Y-141051639D01*
X111102155Y-141048094D01*
X111126584Y-141035879D01*
X111158402Y-141013871D01*
X111199477Y-140980949D01*
X111251671Y-140935991D01*
X111316851Y-140877875D01*
X111390685Y-140811099D01*
X111655974Y-140570458D01*
X111661618Y-140789589D01*
X111663660Y-140865128D01*
X111665631Y-140921354D01*
X111667968Y-140961524D01*
X111671110Y-140988896D01*
X111675493Y-141006728D01*
X111681553Y-141018279D01*
X111689729Y-141026807D01*
X111693913Y-141030282D01*
X111730894Y-141049372D01*
X111765837Y-141046493D01*
X111796265Y-141022100D01*
X111803226Y-141012286D01*
X111808652Y-141000826D01*
X111812732Y-140984968D01*
X111815658Y-140961963D01*
X111817621Y-140929062D01*
X111818812Y-140883516D01*
X111819421Y-140822573D01*
X111819640Y-140743486D01*
X111819663Y-140684956D01*
X111819589Y-140593407D01*
X111819242Y-140521687D01*
X111818430Y-140467045D01*
X111816962Y-140426732D01*
X111814648Y-140397998D01*
X111811296Y-140378093D01*
X111806717Y-140364268D01*
X111800718Y-140353772D01*
X111796265Y-140347811D01*
X111784979Y-140333691D01*
X111774430Y-140323029D01*
X111763022Y-140316892D01*
X111749159Y-140316343D01*
X111731243Y-140322448D01*
X111731243Y-140322448D01*
G37*
X111731243Y-140322448D02*
X111707677Y-140336273D01*
X111676864Y-140358881D01*
X111637207Y-140391338D01*
X111587109Y-140434708D01*
X111524972Y-140490058D01*
X111449201Y-140558451D01*
X111362463Y-140637084D01*
X111181840Y-140800878D01*
X111176196Y-140581029D01*
X111174158Y-140505351D01*
X111172192Y-140448994D01*
X111169863Y-140408706D01*
X111166735Y-140381235D01*
X111162374Y-140363329D01*
X111156345Y-140351737D01*
X111148213Y-140343208D01*
X111143901Y-140339623D01*
X111109370Y-140320670D01*
X111076512Y-140323441D01*
X111050447Y-140339633D01*
X111023796Y-140361199D01*
X111020481Y-140676151D01*
X111019564Y-140768779D01*
X111019097Y-140841544D01*
X111019242Y-140897161D01*
X111020161Y-140938342D01*
X111022016Y-140967803D01*
X111024968Y-140988255D01*
X111029179Y-141002413D01*
X111034811Y-141012991D01*
X111041056Y-141021474D01*
X111054568Y-141037207D01*
X111068012Y-141047636D01*
X111083253Y-141051639D01*
X111102155Y-141048094D01*
X111126584Y-141035879D01*
X111158402Y-141013871D01*
X111199477Y-140980949D01*
X111251671Y-140935991D01*
X111316851Y-140877875D01*
X111390685Y-140811099D01*
X111655974Y-140570458D01*
X111661618Y-140789589D01*
X111663660Y-140865128D01*
X111665631Y-140921354D01*
X111667968Y-140961524D01*
X111671110Y-140988896D01*
X111675493Y-141006728D01*
X111681553Y-141018279D01*
X111689729Y-141026807D01*
X111693913Y-141030282D01*
X111730894Y-141049372D01*
X111765837Y-141046493D01*
X111796265Y-141022100D01*
X111803226Y-141012286D01*
X111808652Y-141000826D01*
X111812732Y-140984968D01*
X111815658Y-140961963D01*
X111817621Y-140929062D01*
X111818812Y-140883516D01*
X111819421Y-140822573D01*
X111819640Y-140743486D01*
X111819663Y-140684956D01*
X111819589Y-140593407D01*
X111819242Y-140521687D01*
X111818430Y-140467045D01*
X111816962Y-140426732D01*
X111814648Y-140397998D01*
X111811296Y-140378093D01*
X111806717Y-140364268D01*
X111800718Y-140353772D01*
X111796265Y-140347811D01*
X111784979Y-140333691D01*
X111774430Y-140323029D01*
X111763022Y-140316892D01*
X111749159Y-140316343D01*
X111731243Y-140322448D01*
G36*
X112381210Y-140323599D02*
G01*
X112312694Y-140335095D01*
X112260072Y-140352967D01*
X112225837Y-140376499D01*
X112216508Y-140389924D01*
X112207022Y-140421148D01*
X112213406Y-140449395D01*
X112233559Y-140476182D01*
X112264874Y-140488713D01*
X112310312Y-140487696D01*
X112345455Y-140480906D01*
X112423548Y-140467971D01*
X112503355Y-140466742D01*
X112592684Y-140477241D01*
X112617358Y-140481690D01*
X112700420Y-140505108D01*
X112765402Y-140539945D01*
X112811590Y-140585604D01*
X112838274Y-140641494D01*
X112843792Y-140670388D01*
X112840180Y-140729012D01*
X112816858Y-140780879D01*
X112775953Y-140824978D01*
X112719588Y-140860299D01*
X112649889Y-140885829D01*
X112568981Y-140900559D01*
X112478989Y-140903478D01*
X112382039Y-140893575D01*
X112376565Y-140892641D01*
X112338004Y-140885459D01*
X112316623Y-140878521D01*
X112307356Y-140868227D01*
X112305135Y-140850976D01*
X112305085Y-140841841D01*
X112305085Y-140803489D01*
X112373560Y-140803489D01*
X112434029Y-140799347D01*
X112475294Y-140786147D01*
X112499304Y-140762730D01*
X112508006Y-140727936D01*
X112508112Y-140723394D01*
X112503021Y-140693654D01*
X112485562Y-140672419D01*
X112453068Y-140658366D01*
X112402872Y-140650173D01*
X112354252Y-140647161D01*
X112283585Y-140645433D01*
X112232327Y-140648070D01*
X112197368Y-140657800D01*
X112175599Y-140677353D01*
X112163909Y-140709456D01*
X112159189Y-140756838D01*
X112158329Y-140819071D01*
X112159738Y-140888535D01*
X112163977Y-140935786D01*
X112171065Y-140961012D01*
X112172440Y-140962988D01*
X112211357Y-140994508D01*
X112268415Y-141019470D01*
X112339998Y-141037340D01*
X112422487Y-141047586D01*
X112512268Y-141049673D01*
X112605721Y-141043068D01*
X112660685Y-141034956D01*
X112746895Y-141010554D01*
X112827021Y-140970662D01*
X112894106Y-140918887D01*
X112904302Y-140908539D01*
X112937431Y-140865035D01*
X112967323Y-140811118D01*
X112990486Y-140754592D01*
X113003427Y-140703259D01*
X113004987Y-140683544D01*
X112998347Y-140642419D01*
X112980697Y-140591252D01*
X112955426Y-140537394D01*
X112925918Y-140488195D01*
X112899848Y-140455334D01*
X112838894Y-140406452D01*
X112760098Y-140367545D01*
X112666286Y-140339494D01*
X112560279Y-140323179D01*
X112463129Y-140319192D01*
X112381210Y-140323599D01*
X112381210Y-140323599D01*
G37*
X112381210Y-140323599D02*
X112312694Y-140335095D01*
X112260072Y-140352967D01*
X112225837Y-140376499D01*
X112216508Y-140389924D01*
X112207022Y-140421148D01*
X112213406Y-140449395D01*
X112233559Y-140476182D01*
X112264874Y-140488713D01*
X112310312Y-140487696D01*
X112345455Y-140480906D01*
X112423548Y-140467971D01*
X112503355Y-140466742D01*
X112592684Y-140477241D01*
X112617358Y-140481690D01*
X112700420Y-140505108D01*
X112765402Y-140539945D01*
X112811590Y-140585604D01*
X112838274Y-140641494D01*
X112843792Y-140670388D01*
X112840180Y-140729012D01*
X112816858Y-140780879D01*
X112775953Y-140824978D01*
X112719588Y-140860299D01*
X112649889Y-140885829D01*
X112568981Y-140900559D01*
X112478989Y-140903478D01*
X112382039Y-140893575D01*
X112376565Y-140892641D01*
X112338004Y-140885459D01*
X112316623Y-140878521D01*
X112307356Y-140868227D01*
X112305135Y-140850976D01*
X112305085Y-140841841D01*
X112305085Y-140803489D01*
X112373560Y-140803489D01*
X112434029Y-140799347D01*
X112475294Y-140786147D01*
X112499304Y-140762730D01*
X112508006Y-140727936D01*
X112508112Y-140723394D01*
X112503021Y-140693654D01*
X112485562Y-140672419D01*
X112453068Y-140658366D01*
X112402872Y-140650173D01*
X112354252Y-140647161D01*
X112283585Y-140645433D01*
X112232327Y-140648070D01*
X112197368Y-140657800D01*
X112175599Y-140677353D01*
X112163909Y-140709456D01*
X112159189Y-140756838D01*
X112158329Y-140819071D01*
X112159738Y-140888535D01*
X112163977Y-140935786D01*
X112171065Y-140961012D01*
X112172440Y-140962988D01*
X112211357Y-140994508D01*
X112268415Y-141019470D01*
X112339998Y-141037340D01*
X112422487Y-141047586D01*
X112512268Y-141049673D01*
X112605721Y-141043068D01*
X112660685Y-141034956D01*
X112746895Y-141010554D01*
X112827021Y-140970662D01*
X112894106Y-140918887D01*
X112904302Y-140908539D01*
X112937431Y-140865035D01*
X112967323Y-140811118D01*
X112990486Y-140754592D01*
X113003427Y-140703259D01*
X113004987Y-140683544D01*
X112998347Y-140642419D01*
X112980697Y-140591252D01*
X112955426Y-140537394D01*
X112925918Y-140488195D01*
X112899848Y-140455334D01*
X112838894Y-140406452D01*
X112760098Y-140367545D01*
X112666286Y-140339494D01*
X112560279Y-140323179D01*
X112463129Y-140319192D01*
X112381210Y-140323599D01*
G36*
X113354951Y-140340645D02*
G01*
X113348371Y-140348218D01*
X113343208Y-140357987D01*
X113339293Y-140372571D01*
X113336453Y-140394585D01*
X113334516Y-140426648D01*
X113333312Y-140471375D01*
X113332668Y-140531385D01*
X113332413Y-140609294D01*
X113332374Y-140684956D01*
X113332443Y-140778802D01*
X113332767Y-140852689D01*
X113333515Y-140909232D01*
X113334861Y-140951049D01*
X113336975Y-140980757D01*
X113340029Y-141000973D01*
X113344195Y-141014314D01*
X113349645Y-141023398D01*
X113354951Y-141029267D01*
X113387955Y-141048947D01*
X113423120Y-141047181D01*
X113454584Y-141025717D01*
X113461813Y-141017337D01*
X113467463Y-141007614D01*
X113471728Y-140993861D01*
X113474802Y-140973389D01*
X113476881Y-140943512D01*
X113478159Y-140901541D01*
X113478830Y-140844789D01*
X113479088Y-140770567D01*
X113479129Y-140686537D01*
X113479129Y-140373485D01*
X113451420Y-140345776D01*
X113417266Y-140322463D01*
X113384135Y-140321623D01*
X113354951Y-140340645D01*
X113354951Y-140340645D01*
G37*
X113354951Y-140340645D02*
X113348371Y-140348218D01*
X113343208Y-140357987D01*
X113339293Y-140372571D01*
X113336453Y-140394585D01*
X113334516Y-140426648D01*
X113333312Y-140471375D01*
X113332668Y-140531385D01*
X113332413Y-140609294D01*
X113332374Y-140684956D01*
X113332443Y-140778802D01*
X113332767Y-140852689D01*
X113333515Y-140909232D01*
X113334861Y-140951049D01*
X113336975Y-140980757D01*
X113340029Y-141000973D01*
X113344195Y-141014314D01*
X113349645Y-141023398D01*
X113354951Y-141029267D01*
X113387955Y-141048947D01*
X113423120Y-141047181D01*
X113454584Y-141025717D01*
X113461813Y-141017337D01*
X113467463Y-141007614D01*
X113471728Y-140993861D01*
X113474802Y-140973389D01*
X113476881Y-140943512D01*
X113478159Y-140901541D01*
X113478830Y-140844789D01*
X113479088Y-140770567D01*
X113479129Y-140686537D01*
X113479129Y-140373485D01*
X113451420Y-140345776D01*
X113417266Y-140322463D01*
X113384135Y-140321623D01*
X113354951Y-140340645D01*
G36*
X114122832Y-140319351D02*
G01*
X114048017Y-140324581D01*
X113978435Y-140332750D01*
X113918131Y-140343550D01*
X113871149Y-140356673D01*
X113841535Y-140371813D01*
X113836989Y-140376269D01*
X113821183Y-140410850D01*
X113825976Y-140446351D01*
X113850493Y-140476725D01*
X113851663Y-140477596D01*
X113866083Y-140486954D01*
X113881137Y-140491876D01*
X113902134Y-140492473D01*
X113934386Y-140488861D01*
X113983202Y-140481154D01*
X113987129Y-140480505D01*
X114059868Y-140471569D01*
X114138346Y-140467161D01*
X114217056Y-140467119D01*
X114290490Y-140471279D01*
X114353140Y-140479479D01*
X114399499Y-140491557D01*
X114402545Y-140492771D01*
X114436177Y-140511615D01*
X114447993Y-140530685D01*
X114438743Y-140549439D01*
X114409176Y-140567337D01*
X114360040Y-140583837D01*
X114292086Y-140598396D01*
X114246774Y-140605406D01*
X114152585Y-140618889D01*
X114077673Y-140631214D01*
X114018846Y-140643449D01*
X113972914Y-140656661D01*
X113936684Y-140671917D01*
X113906967Y-140690285D01*
X113880571Y-140712831D01*
X113859359Y-140734971D01*
X113834194Y-140765819D01*
X113821810Y-140792345D01*
X113817937Y-140825026D01*
X113817796Y-140836995D01*
X113820705Y-140876712D01*
X113832331Y-140906259D01*
X113852452Y-140932486D01*
X113893345Y-140972576D01*
X113938946Y-141003149D01*
X113992642Y-141025203D01*
X114057821Y-141039735D01*
X114137873Y-141047741D01*
X114236186Y-141050218D01*
X114252418Y-141050177D01*
X114317978Y-141048818D01*
X114382995Y-141045730D01*
X114440381Y-141041356D01*
X114483051Y-141036140D01*
X114486501Y-141035541D01*
X114528925Y-141025491D01*
X114564909Y-141012796D01*
X114585279Y-141001190D01*
X114604236Y-140970572D01*
X114605556Y-140934918D01*
X114589214Y-140903144D01*
X114585558Y-140899551D01*
X114570444Y-140888876D01*
X114551544Y-140884276D01*
X114522291Y-140885059D01*
X114486780Y-140889127D01*
X114447099Y-140892762D01*
X114391474Y-140895828D01*
X114326535Y-140898053D01*
X114258914Y-140899164D01*
X114241129Y-140899237D01*
X114173257Y-140898964D01*
X114123583Y-140897646D01*
X114087739Y-140894827D01*
X114061353Y-140890050D01*
X114040055Y-140882857D01*
X114027255Y-140876867D01*
X113999129Y-140860233D01*
X113981197Y-140845168D01*
X113978576Y-140840897D01*
X113984105Y-140823263D01*
X114010389Y-140806192D01*
X114055607Y-140790458D01*
X114117937Y-140776838D01*
X114136300Y-140773804D01*
X114232219Y-140758738D01*
X114308770Y-140746146D01*
X114368909Y-140735111D01*
X114415589Y-140724720D01*
X114451766Y-140714056D01*
X114480394Y-140702205D01*
X114504427Y-140688251D01*
X114526821Y-140671281D01*
X114550531Y-140650378D01*
X114558509Y-140643049D01*
X114586482Y-140615699D01*
X114601289Y-140594029D01*
X114607081Y-140569232D01*
X114608018Y-140537983D01*
X114597704Y-140476705D01*
X114566881Y-140424640D01*
X114515724Y-140381958D01*
X114444412Y-140348825D01*
X114393529Y-140333964D01*
X114338229Y-140324366D01*
X114271982Y-140318936D01*
X114198835Y-140317367D01*
X114122832Y-140319351D01*
X114122832Y-140319351D01*
G37*
X114122832Y-140319351D02*
X114048017Y-140324581D01*
X113978435Y-140332750D01*
X113918131Y-140343550D01*
X113871149Y-140356673D01*
X113841535Y-140371813D01*
X113836989Y-140376269D01*
X113821183Y-140410850D01*
X113825976Y-140446351D01*
X113850493Y-140476725D01*
X113851663Y-140477596D01*
X113866083Y-140486954D01*
X113881137Y-140491876D01*
X113902134Y-140492473D01*
X113934386Y-140488861D01*
X113983202Y-140481154D01*
X113987129Y-140480505D01*
X114059868Y-140471569D01*
X114138346Y-140467161D01*
X114217056Y-140467119D01*
X114290490Y-140471279D01*
X114353140Y-140479479D01*
X114399499Y-140491557D01*
X114402545Y-140492771D01*
X114436177Y-140511615D01*
X114447993Y-140530685D01*
X114438743Y-140549439D01*
X114409176Y-140567337D01*
X114360040Y-140583837D01*
X114292086Y-140598396D01*
X114246774Y-140605406D01*
X114152585Y-140618889D01*
X114077673Y-140631214D01*
X114018846Y-140643449D01*
X113972914Y-140656661D01*
X113936684Y-140671917D01*
X113906967Y-140690285D01*
X113880571Y-140712831D01*
X113859359Y-140734971D01*
X113834194Y-140765819D01*
X113821810Y-140792345D01*
X113817937Y-140825026D01*
X113817796Y-140836995D01*
X113820705Y-140876712D01*
X113832331Y-140906259D01*
X113852452Y-140932486D01*
X113893345Y-140972576D01*
X113938946Y-141003149D01*
X113992642Y-141025203D01*
X114057821Y-141039735D01*
X114137873Y-141047741D01*
X114236186Y-141050218D01*
X114252418Y-141050177D01*
X114317978Y-141048818D01*
X114382995Y-141045730D01*
X114440381Y-141041356D01*
X114483051Y-141036140D01*
X114486501Y-141035541D01*
X114528925Y-141025491D01*
X114564909Y-141012796D01*
X114585279Y-141001190D01*
X114604236Y-140970572D01*
X114605556Y-140934918D01*
X114589214Y-140903144D01*
X114585558Y-140899551D01*
X114570444Y-140888876D01*
X114551544Y-140884276D01*
X114522291Y-140885059D01*
X114486780Y-140889127D01*
X114447099Y-140892762D01*
X114391474Y-140895828D01*
X114326535Y-140898053D01*
X114258914Y-140899164D01*
X114241129Y-140899237D01*
X114173257Y-140898964D01*
X114123583Y-140897646D01*
X114087739Y-140894827D01*
X114061353Y-140890050D01*
X114040055Y-140882857D01*
X114027255Y-140876867D01*
X113999129Y-140860233D01*
X113981197Y-140845168D01*
X113978576Y-140840897D01*
X113984105Y-140823263D01*
X114010389Y-140806192D01*
X114055607Y-140790458D01*
X114117937Y-140776838D01*
X114136300Y-140773804D01*
X114232219Y-140758738D01*
X114308770Y-140746146D01*
X114368909Y-140735111D01*
X114415589Y-140724720D01*
X114451766Y-140714056D01*
X114480394Y-140702205D01*
X114504427Y-140688251D01*
X114526821Y-140671281D01*
X114550531Y-140650378D01*
X114558509Y-140643049D01*
X114586482Y-140615699D01*
X114601289Y-140594029D01*
X114607081Y-140569232D01*
X114608018Y-140537983D01*
X114597704Y-140476705D01*
X114566881Y-140424640D01*
X114515724Y-140381958D01*
X114444412Y-140348825D01*
X114393529Y-140333964D01*
X114338229Y-140324366D01*
X114271982Y-140318936D01*
X114198835Y-140317367D01*
X114122832Y-140319351D01*
G36*
X115143923Y-140318146D02*
G01*
X115074515Y-140318518D01*
X115022126Y-140319385D01*
X114983976Y-140320946D01*
X114957288Y-140323403D01*
X114939282Y-140326957D01*
X114927178Y-140331810D01*
X114918198Y-140338161D01*
X114914947Y-140341084D01*
X114895172Y-140372142D01*
X114891611Y-140407828D01*
X114904620Y-140439510D01*
X114910635Y-140445913D01*
X114920364Y-140452121D01*
X114936030Y-140456910D01*
X114960537Y-140460514D01*
X114996790Y-140463164D01*
X115047694Y-140465095D01*
X115116155Y-140466539D01*
X115178746Y-140467418D01*
X115426463Y-140470467D01*
X115429848Y-140535378D01*
X115433234Y-140600289D01*
X115265087Y-140600289D01*
X115192088Y-140600919D01*
X115138646Y-140603553D01*
X115101757Y-140609309D01*
X115078417Y-140619304D01*
X115065623Y-140634656D01*
X115060371Y-140656482D01*
X115059574Y-140676738D01*
X115062052Y-140701592D01*
X115071406Y-140719906D01*
X115090512Y-140732637D01*
X115122247Y-140740741D01*
X115169488Y-140745176D01*
X115235112Y-140746899D01*
X115270930Y-140747045D01*
X115432107Y-140747045D01*
X115432107Y-140905089D01*
X115183751Y-140905089D01*
X115102342Y-140905202D01*
X115040471Y-140905712D01*
X114995097Y-140906870D01*
X114963183Y-140908930D01*
X114941688Y-140912146D01*
X114927572Y-140916772D01*
X114917797Y-140923059D01*
X114912818Y-140927667D01*
X114895739Y-140954560D01*
X114890240Y-140978467D01*
X114898092Y-141007667D01*
X114912818Y-141029267D01*
X114920675Y-141036066D01*
X114930817Y-141041346D01*
X114945973Y-141045298D01*
X114968870Y-141048113D01*
X115002238Y-141049982D01*
X115048804Y-141051098D01*
X115111296Y-141051651D01*
X115192443Y-141051833D01*
X115234551Y-141051845D01*
X115324727Y-141051765D01*
X115395053Y-141051398D01*
X115448258Y-141050552D01*
X115487069Y-141049036D01*
X115514216Y-141046659D01*
X115532427Y-141043229D01*
X115544429Y-141038554D01*
X115552951Y-141032444D01*
X115556285Y-141029267D01*
X115562884Y-141021670D01*
X115568056Y-141011870D01*
X115571975Y-140997239D01*
X115574813Y-140975152D01*
X115576744Y-140942982D01*
X115577941Y-140898103D01*
X115578577Y-140837889D01*
X115578826Y-140759713D01*
X115578863Y-140686923D01*
X115578829Y-140593707D01*
X115578594Y-140520431D01*
X115577959Y-140464458D01*
X115576723Y-140423151D01*
X115574685Y-140393872D01*
X115571646Y-140373984D01*
X115567406Y-140360850D01*
X115561764Y-140351832D01*
X115554520Y-140344293D01*
X115552735Y-140342612D01*
X115544074Y-140335172D01*
X115534011Y-140329409D01*
X115519754Y-140325112D01*
X115498512Y-140322064D01*
X115467493Y-140320051D01*
X115423906Y-140318860D01*
X115364960Y-140318275D01*
X115287863Y-140318083D01*
X115233130Y-140318067D01*
X115143923Y-140318146D01*
X115143923Y-140318146D01*
G37*
X115143923Y-140318146D02*
X115074515Y-140318518D01*
X115022126Y-140319385D01*
X114983976Y-140320946D01*
X114957288Y-140323403D01*
X114939282Y-140326957D01*
X114927178Y-140331810D01*
X114918198Y-140338161D01*
X114914947Y-140341084D01*
X114895172Y-140372142D01*
X114891611Y-140407828D01*
X114904620Y-140439510D01*
X114910635Y-140445913D01*
X114920364Y-140452121D01*
X114936030Y-140456910D01*
X114960537Y-140460514D01*
X114996790Y-140463164D01*
X115047694Y-140465095D01*
X115116155Y-140466539D01*
X115178746Y-140467418D01*
X115426463Y-140470467D01*
X115429848Y-140535378D01*
X115433234Y-140600289D01*
X115265087Y-140600289D01*
X115192088Y-140600919D01*
X115138646Y-140603553D01*
X115101757Y-140609309D01*
X115078417Y-140619304D01*
X115065623Y-140634656D01*
X115060371Y-140656482D01*
X115059574Y-140676738D01*
X115062052Y-140701592D01*
X115071406Y-140719906D01*
X115090512Y-140732637D01*
X115122247Y-140740741D01*
X115169488Y-140745176D01*
X115235112Y-140746899D01*
X115270930Y-140747045D01*
X115432107Y-140747045D01*
X115432107Y-140905089D01*
X115183751Y-140905089D01*
X115102342Y-140905202D01*
X115040471Y-140905712D01*
X114995097Y-140906870D01*
X114963183Y-140908930D01*
X114941688Y-140912146D01*
X114927572Y-140916772D01*
X114917797Y-140923059D01*
X114912818Y-140927667D01*
X114895739Y-140954560D01*
X114890240Y-140978467D01*
X114898092Y-141007667D01*
X114912818Y-141029267D01*
X114920675Y-141036066D01*
X114930817Y-141041346D01*
X114945973Y-141045298D01*
X114968870Y-141048113D01*
X115002238Y-141049982D01*
X115048804Y-141051098D01*
X115111296Y-141051651D01*
X115192443Y-141051833D01*
X115234551Y-141051845D01*
X115324727Y-141051765D01*
X115395053Y-141051398D01*
X115448258Y-141050552D01*
X115487069Y-141049036D01*
X115514216Y-141046659D01*
X115532427Y-141043229D01*
X115544429Y-141038554D01*
X115552951Y-141032444D01*
X115556285Y-141029267D01*
X115562884Y-141021670D01*
X115568056Y-141011870D01*
X115571975Y-140997239D01*
X115574813Y-140975152D01*
X115576744Y-140942982D01*
X115577941Y-140898103D01*
X115578577Y-140837889D01*
X115578826Y-140759713D01*
X115578863Y-140686923D01*
X115578829Y-140593707D01*
X115578594Y-140520431D01*
X115577959Y-140464458D01*
X115576723Y-140423151D01*
X115574685Y-140393872D01*
X115571646Y-140373984D01*
X115567406Y-140360850D01*
X115561764Y-140351832D01*
X115554520Y-140344293D01*
X115552735Y-140342612D01*
X115544074Y-140335172D01*
X115534011Y-140329409D01*
X115519754Y-140325112D01*
X115498512Y-140322064D01*
X115467493Y-140320051D01*
X115423906Y-140318860D01*
X115364960Y-140318275D01*
X115287863Y-140318083D01*
X115233130Y-140318067D01*
X115143923Y-140318146D01*
G36*
X116552500Y-140318066D02*
G01*
X116513018Y-140318467D01*
X116397329Y-140321259D01*
X116300440Y-140329550D01*
X116219048Y-140344232D01*
X116149852Y-140366193D01*
X116089549Y-140396322D01*
X116034837Y-140435510D01*
X116015296Y-140452532D01*
X115982879Y-140492363D01*
X115953649Y-140546413D01*
X115931120Y-140606323D01*
X115918808Y-140663739D01*
X115917529Y-140684956D01*
X115925546Y-140743769D01*
X115947028Y-140808013D01*
X115978128Y-140868821D01*
X116014995Y-140917330D01*
X116020983Y-140923182D01*
X116071708Y-140964321D01*
X116127254Y-140996435D01*
X116190825Y-141020365D01*
X116265623Y-141036953D01*
X116354851Y-141047041D01*
X116461711Y-141051469D01*
X116510657Y-141051845D01*
X116572891Y-141051545D01*
X116616657Y-141050292D01*
X116646060Y-141047554D01*
X116665208Y-141042801D01*
X116678206Y-141035501D01*
X116685174Y-141029267D01*
X116691755Y-141021694D01*
X116696917Y-141011924D01*
X116700832Y-140997340D01*
X116703672Y-140975326D01*
X116705609Y-140943264D01*
X116706813Y-140898536D01*
X116707457Y-140838526D01*
X116707712Y-140760617D01*
X116707751Y-140684956D01*
X116707999Y-140584041D01*
X116707946Y-140503427D01*
X116706986Y-140464822D01*
X116560996Y-140464822D01*
X116560996Y-140905089D01*
X116467863Y-140905004D01*
X116411822Y-140903396D01*
X116353128Y-140899256D01*
X116304157Y-140893464D01*
X116302667Y-140893226D01*
X116223521Y-140874090D01*
X116162131Y-140844287D01*
X116115434Y-140801878D01*
X116085764Y-140755961D01*
X116067482Y-140705026D01*
X116068900Y-140657200D01*
X116090117Y-140605933D01*
X116131618Y-140552899D01*
X116189127Y-140513600D01*
X116263879Y-140487331D01*
X116313837Y-140478035D01*
X116370545Y-140471507D01*
X116430648Y-140466782D01*
X116481768Y-140464817D01*
X116484796Y-140464808D01*
X116560996Y-140464822D01*
X116706986Y-140464822D01*
X116706389Y-140440851D01*
X116702127Y-140394055D01*
X116693959Y-140360778D01*
X116680685Y-140338759D01*
X116661103Y-140325739D01*
X116634012Y-140319457D01*
X116598211Y-140317653D01*
X116552500Y-140318066D01*
X116552500Y-140318066D01*
G37*
X116552500Y-140318066D02*
X116513018Y-140318467D01*
X116397329Y-140321259D01*
X116300440Y-140329550D01*
X116219048Y-140344232D01*
X116149852Y-140366193D01*
X116089549Y-140396322D01*
X116034837Y-140435510D01*
X116015296Y-140452532D01*
X115982879Y-140492363D01*
X115953649Y-140546413D01*
X115931120Y-140606323D01*
X115918808Y-140663739D01*
X115917529Y-140684956D01*
X115925546Y-140743769D01*
X115947028Y-140808013D01*
X115978128Y-140868821D01*
X116014995Y-140917330D01*
X116020983Y-140923182D01*
X116071708Y-140964321D01*
X116127254Y-140996435D01*
X116190825Y-141020365D01*
X116265623Y-141036953D01*
X116354851Y-141047041D01*
X116461711Y-141051469D01*
X116510657Y-141051845D01*
X116572891Y-141051545D01*
X116616657Y-141050292D01*
X116646060Y-141047554D01*
X116665208Y-141042801D01*
X116678206Y-141035501D01*
X116685174Y-141029267D01*
X116691755Y-141021694D01*
X116696917Y-141011924D01*
X116700832Y-140997340D01*
X116703672Y-140975326D01*
X116705609Y-140943264D01*
X116706813Y-140898536D01*
X116707457Y-140838526D01*
X116707712Y-140760617D01*
X116707751Y-140684956D01*
X116707999Y-140584041D01*
X116707946Y-140503427D01*
X116706986Y-140464822D01*
X116560996Y-140464822D01*
X116560996Y-140905089D01*
X116467863Y-140905004D01*
X116411822Y-140903396D01*
X116353128Y-140899256D01*
X116304157Y-140893464D01*
X116302667Y-140893226D01*
X116223521Y-140874090D01*
X116162131Y-140844287D01*
X116115434Y-140801878D01*
X116085764Y-140755961D01*
X116067482Y-140705026D01*
X116068900Y-140657200D01*
X116090117Y-140605933D01*
X116131618Y-140552899D01*
X116189127Y-140513600D01*
X116263879Y-140487331D01*
X116313837Y-140478035D01*
X116370545Y-140471507D01*
X116430648Y-140466782D01*
X116481768Y-140464817D01*
X116484796Y-140464808D01*
X116560996Y-140464822D01*
X116706986Y-140464822D01*
X116706389Y-140440851D01*
X116702127Y-140394055D01*
X116693959Y-140360778D01*
X116680685Y-140338759D01*
X116661103Y-140325739D01*
X116634012Y-140319457D01*
X116598211Y-140317653D01*
X116552500Y-140318066D01*
G36*
X112704172Y-135075571D02*
G01*
X112607897Y-135099809D01*
X112521313Y-135142641D01*
X112446502Y-135202419D01*
X112385547Y-135277494D01*
X112340528Y-135366220D01*
X112314265Y-135462530D01*
X112308415Y-135559795D01*
X112323269Y-135653654D01*
X112356969Y-135741511D01*
X112407657Y-135820770D01*
X112473474Y-135888836D01*
X112552563Y-135943112D01*
X112643063Y-135981002D01*
X112694329Y-135993426D01*
X112738827Y-136000947D01*
X112773128Y-136003919D01*
X112806089Y-136002094D01*
X112846563Y-135995225D01*
X112879660Y-135988250D01*
X112973076Y-135956741D01*
X113056748Y-135905617D01*
X113128794Y-135836429D01*
X113187329Y-135750728D01*
X113201277Y-135723489D01*
X113217715Y-135687122D01*
X113228023Y-135656582D01*
X113233589Y-135624450D01*
X113235798Y-135583307D01*
X113236077Y-135537222D01*
X113231990Y-135452865D01*
X113218575Y-135383586D01*
X113193385Y-135322961D01*
X113153975Y-135264567D01*
X113115427Y-135220302D01*
X113043535Y-135154484D01*
X112968442Y-135109053D01*
X112885691Y-135081850D01*
X112808057Y-135071576D01*
X112704172Y-135075571D01*
X112704172Y-135075571D01*
G37*
X112704172Y-135075571D02*
X112607897Y-135099809D01*
X112521313Y-135142641D01*
X112446502Y-135202419D01*
X112385547Y-135277494D01*
X112340528Y-135366220D01*
X112314265Y-135462530D01*
X112308415Y-135559795D01*
X112323269Y-135653654D01*
X112356969Y-135741511D01*
X112407657Y-135820770D01*
X112473474Y-135888836D01*
X112552563Y-135943112D01*
X112643063Y-135981002D01*
X112694329Y-135993426D01*
X112738827Y-136000947D01*
X112773128Y-136003919D01*
X112806089Y-136002094D01*
X112846563Y-135995225D01*
X112879660Y-135988250D01*
X112973076Y-135956741D01*
X113056748Y-135905617D01*
X113128794Y-135836429D01*
X113187329Y-135750728D01*
X113201277Y-135723489D01*
X113217715Y-135687122D01*
X113228023Y-135656582D01*
X113233589Y-135624450D01*
X113235798Y-135583307D01*
X113236077Y-135537222D01*
X113231990Y-135452865D01*
X113218575Y-135383586D01*
X113193385Y-135322961D01*
X113153975Y-135264567D01*
X113115427Y-135220302D01*
X113043535Y-135154484D01*
X112968442Y-135109053D01*
X112885691Y-135081850D01*
X112808057Y-135071576D01*
X112704172Y-135075571D01*
G36*
X104244622Y-137521245D02*
G01*
X104244603Y-137755662D01*
X104244577Y-137968603D01*
X104244504Y-138161168D01*
X104244347Y-138334459D01*
X104244065Y-138489576D01*
X104243620Y-138627620D01*
X104242973Y-138749692D01*
X104242084Y-138856894D01*
X104240916Y-138950326D01*
X104239428Y-139031090D01*
X104237583Y-139100286D01*
X104235340Y-139159015D01*
X104232660Y-139208379D01*
X104229506Y-139249478D01*
X104225837Y-139283413D01*
X104221616Y-139311286D01*
X104216802Y-139334198D01*
X104211356Y-139353249D01*
X104205241Y-139369540D01*
X104198417Y-139384173D01*
X104190844Y-139398249D01*
X104182484Y-139412868D01*
X104177290Y-139421974D01*
X104143025Y-139482689D01*
X105001174Y-139482689D01*
X105001174Y-139386733D01*
X105001905Y-139343370D01*
X105003857Y-139310205D01*
X105006666Y-139292424D01*
X105007908Y-139290778D01*
X105019330Y-139297662D01*
X105042045Y-139315505D01*
X105064744Y-139334879D01*
X105119329Y-139375614D01*
X105188808Y-139416617D01*
X105265859Y-139454123D01*
X105343164Y-139484364D01*
X105374016Y-139494012D01*
X105442513Y-139508578D01*
X105525365Y-139518539D01*
X105614758Y-139523583D01*
X105702881Y-139523396D01*
X105781922Y-139517666D01*
X105819618Y-139511858D01*
X105957715Y-139473797D01*
X106085016Y-139416073D01*
X106200837Y-139339211D01*
X106304492Y-139243739D01*
X106395296Y-139130179D01*
X106462098Y-139019381D01*
X106516965Y-138902625D01*
X106558966Y-138783276D01*
X106588962Y-138657283D01*
X106607818Y-138520594D01*
X106616397Y-138369158D01*
X106617123Y-138291711D01*
X106615029Y-138234934D01*
X105785912Y-138234934D01*
X105785705Y-138328002D01*
X105782792Y-138415692D01*
X105777129Y-138492772D01*
X105768674Y-138554009D01*
X105766091Y-138566350D01*
X105734289Y-138673633D01*
X105692631Y-138760658D01*
X105640766Y-138827642D01*
X105578348Y-138874805D01*
X105505029Y-138902365D01*
X105420460Y-138910541D01*
X105324294Y-138899551D01*
X105260818Y-138883829D01*
X105211675Y-138865639D01*
X105157546Y-138839791D01*
X105116885Y-138816089D01*
X105046329Y-138769721D01*
X105046329Y-137619530D01*
X105113737Y-137575962D01*
X105192262Y-137535040D01*
X105276448Y-137508389D01*
X105361572Y-137496465D01*
X105442913Y-137499722D01*
X105515749Y-137518615D01*
X105547703Y-137534184D01*
X105605628Y-137577181D01*
X105654585Y-137633953D01*
X105695739Y-137706575D01*
X105730255Y-137797121D01*
X105759296Y-137907666D01*
X105760577Y-137913533D01*
X105770748Y-137975788D01*
X105778390Y-138053594D01*
X105783459Y-138141720D01*
X105785912Y-138234934D01*
X106615029Y-138234934D01*
X106609272Y-138078895D01*
X106587327Y-137883059D01*
X106551343Y-137704332D01*
X106501370Y-137542845D01*
X106437461Y-137398726D01*
X106359667Y-137272106D01*
X106268040Y-137163115D01*
X106162632Y-137071883D01*
X106117467Y-137040932D01*
X106016518Y-136984785D01*
X105913228Y-136945174D01*
X105803140Y-136921014D01*
X105681799Y-136911219D01*
X105589293Y-136912265D01*
X105459639Y-136923231D01*
X105347045Y-136945046D01*
X105248254Y-136978714D01*
X105160008Y-137025236D01*
X105111143Y-137059448D01*
X105081776Y-137081362D01*
X105060086Y-137096333D01*
X105051876Y-137100733D01*
X105050261Y-137089904D01*
X105048970Y-137059251D01*
X105047991Y-137011526D01*
X105047312Y-136949479D01*
X105046919Y-136875862D01*
X105046799Y-136793427D01*
X105046941Y-136704925D01*
X105047332Y-136613107D01*
X105047958Y-136520724D01*
X105048809Y-136430528D01*
X105049869Y-136345271D01*
X105051128Y-136267703D01*
X105052573Y-136200576D01*
X105054191Y-136146641D01*
X105055968Y-136108650D01*
X105056460Y-136101667D01*
X105064037Y-136031251D01*
X105075598Y-135976102D01*
X105093337Y-135928981D01*
X105119447Y-135882647D01*
X105125714Y-135873067D01*
X105150146Y-135836378D01*
X104244818Y-135836378D01*
X104244622Y-137521245D01*
X104244622Y-137521245D01*
G37*
X104244622Y-137521245D02*
X104244603Y-137755662D01*
X104244577Y-137968603D01*
X104244504Y-138161168D01*
X104244347Y-138334459D01*
X104244065Y-138489576D01*
X104243620Y-138627620D01*
X104242973Y-138749692D01*
X104242084Y-138856894D01*
X104240916Y-138950326D01*
X104239428Y-139031090D01*
X104237583Y-139100286D01*
X104235340Y-139159015D01*
X104232660Y-139208379D01*
X104229506Y-139249478D01*
X104225837Y-139283413D01*
X104221616Y-139311286D01*
X104216802Y-139334198D01*
X104211356Y-139353249D01*
X104205241Y-139369540D01*
X104198417Y-139384173D01*
X104190844Y-139398249D01*
X104182484Y-139412868D01*
X104177290Y-139421974D01*
X104143025Y-139482689D01*
X105001174Y-139482689D01*
X105001174Y-139386733D01*
X105001905Y-139343370D01*
X105003857Y-139310205D01*
X105006666Y-139292424D01*
X105007908Y-139290778D01*
X105019330Y-139297662D01*
X105042045Y-139315505D01*
X105064744Y-139334879D01*
X105119329Y-139375614D01*
X105188808Y-139416617D01*
X105265859Y-139454123D01*
X105343164Y-139484364D01*
X105374016Y-139494012D01*
X105442513Y-139508578D01*
X105525365Y-139518539D01*
X105614758Y-139523583D01*
X105702881Y-139523396D01*
X105781922Y-139517666D01*
X105819618Y-139511858D01*
X105957715Y-139473797D01*
X106085016Y-139416073D01*
X106200837Y-139339211D01*
X106304492Y-139243739D01*
X106395296Y-139130179D01*
X106462098Y-139019381D01*
X106516965Y-138902625D01*
X106558966Y-138783276D01*
X106588962Y-138657283D01*
X106607818Y-138520594D01*
X106616397Y-138369158D01*
X106617123Y-138291711D01*
X106615029Y-138234934D01*
X105785912Y-138234934D01*
X105785705Y-138328002D01*
X105782792Y-138415692D01*
X105777129Y-138492772D01*
X105768674Y-138554009D01*
X105766091Y-138566350D01*
X105734289Y-138673633D01*
X105692631Y-138760658D01*
X105640766Y-138827642D01*
X105578348Y-138874805D01*
X105505029Y-138902365D01*
X105420460Y-138910541D01*
X105324294Y-138899551D01*
X105260818Y-138883829D01*
X105211675Y-138865639D01*
X105157546Y-138839791D01*
X105116885Y-138816089D01*
X105046329Y-138769721D01*
X105046329Y-137619530D01*
X105113737Y-137575962D01*
X105192262Y-137535040D01*
X105276448Y-137508389D01*
X105361572Y-137496465D01*
X105442913Y-137499722D01*
X105515749Y-137518615D01*
X105547703Y-137534184D01*
X105605628Y-137577181D01*
X105654585Y-137633953D01*
X105695739Y-137706575D01*
X105730255Y-137797121D01*
X105759296Y-137907666D01*
X105760577Y-137913533D01*
X105770748Y-137975788D01*
X105778390Y-138053594D01*
X105783459Y-138141720D01*
X105785912Y-138234934D01*
X106615029Y-138234934D01*
X106609272Y-138078895D01*
X106587327Y-137883059D01*
X106551343Y-137704332D01*
X106501370Y-137542845D01*
X106437461Y-137398726D01*
X106359667Y-137272106D01*
X106268040Y-137163115D01*
X106162632Y-137071883D01*
X106117467Y-137040932D01*
X106016518Y-136984785D01*
X105913228Y-136945174D01*
X105803140Y-136921014D01*
X105681799Y-136911219D01*
X105589293Y-136912265D01*
X105459639Y-136923231D01*
X105347045Y-136945046D01*
X105248254Y-136978714D01*
X105160008Y-137025236D01*
X105111143Y-137059448D01*
X105081776Y-137081362D01*
X105060086Y-137096333D01*
X105051876Y-137100733D01*
X105050261Y-137089904D01*
X105048970Y-137059251D01*
X105047991Y-137011526D01*
X105047312Y-136949479D01*
X105046919Y-136875862D01*
X105046799Y-136793427D01*
X105046941Y-136704925D01*
X105047332Y-136613107D01*
X105047958Y-136520724D01*
X105048809Y-136430528D01*
X105049869Y-136345271D01*
X105051128Y-136267703D01*
X105052573Y-136200576D01*
X105054191Y-136146641D01*
X105055968Y-136108650D01*
X105056460Y-136101667D01*
X105064037Y-136031251D01*
X105075598Y-135976102D01*
X105093337Y-135928981D01*
X105119447Y-135882647D01*
X105125714Y-135873067D01*
X105150146Y-135836378D01*
X104244818Y-135836378D01*
X104244622Y-137521245D01*
G36*
X107757555Y-136915552D02*
G01*
X107605637Y-136935567D01*
X107470373Y-136969202D01*
X107350890Y-137016725D01*
X107246314Y-137078405D01*
X107168705Y-137141965D01*
X107099864Y-137216099D01*
X107046123Y-137295871D01*
X107003219Y-137388091D01*
X106987745Y-137431161D01*
X106974885Y-137470142D01*
X106963683Y-137506289D01*
X106954009Y-137541434D01*
X106945733Y-137577410D01*
X106938726Y-137616050D01*
X106932857Y-137659185D01*
X106927998Y-137708649D01*
X106924019Y-137766273D01*
X106920789Y-137833891D01*
X106918180Y-137913334D01*
X106916062Y-138006436D01*
X106914305Y-138115027D01*
X106912780Y-138240942D01*
X106911357Y-138386012D01*
X106910104Y-138528778D01*
X106908778Y-138684968D01*
X106907573Y-138820239D01*
X106906363Y-138936246D01*
X106905023Y-139034645D01*
X106903429Y-139117093D01*
X106901454Y-139185246D01*
X106898973Y-139240760D01*
X106895860Y-139285292D01*
X106891991Y-139320498D01*
X106887240Y-139348034D01*
X106881481Y-139369556D01*
X106874590Y-139386722D01*
X106866440Y-139401186D01*
X106856906Y-139414606D01*
X106845863Y-139428638D01*
X106841563Y-139434071D01*
X106825743Y-139456910D01*
X106818707Y-139472463D01*
X106818685Y-139472922D01*
X106829562Y-139475121D01*
X106860547Y-139477147D01*
X106909172Y-139478942D01*
X106972966Y-139480451D01*
X107049460Y-139481616D01*
X107136185Y-139482380D01*
X107230672Y-139482686D01*
X107241579Y-139482689D01*
X107664472Y-139482689D01*
X107667734Y-139386622D01*
X107670996Y-139290556D01*
X107733085Y-139341543D01*
X107830415Y-139409057D01*
X107940316Y-139463749D01*
X108026780Y-139493978D01*
X108095851Y-139508666D01*
X108179204Y-139518659D01*
X108268970Y-139523646D01*
X108357284Y-139523313D01*
X108436278Y-139517351D01*
X108472507Y-139511638D01*
X108612526Y-139473776D01*
X108738951Y-139418932D01*
X108850869Y-139347924D01*
X108947367Y-139261568D01*
X109027529Y-139160679D01*
X109090442Y-139046076D01*
X109134817Y-138919984D01*
X109147151Y-138863401D01*
X109154761Y-138801202D01*
X109158390Y-138726363D01*
X109158884Y-138692467D01*
X109158819Y-138689282D01*
X108398881Y-138689282D01*
X108389588Y-138764333D01*
X108361401Y-138828160D01*
X108312932Y-138883798D01*
X108307875Y-138888211D01*
X108259581Y-138923037D01*
X108207872Y-138945620D01*
X108147140Y-138957540D01*
X108071777Y-138960383D01*
X108053670Y-138959978D01*
X107999851Y-138957325D01*
X107959821Y-138951909D01*
X107924805Y-138941745D01*
X107886026Y-138924850D01*
X107875384Y-138919672D01*
X107814733Y-138883844D01*
X107767914Y-138841212D01*
X107755177Y-138825973D01*
X107710507Y-138769462D01*
X107710507Y-138573586D01*
X107711043Y-138494939D01*
X107712733Y-138436988D01*
X107715701Y-138397875D01*
X107720072Y-138375741D01*
X107724157Y-138369274D01*
X107740082Y-138366111D01*
X107773865Y-138363488D01*
X107820789Y-138361655D01*
X107876136Y-138360857D01*
X107885023Y-138360842D01*
X108005799Y-138366096D01*
X108108469Y-138382263D01*
X108195023Y-138409961D01*
X108267448Y-138449808D01*
X108322378Y-138496758D01*
X108366925Y-138554645D01*
X108391649Y-138617693D01*
X108398881Y-138689282D01*
X109158819Y-138689282D01*
X109156951Y-138598712D01*
X109148607Y-138519812D01*
X109132361Y-138448590D01*
X109106724Y-138377864D01*
X109082728Y-138325493D01*
X109024109Y-138230196D01*
X108946012Y-138142170D01*
X108850814Y-138063017D01*
X108740891Y-137994340D01*
X108618619Y-137937741D01*
X108486374Y-137894821D01*
X108421707Y-137879882D01*
X108285525Y-137857777D01*
X108137080Y-137843194D01*
X107985624Y-137836813D01*
X107859065Y-137838445D01*
X107697179Y-137845224D01*
X107704599Y-137786245D01*
X107723891Y-137687092D01*
X107755025Y-137606372D01*
X107798860Y-137543466D01*
X107856258Y-137497756D01*
X107928081Y-137468622D01*
X108015188Y-137455447D01*
X108118443Y-137457611D01*
X108156418Y-137461612D01*
X108297609Y-137486780D01*
X108434422Y-137527814D01*
X108528951Y-137565815D01*
X108574111Y-137585190D01*
X108612544Y-137600760D01*
X108638895Y-137610405D01*
X108646583Y-137612452D01*
X108656327Y-137603374D01*
X108673046Y-137574405D01*
X108696897Y-137525217D01*
X108728036Y-137455484D01*
X108766622Y-137364879D01*
X108773219Y-137349089D01*
X108803276Y-137276772D01*
X108830255Y-137211425D01*
X108852993Y-137155906D01*
X108870323Y-137113072D01*
X108881081Y-137085781D01*
X108884188Y-137076942D01*
X108874189Y-137072187D01*
X108847912Y-137066910D01*
X108819640Y-137063231D01*
X108789483Y-137058474D01*
X108741696Y-137049028D01*
X108680517Y-137035820D01*
X108610183Y-137019776D01*
X108534935Y-137001820D01*
X108506374Y-136994797D01*
X108401313Y-136969209D01*
X108313649Y-136949147D01*
X108239061Y-136933969D01*
X108173226Y-136923035D01*
X108111822Y-136915704D01*
X108050527Y-136911335D01*
X107985019Y-136909287D01*
X107927001Y-136908889D01*
X107757555Y-136915552D01*
X107757555Y-136915552D01*
G37*
X107757555Y-136915552D02*
X107605637Y-136935567D01*
X107470373Y-136969202D01*
X107350890Y-137016725D01*
X107246314Y-137078405D01*
X107168705Y-137141965D01*
X107099864Y-137216099D01*
X107046123Y-137295871D01*
X107003219Y-137388091D01*
X106987745Y-137431161D01*
X106974885Y-137470142D01*
X106963683Y-137506289D01*
X106954009Y-137541434D01*
X106945733Y-137577410D01*
X106938726Y-137616050D01*
X106932857Y-137659185D01*
X106927998Y-137708649D01*
X106924019Y-137766273D01*
X106920789Y-137833891D01*
X106918180Y-137913334D01*
X106916062Y-138006436D01*
X106914305Y-138115027D01*
X106912780Y-138240942D01*
X106911357Y-138386012D01*
X106910104Y-138528778D01*
X106908778Y-138684968D01*
X106907573Y-138820239D01*
X106906363Y-138936246D01*
X106905023Y-139034645D01*
X106903429Y-139117093D01*
X106901454Y-139185246D01*
X106898973Y-139240760D01*
X106895860Y-139285292D01*
X106891991Y-139320498D01*
X106887240Y-139348034D01*
X106881481Y-139369556D01*
X106874590Y-139386722D01*
X106866440Y-139401186D01*
X106856906Y-139414606D01*
X106845863Y-139428638D01*
X106841563Y-139434071D01*
X106825743Y-139456910D01*
X106818707Y-139472463D01*
X106818685Y-139472922D01*
X106829562Y-139475121D01*
X106860547Y-139477147D01*
X106909172Y-139478942D01*
X106972966Y-139480451D01*
X107049460Y-139481616D01*
X107136185Y-139482380D01*
X107230672Y-139482686D01*
X107241579Y-139482689D01*
X107664472Y-139482689D01*
X107667734Y-139386622D01*
X107670996Y-139290556D01*
X107733085Y-139341543D01*
X107830415Y-139409057D01*
X107940316Y-139463749D01*
X108026780Y-139493978D01*
X108095851Y-139508666D01*
X108179204Y-139518659D01*
X108268970Y-139523646D01*
X108357284Y-139523313D01*
X108436278Y-139517351D01*
X108472507Y-139511638D01*
X108612526Y-139473776D01*
X108738951Y-139418932D01*
X108850869Y-139347924D01*
X108947367Y-139261568D01*
X109027529Y-139160679D01*
X109090442Y-139046076D01*
X109134817Y-138919984D01*
X109147151Y-138863401D01*
X109154761Y-138801202D01*
X109158390Y-138726363D01*
X109158884Y-138692467D01*
X109158819Y-138689282D01*
X108398881Y-138689282D01*
X108389588Y-138764333D01*
X108361401Y-138828160D01*
X108312932Y-138883798D01*
X108307875Y-138888211D01*
X108259581Y-138923037D01*
X108207872Y-138945620D01*
X108147140Y-138957540D01*
X108071777Y-138960383D01*
X108053670Y-138959978D01*
X107999851Y-138957325D01*
X107959821Y-138951909D01*
X107924805Y-138941745D01*
X107886026Y-138924850D01*
X107875384Y-138919672D01*
X107814733Y-138883844D01*
X107767914Y-138841212D01*
X107755177Y-138825973D01*
X107710507Y-138769462D01*
X107710507Y-138573586D01*
X107711043Y-138494939D01*
X107712733Y-138436988D01*
X107715701Y-138397875D01*
X107720072Y-138375741D01*
X107724157Y-138369274D01*
X107740082Y-138366111D01*
X107773865Y-138363488D01*
X107820789Y-138361655D01*
X107876136Y-138360857D01*
X107885023Y-138360842D01*
X108005799Y-138366096D01*
X108108469Y-138382263D01*
X108195023Y-138409961D01*
X108267448Y-138449808D01*
X108322378Y-138496758D01*
X108366925Y-138554645D01*
X108391649Y-138617693D01*
X108398881Y-138689282D01*
X109158819Y-138689282D01*
X109156951Y-138598712D01*
X109148607Y-138519812D01*
X109132361Y-138448590D01*
X109106724Y-138377864D01*
X109082728Y-138325493D01*
X109024109Y-138230196D01*
X108946012Y-138142170D01*
X108850814Y-138063017D01*
X108740891Y-137994340D01*
X108618619Y-137937741D01*
X108486374Y-137894821D01*
X108421707Y-137879882D01*
X108285525Y-137857777D01*
X108137080Y-137843194D01*
X107985624Y-137836813D01*
X107859065Y-137838445D01*
X107697179Y-137845224D01*
X107704599Y-137786245D01*
X107723891Y-137687092D01*
X107755025Y-137606372D01*
X107798860Y-137543466D01*
X107856258Y-137497756D01*
X107928081Y-137468622D01*
X108015188Y-137455447D01*
X108118443Y-137457611D01*
X108156418Y-137461612D01*
X108297609Y-137486780D01*
X108434422Y-137527814D01*
X108528951Y-137565815D01*
X108574111Y-137585190D01*
X108612544Y-137600760D01*
X108638895Y-137610405D01*
X108646583Y-137612452D01*
X108656327Y-137603374D01*
X108673046Y-137574405D01*
X108696897Y-137525217D01*
X108728036Y-137455484D01*
X108766622Y-137364879D01*
X108773219Y-137349089D01*
X108803276Y-137276772D01*
X108830255Y-137211425D01*
X108852993Y-137155906D01*
X108870323Y-137113072D01*
X108881081Y-137085781D01*
X108884188Y-137076942D01*
X108874189Y-137072187D01*
X108847912Y-137066910D01*
X108819640Y-137063231D01*
X108789483Y-137058474D01*
X108741696Y-137049028D01*
X108680517Y-137035820D01*
X108610183Y-137019776D01*
X108534935Y-137001820D01*
X108506374Y-136994797D01*
X108401313Y-136969209D01*
X108313649Y-136949147D01*
X108239061Y-136933969D01*
X108173226Y-136923035D01*
X108111822Y-136915704D01*
X108050527Y-136911335D01*
X107985019Y-136909287D01*
X107927001Y-136908889D01*
X107757555Y-136915552D01*
G36*
X110102700Y-135998071D02*
G01*
X109942559Y-136019245D01*
X109778619Y-136059385D01*
X109608816Y-136118889D01*
X109431086Y-136198154D01*
X109419819Y-136203699D01*
X109362124Y-136231725D01*
X109310577Y-136255802D01*
X109268938Y-136274249D01*
X109240967Y-136285386D01*
X109231396Y-136287933D01*
X109212179Y-136292941D01*
X109207568Y-136297147D01*
X109212671Y-136307580D01*
X109228711Y-136333868D01*
X109253841Y-136373257D01*
X109286215Y-136422991D01*
X109323986Y-136480315D01*
X109365307Y-136542476D01*
X109408331Y-136606718D01*
X109451212Y-136670285D01*
X109492103Y-136730425D01*
X109529158Y-136784380D01*
X109560529Y-136829397D01*
X109584370Y-136862721D01*
X109598835Y-136881597D01*
X109600820Y-136883787D01*
X109610938Y-136879138D01*
X109633279Y-136861962D01*
X109663849Y-136835440D01*
X109679593Y-136820964D01*
X109776082Y-136745682D01*
X109882793Y-136690241D01*
X109998297Y-136655141D01*
X110121167Y-136640880D01*
X110190568Y-136642051D01*
X110311706Y-136659212D01*
X110420924Y-136695094D01*
X110518547Y-136749959D01*
X110604901Y-136824070D01*
X110680314Y-136917688D01*
X110745111Y-137031076D01*
X110782528Y-137117667D01*
X110826381Y-137253366D01*
X110858701Y-137400850D01*
X110879572Y-137556314D01*
X110889078Y-137715956D01*
X110887302Y-137875973D01*
X110874326Y-138032561D01*
X110850235Y-138181918D01*
X110815111Y-138320240D01*
X110769037Y-138443724D01*
X110752756Y-138477978D01*
X110684509Y-138592064D01*
X110604050Y-138688557D01*
X110512559Y-138766670D01*
X110411218Y-138825617D01*
X110301209Y-138864612D01*
X110183714Y-138882868D01*
X110142246Y-138884211D01*
X110020688Y-138873290D01*
X109900251Y-138840474D01*
X109782463Y-138786439D01*
X109668852Y-138711865D01*
X109577444Y-138633539D01*
X109530914Y-138589008D01*
X109349646Y-138886271D01*
X109304549Y-138960433D01*
X109263310Y-139028646D01*
X109227394Y-139088459D01*
X109198263Y-139137420D01*
X109177379Y-139173079D01*
X109166205Y-139192984D01*
X109164754Y-139196079D01*
X109172983Y-139205718D01*
X109198562Y-139222999D01*
X109238256Y-139246283D01*
X109288832Y-139273934D01*
X109347055Y-139304315D01*
X109409692Y-139335790D01*
X109473508Y-139366722D01*
X109535269Y-139395473D01*
X109591741Y-139420408D01*
X109639691Y-139439889D01*
X109663143Y-139448318D01*
X109796908Y-139486133D01*
X109934802Y-139511136D01*
X110082507Y-139524140D01*
X110209296Y-139526468D01*
X110277251Y-139525373D01*
X110342852Y-139523275D01*
X110400282Y-139520434D01*
X110443726Y-139517106D01*
X110457831Y-139515422D01*
X110596845Y-139486587D01*
X110738372Y-139441468D01*
X110875854Y-139382750D01*
X111002735Y-139313120D01*
X111080240Y-139260441D01*
X111207648Y-139152239D01*
X111325951Y-139025671D01*
X111432957Y-138883866D01*
X111526477Y-138729951D01*
X111604319Y-138567053D01*
X111648173Y-138449756D01*
X111698421Y-138266128D01*
X111731920Y-138071581D01*
X111748680Y-137870325D01*
X111748713Y-137666568D01*
X111732028Y-137464521D01*
X111698636Y-137268392D01*
X111648549Y-137082391D01*
X111644732Y-137070803D01*
X111581848Y-136908750D01*
X111505101Y-136760832D01*
X111411887Y-136622865D01*
X111299602Y-136490661D01*
X111255737Y-136445399D01*
X111119595Y-136321457D01*
X110979638Y-136218915D01*
X110833718Y-136136656D01*
X110679687Y-136073564D01*
X110515397Y-136028523D01*
X110419840Y-136011033D01*
X110261106Y-135995466D01*
X110102700Y-135998071D01*
X110102700Y-135998071D01*
G37*
X110102700Y-135998071D02*
X109942559Y-136019245D01*
X109778619Y-136059385D01*
X109608816Y-136118889D01*
X109431086Y-136198154D01*
X109419819Y-136203699D01*
X109362124Y-136231725D01*
X109310577Y-136255802D01*
X109268938Y-136274249D01*
X109240967Y-136285386D01*
X109231396Y-136287933D01*
X109212179Y-136292941D01*
X109207568Y-136297147D01*
X109212671Y-136307580D01*
X109228711Y-136333868D01*
X109253841Y-136373257D01*
X109286215Y-136422991D01*
X109323986Y-136480315D01*
X109365307Y-136542476D01*
X109408331Y-136606718D01*
X109451212Y-136670285D01*
X109492103Y-136730425D01*
X109529158Y-136784380D01*
X109560529Y-136829397D01*
X109584370Y-136862721D01*
X109598835Y-136881597D01*
X109600820Y-136883787D01*
X109610938Y-136879138D01*
X109633279Y-136861962D01*
X109663849Y-136835440D01*
X109679593Y-136820964D01*
X109776082Y-136745682D01*
X109882793Y-136690241D01*
X109998297Y-136655141D01*
X110121167Y-136640880D01*
X110190568Y-136642051D01*
X110311706Y-136659212D01*
X110420924Y-136695094D01*
X110518547Y-136749959D01*
X110604901Y-136824070D01*
X110680314Y-136917688D01*
X110745111Y-137031076D01*
X110782528Y-137117667D01*
X110826381Y-137253366D01*
X110858701Y-137400850D01*
X110879572Y-137556314D01*
X110889078Y-137715956D01*
X110887302Y-137875973D01*
X110874326Y-138032561D01*
X110850235Y-138181918D01*
X110815111Y-138320240D01*
X110769037Y-138443724D01*
X110752756Y-138477978D01*
X110684509Y-138592064D01*
X110604050Y-138688557D01*
X110512559Y-138766670D01*
X110411218Y-138825617D01*
X110301209Y-138864612D01*
X110183714Y-138882868D01*
X110142246Y-138884211D01*
X110020688Y-138873290D01*
X109900251Y-138840474D01*
X109782463Y-138786439D01*
X109668852Y-138711865D01*
X109577444Y-138633539D01*
X109530914Y-138589008D01*
X109349646Y-138886271D01*
X109304549Y-138960433D01*
X109263310Y-139028646D01*
X109227394Y-139088459D01*
X109198263Y-139137420D01*
X109177379Y-139173079D01*
X109166205Y-139192984D01*
X109164754Y-139196079D01*
X109172983Y-139205718D01*
X109198562Y-139222999D01*
X109238256Y-139246283D01*
X109288832Y-139273934D01*
X109347055Y-139304315D01*
X109409692Y-139335790D01*
X109473508Y-139366722D01*
X109535269Y-139395473D01*
X109591741Y-139420408D01*
X109639691Y-139439889D01*
X109663143Y-139448318D01*
X109796908Y-139486133D01*
X109934802Y-139511136D01*
X110082507Y-139524140D01*
X110209296Y-139526468D01*
X110277251Y-139525373D01*
X110342852Y-139523275D01*
X110400282Y-139520434D01*
X110443726Y-139517106D01*
X110457831Y-139515422D01*
X110596845Y-139486587D01*
X110738372Y-139441468D01*
X110875854Y-139382750D01*
X111002735Y-139313120D01*
X111080240Y-139260441D01*
X111207648Y-139152239D01*
X111325951Y-139025671D01*
X111432957Y-138883866D01*
X111526477Y-138729951D01*
X111604319Y-138567053D01*
X111648173Y-138449756D01*
X111698421Y-138266128D01*
X111731920Y-138071581D01*
X111748680Y-137870325D01*
X111748713Y-137666568D01*
X111732028Y-137464521D01*
X111698636Y-137268392D01*
X111648549Y-137082391D01*
X111644732Y-137070803D01*
X111581848Y-136908750D01*
X111505101Y-136760832D01*
X111411887Y-136622865D01*
X111299602Y-136490661D01*
X111255737Y-136445399D01*
X111119595Y-136321457D01*
X110979638Y-136218915D01*
X110833718Y-136136656D01*
X110679687Y-136073564D01*
X110515397Y-136028523D01*
X110419840Y-136011033D01*
X110261106Y-135995466D01*
X110102700Y-135998071D01*
G36*
X113377529Y-135538054D02*
G01*
X113366664Y-135651993D01*
X113335047Y-135759616D01*
X113284144Y-135858615D01*
X113215422Y-135946684D01*
X113130348Y-136021516D01*
X113033361Y-136079384D01*
X112927093Y-136119005D01*
X112820079Y-136137573D01*
X112714429Y-136136434D01*
X112612254Y-136116930D01*
X112515663Y-136080406D01*
X112426767Y-136028205D01*
X112347675Y-135961673D01*
X112280498Y-135882152D01*
X112227346Y-135790987D01*
X112190328Y-135689523D01*
X112171556Y-135579102D01*
X112169618Y-135529206D01*
X112169618Y-135441267D01*
X112117689Y-135441267D01*
X112081382Y-135444111D01*
X112054484Y-135455911D01*
X112027378Y-135479649D01*
X111988996Y-135518031D01*
X111988996Y-137709602D01*
X111989005Y-137971739D01*
X111989037Y-138212241D01*
X111989101Y-138432048D01*
X111989205Y-138632101D01*
X111989356Y-138813344D01*
X111989563Y-138976716D01*
X111989835Y-139123160D01*
X111990179Y-139253617D01*
X111990603Y-139369029D01*
X111991116Y-139470338D01*
X111991726Y-139558484D01*
X111992441Y-139634410D01*
X111993269Y-139699057D01*
X111994218Y-139753367D01*
X111995296Y-139798280D01*
X111996512Y-139834740D01*
X111997874Y-139863687D01*
X111999390Y-139886063D01*
X112001067Y-139902809D01*
X112002915Y-139914868D01*
X112004942Y-139923180D01*
X112007154Y-139928687D01*
X112008237Y-139930537D01*
X112012400Y-139937549D01*
X112015934Y-139943996D01*
X112019764Y-139949900D01*
X112024811Y-139955286D01*
X112032000Y-139960178D01*
X112042252Y-139964598D01*
X112056493Y-139968572D01*
X112075643Y-139972121D01*
X112100628Y-139975270D01*
X112132369Y-139978042D01*
X112171791Y-139980461D01*
X112219815Y-139982551D01*
X112277366Y-139984335D01*
X112345366Y-139985837D01*
X112424739Y-139987080D01*
X112516408Y-139988089D01*
X112621295Y-139988885D01*
X112740325Y-139989494D01*
X112874419Y-139989939D01*
X113024502Y-139990243D01*
X113191496Y-139990430D01*
X113376325Y-139990524D01*
X113579912Y-139990548D01*
X113803179Y-139990525D01*
X114047051Y-139990480D01*
X114312450Y-139990437D01*
X114350833Y-139990432D01*
X114617811Y-139990389D01*
X114863131Y-139990318D01*
X115087712Y-139990213D01*
X115292474Y-139990066D01*
X115478335Y-139989869D01*
X115646217Y-139989616D01*
X115797037Y-139989300D01*
X115931716Y-139988913D01*
X116051173Y-139988447D01*
X116156328Y-139987897D01*
X116248100Y-139987253D01*
X116327408Y-139986511D01*
X116395172Y-139985661D01*
X116452311Y-139984697D01*
X116499746Y-139983611D01*
X116538395Y-139982397D01*
X116569178Y-139981047D01*
X116593014Y-139979555D01*
X116610823Y-139977911D01*
X116623524Y-139976111D01*
X116632037Y-139974145D01*
X116636395Y-139972477D01*
X116644857Y-139968906D01*
X116652626Y-139966270D01*
X116659731Y-139963634D01*
X116666202Y-139960062D01*
X116672068Y-139954621D01*
X116677358Y-139946375D01*
X116682103Y-139934390D01*
X116686331Y-139917731D01*
X116690072Y-139895463D01*
X116693356Y-139866652D01*
X116696212Y-139830363D01*
X116698669Y-139785661D01*
X116700758Y-139731611D01*
X116702507Y-139667279D01*
X116703946Y-139591730D01*
X116705105Y-139504030D01*
X116706012Y-139403243D01*
X116706698Y-139288434D01*
X116707192Y-139158670D01*
X116707524Y-139013015D01*
X116707722Y-138850535D01*
X116707816Y-138670295D01*
X116707837Y-138471360D01*
X116707814Y-138252796D01*
X116707775Y-138013668D01*
X116707751Y-137753040D01*
X116707751Y-137710889D01*
X116707765Y-137447992D01*
X116707790Y-137206732D01*
X116707800Y-136986165D01*
X116707771Y-136785352D01*
X116707677Y-136603349D01*
X116707491Y-136439216D01*
X116707188Y-136292011D01*
X116706743Y-136160792D01*
X116706163Y-136050867D01*
X116403326Y-136050867D01*
X116363536Y-136108711D01*
X116352365Y-136124479D01*
X116342295Y-136138441D01*
X116333267Y-136151784D01*
X116325226Y-136165693D01*
X116318115Y-136181356D01*
X116311876Y-136199958D01*
X116306454Y-136222686D01*
X116301791Y-136250727D01*
X116297830Y-136285267D01*
X116294514Y-136327492D01*
X116291788Y-136378589D01*
X116289593Y-136439744D01*
X116287874Y-136512144D01*
X116286573Y-136596975D01*
X116285634Y-136695422D01*
X116284999Y-136808674D01*
X116284613Y-136937916D01*
X116284417Y-137084334D01*
X116284356Y-137249116D01*
X116284372Y-137433447D01*
X116284409Y-137638513D01*
X116284418Y-137761133D01*
X116284394Y-137978082D01*
X116284360Y-138173642D01*
X116284372Y-138348999D01*
X116284487Y-138505341D01*
X116284759Y-138643857D01*
X116285247Y-138765734D01*
X116286005Y-138872160D01*
X116287091Y-138964322D01*
X116288560Y-139043409D01*
X116290469Y-139110608D01*
X116292873Y-139167107D01*
X116295830Y-139214093D01*
X116299395Y-139252755D01*
X116303624Y-139284280D01*
X116308575Y-139309855D01*
X116314302Y-139330670D01*
X116320862Y-139347911D01*
X116328312Y-139362765D01*
X116336708Y-139376422D01*
X116346105Y-139390069D01*
X116356561Y-139404893D01*
X116362652Y-139413783D01*
X116401425Y-139471400D01*
X115869861Y-139471400D01*
X115746612Y-139471365D01*
X115644116Y-139471215D01*
X115560549Y-139470878D01*
X115494085Y-139470286D01*
X115442900Y-139469367D01*
X115405170Y-139468051D01*
X115379069Y-139466269D01*
X115362773Y-139463951D01*
X115354457Y-139461026D01*
X115352297Y-139457424D01*
X115354468Y-139453075D01*
X115355664Y-139451645D01*
X115380814Y-139414573D01*
X115406712Y-139361772D01*
X115430321Y-139299770D01*
X115438590Y-139273357D01*
X115443207Y-139255416D01*
X115447108Y-139234355D01*
X115450377Y-139208089D01*
X115453095Y-139174532D01*
X115455344Y-139131599D01*
X115457206Y-139077204D01*
X115458765Y-139009262D01*
X115460101Y-138925688D01*
X115461298Y-138824395D01*
X115462437Y-138703300D01*
X115462814Y-138658600D01*
X115463831Y-138533449D01*
X115464589Y-138429082D01*
X115465032Y-138343707D01*
X115465099Y-138275533D01*
X115464734Y-138222765D01*
X115463877Y-138183614D01*
X115462470Y-138156285D01*
X115460454Y-138138986D01*
X115457772Y-138129926D01*
X115454365Y-138127312D01*
X115450173Y-138129351D01*
X115445700Y-138133667D01*
X115435345Y-138146602D01*
X115413287Y-138175676D01*
X115381086Y-138218759D01*
X115340303Y-138273718D01*
X115292499Y-138338423D01*
X115239234Y-138410742D01*
X115182069Y-138488544D01*
X115122566Y-138569698D01*
X115062284Y-138652072D01*
X115002784Y-138733536D01*
X114945627Y-138811957D01*
X114892374Y-138885204D01*
X114844586Y-138951147D01*
X114803822Y-139007654D01*
X114771645Y-139052593D01*
X114749614Y-139083834D01*
X114745046Y-139090466D01*
X114722125Y-139127369D01*
X114695317Y-139175359D01*
X114669918Y-139224897D01*
X114666697Y-139231577D01*
X114645019Y-139279772D01*
X114632433Y-139317334D01*
X114626703Y-139353160D01*
X114625585Y-139395200D01*
X114626219Y-139471400D01*
X113471780Y-139471400D01*
X113562944Y-139377669D01*
X113609741Y-139327775D01*
X113660028Y-139271295D01*
X113706073Y-139217026D01*
X113726498Y-139191673D01*
X113756936Y-139152128D01*
X113796991Y-139098916D01*
X113845490Y-139033667D01*
X113901264Y-138958011D01*
X113963140Y-138873577D01*
X114029948Y-138781994D01*
X114100516Y-138684892D01*
X114173674Y-138583901D01*
X114248250Y-138480650D01*
X114323073Y-138376768D01*
X114396972Y-138273885D01*
X114468775Y-138173631D01*
X114537313Y-138077636D01*
X114601413Y-137987527D01*
X114659904Y-137904936D01*
X114711615Y-137831492D01*
X114755376Y-137768824D01*
X114790014Y-137718561D01*
X114814359Y-137682334D01*
X114827240Y-137661771D01*
X114828998Y-137657668D01*
X114821039Y-137646342D01*
X114800244Y-137619162D01*
X114767976Y-137577829D01*
X114725599Y-137524044D01*
X114674476Y-137459506D01*
X114615970Y-137385918D01*
X114551443Y-137304978D01*
X114482260Y-137218388D01*
X114409782Y-137127848D01*
X114335375Y-137035060D01*
X114275646Y-136960702D01*
X113264640Y-136960702D01*
X113258731Y-136973659D01*
X113244401Y-136995908D01*
X113243354Y-136997391D01*
X113224567Y-137027544D01*
X113204920Y-137064375D01*
X113201021Y-137072511D01*
X113197485Y-137080940D01*
X113194359Y-137091059D01*
X113191615Y-137104260D01*
X113189221Y-137121938D01*
X113187148Y-137145484D01*
X113185364Y-137176293D01*
X113183841Y-137215757D01*
X113182548Y-137265269D01*
X113181455Y-137326223D01*
X113180532Y-137400011D01*
X113179748Y-137488028D01*
X113179074Y-137591665D01*
X113178479Y-137712316D01*
X113177934Y-137851374D01*
X113177408Y-138010232D01*
X113176874Y-138189089D01*
X113176335Y-138374207D01*
X113175901Y-138538145D01*
X113175638Y-138682303D01*
X113175613Y-138808079D01*
X113175894Y-138916871D01*
X113176548Y-139010077D01*
X113177643Y-139089097D01*
X113179247Y-139155328D01*
X113181426Y-139210170D01*
X113184248Y-139255021D01*
X113187780Y-139291278D01*
X113192090Y-139320341D01*
X113197246Y-139343609D01*
X113203314Y-139362479D01*
X113210362Y-139378351D01*
X113218458Y-139392622D01*
X113227669Y-139406691D01*
X113236169Y-139419158D01*
X113253305Y-139445452D01*
X113263451Y-139463037D01*
X113264640Y-139466257D01*
X113253733Y-139467334D01*
X113222540Y-139468335D01*
X113173352Y-139469235D01*
X113108462Y-139470010D01*
X113030159Y-139470637D01*
X112940736Y-139471091D01*
X112842485Y-139471349D01*
X112773574Y-139471400D01*
X112668581Y-139471180D01*
X112571739Y-139470548D01*
X112485236Y-139469549D01*
X112411261Y-139468227D01*
X112352003Y-139466626D01*
X112309649Y-139464791D01*
X112286389Y-139462765D01*
X112282507Y-139461493D01*
X112290205Y-139446591D01*
X112298203Y-139438560D01*
X112311375Y-139421434D01*
X112328614Y-139391183D01*
X112340536Y-139366622D01*
X112367174Y-139307711D01*
X112370249Y-138130845D01*
X112373324Y-136953978D01*
X112818982Y-136953978D01*
X112916799Y-136954142D01*
X113007193Y-136954611D01*
X113087759Y-136955347D01*
X113156091Y-136956316D01*
X113209785Y-136957480D01*
X113246434Y-136958803D01*
X113263633Y-136960249D01*
X113264640Y-136960702D01*
X114275646Y-136960702D01*
X114260399Y-136941722D01*
X114186219Y-136849537D01*
X114114198Y-136760204D01*
X114045698Y-136675424D01*
X113982084Y-136596898D01*
X113924717Y-136526326D01*
X113874962Y-136465409D01*
X113834181Y-136415847D01*
X113817017Y-136395178D01*
X113730725Y-136294516D01*
X113654126Y-136211259D01*
X113585312Y-136143438D01*
X113522377Y-136089089D01*
X113512996Y-136081722D01*
X113473485Y-136051117D01*
X114605245Y-136050867D01*
X114599956Y-136098844D01*
X114603259Y-136156188D01*
X114624790Y-136224463D01*
X114664764Y-136304212D01*
X114710072Y-136376495D01*
X114726290Y-136399140D01*
X114754343Y-136436696D01*
X114792559Y-136487021D01*
X114839266Y-136547973D01*
X114892790Y-136617411D01*
X114951460Y-136693194D01*
X115013604Y-136773180D01*
X115077550Y-136855228D01*
X115141624Y-136937196D01*
X115204156Y-137016943D01*
X115263472Y-137092327D01*
X115317900Y-137161207D01*
X115365768Y-137221442D01*
X115405404Y-137270889D01*
X115435135Y-137307408D01*
X115453290Y-137328858D01*
X115456349Y-137332156D01*
X115459208Y-137324149D01*
X115461422Y-137293855D01*
X115462986Y-137241556D01*
X115463896Y-137167531D01*
X115464149Y-137072063D01*
X115463742Y-136955434D01*
X115462833Y-136835445D01*
X115461511Y-136703333D01*
X115459986Y-136591594D01*
X115458010Y-136498025D01*
X115455335Y-136420419D01*
X115451711Y-136356574D01*
X115446890Y-136304283D01*
X115440623Y-136261344D01*
X115432661Y-136225551D01*
X115422756Y-136194700D01*
X115410660Y-136166586D01*
X115396122Y-136139005D01*
X115381440Y-136113966D01*
X115343443Y-136050867D01*
X116403326Y-136050867D01*
X116706163Y-136050867D01*
X116706130Y-136044617D01*
X116705324Y-135942544D01*
X116704299Y-135853633D01*
X116703029Y-135776941D01*
X116701489Y-135711527D01*
X116699653Y-135656449D01*
X116697496Y-135610765D01*
X116694992Y-135573534D01*
X116692116Y-135543813D01*
X116688842Y-135520662D01*
X116685144Y-135503139D01*
X116680998Y-135490301D01*
X116676376Y-135481208D01*
X116671255Y-135474918D01*
X116665607Y-135470488D01*
X116659408Y-135466978D01*
X116652633Y-135463445D01*
X116646637Y-135459876D01*
X116641404Y-135457300D01*
X116633228Y-135454972D01*
X116621015Y-135452878D01*
X116603670Y-135451007D01*
X116580098Y-135449347D01*
X116549206Y-135447884D01*
X116509897Y-135446608D01*
X116461079Y-135445504D01*
X116401656Y-135444561D01*
X116330533Y-135443767D01*
X116246617Y-135443109D01*
X116148812Y-135442575D01*
X116036023Y-135442153D01*
X115907158Y-135441829D01*
X115761120Y-135441592D01*
X115596815Y-135441430D01*
X115413149Y-135441330D01*
X115209026Y-135441280D01*
X114997882Y-135441267D01*
X113377529Y-135441267D01*
X113377529Y-135538054D01*
X113377529Y-135538054D01*
G37*
X113377529Y-135538054D02*
X113366664Y-135651993D01*
X113335047Y-135759616D01*
X113284144Y-135858615D01*
X113215422Y-135946684D01*
X113130348Y-136021516D01*
X113033361Y-136079384D01*
X112927093Y-136119005D01*
X112820079Y-136137573D01*
X112714429Y-136136434D01*
X112612254Y-136116930D01*
X112515663Y-136080406D01*
X112426767Y-136028205D01*
X112347675Y-135961673D01*
X112280498Y-135882152D01*
X112227346Y-135790987D01*
X112190328Y-135689523D01*
X112171556Y-135579102D01*
X112169618Y-135529206D01*
X112169618Y-135441267D01*
X112117689Y-135441267D01*
X112081382Y-135444111D01*
X112054484Y-135455911D01*
X112027378Y-135479649D01*
X111988996Y-135518031D01*
X111988996Y-137709602D01*
X111989005Y-137971739D01*
X111989037Y-138212241D01*
X111989101Y-138432048D01*
X111989205Y-138632101D01*
X111989356Y-138813344D01*
X111989563Y-138976716D01*
X111989835Y-139123160D01*
X111990179Y-139253617D01*
X111990603Y-139369029D01*
X111991116Y-139470338D01*
X111991726Y-139558484D01*
X111992441Y-139634410D01*
X111993269Y-139699057D01*
X111994218Y-139753367D01*
X111995296Y-139798280D01*
X111996512Y-139834740D01*
X111997874Y-139863687D01*
X111999390Y-139886063D01*
X112001067Y-139902809D01*
X112002915Y-139914868D01*
X112004942Y-139923180D01*
X112007154Y-139928687D01*
X112008237Y-139930537D01*
X112012400Y-139937549D01*
X112015934Y-139943996D01*
X112019764Y-139949900D01*
X112024811Y-139955286D01*
X112032000Y-139960178D01*
X112042252Y-139964598D01*
X112056493Y-139968572D01*
X112075643Y-139972121D01*
X112100628Y-139975270D01*
X112132369Y-139978042D01*
X112171791Y-139980461D01*
X112219815Y-139982551D01*
X112277366Y-139984335D01*
X112345366Y-139985837D01*
X112424739Y-139987080D01*
X112516408Y-139988089D01*
X112621295Y-139988885D01*
X112740325Y-139989494D01*
X112874419Y-139989939D01*
X113024502Y-139990243D01*
X113191496Y-139990430D01*
X113376325Y-139990524D01*
X113579912Y-139990548D01*
X113803179Y-139990525D01*
X114047051Y-139990480D01*
X114312450Y-139990437D01*
X114350833Y-139990432D01*
X114617811Y-139990389D01*
X114863131Y-139990318D01*
X115087712Y-139990213D01*
X115292474Y-139990066D01*
X115478335Y-139989869D01*
X115646217Y-139989616D01*
X115797037Y-139989300D01*
X115931716Y-139988913D01*
X116051173Y-139988447D01*
X116156328Y-139987897D01*
X116248100Y-139987253D01*
X116327408Y-139986511D01*
X116395172Y-139985661D01*
X116452311Y-139984697D01*
X116499746Y-139983611D01*
X116538395Y-139982397D01*
X116569178Y-139981047D01*
X116593014Y-139979555D01*
X116610823Y-139977911D01*
X116623524Y-139976111D01*
X116632037Y-139974145D01*
X116636395Y-139972477D01*
X116644857Y-139968906D01*
X116652626Y-139966270D01*
X116659731Y-139963634D01*
X116666202Y-139960062D01*
X116672068Y-139954621D01*
X116677358Y-139946375D01*
X116682103Y-139934390D01*
X116686331Y-139917731D01*
X116690072Y-139895463D01*
X116693356Y-139866652D01*
X116696212Y-139830363D01*
X116698669Y-139785661D01*
X116700758Y-139731611D01*
X116702507Y-139667279D01*
X116703946Y-139591730D01*
X116705105Y-139504030D01*
X116706012Y-139403243D01*
X116706698Y-139288434D01*
X116707192Y-139158670D01*
X116707524Y-139013015D01*
X116707722Y-138850535D01*
X116707816Y-138670295D01*
X116707837Y-138471360D01*
X116707814Y-138252796D01*
X116707775Y-138013668D01*
X116707751Y-137753040D01*
X116707751Y-137710889D01*
X116707765Y-137447992D01*
X116707790Y-137206732D01*
X116707800Y-136986165D01*
X116707771Y-136785352D01*
X116707677Y-136603349D01*
X116707491Y-136439216D01*
X116707188Y-136292011D01*
X116706743Y-136160792D01*
X116706163Y-136050867D01*
X116403326Y-136050867D01*
X116363536Y-136108711D01*
X116352365Y-136124479D01*
X116342295Y-136138441D01*
X116333267Y-136151784D01*
X116325226Y-136165693D01*
X116318115Y-136181356D01*
X116311876Y-136199958D01*
X116306454Y-136222686D01*
X116301791Y-136250727D01*
X116297830Y-136285267D01*
X116294514Y-136327492D01*
X116291788Y-136378589D01*
X116289593Y-136439744D01*
X116287874Y-136512144D01*
X116286573Y-136596975D01*
X116285634Y-136695422D01*
X116284999Y-136808674D01*
X116284613Y-136937916D01*
X116284417Y-137084334D01*
X116284356Y-137249116D01*
X116284372Y-137433447D01*
X116284409Y-137638513D01*
X116284418Y-137761133D01*
X116284394Y-137978082D01*
X116284360Y-138173642D01*
X116284372Y-138348999D01*
X116284487Y-138505341D01*
X116284759Y-138643857D01*
X116285247Y-138765734D01*
X116286005Y-138872160D01*
X116287091Y-138964322D01*
X116288560Y-139043409D01*
X116290469Y-139110608D01*
X116292873Y-139167107D01*
X116295830Y-139214093D01*
X116299395Y-139252755D01*
X116303624Y-139284280D01*
X116308575Y-139309855D01*
X116314302Y-139330670D01*
X116320862Y-139347911D01*
X116328312Y-139362765D01*
X116336708Y-139376422D01*
X116346105Y-139390069D01*
X116356561Y-139404893D01*
X116362652Y-139413783D01*
X116401425Y-139471400D01*
X115869861Y-139471400D01*
X115746612Y-139471365D01*
X115644116Y-139471215D01*
X115560549Y-139470878D01*
X115494085Y-139470286D01*
X115442900Y-139469367D01*
X115405170Y-139468051D01*
X115379069Y-139466269D01*
X115362773Y-139463951D01*
X115354457Y-139461026D01*
X115352297Y-139457424D01*
X115354468Y-139453075D01*
X115355664Y-139451645D01*
X115380814Y-139414573D01*
X115406712Y-139361772D01*
X115430321Y-139299770D01*
X115438590Y-139273357D01*
X115443207Y-139255416D01*
X115447108Y-139234355D01*
X115450377Y-139208089D01*
X115453095Y-139174532D01*
X115455344Y-139131599D01*
X115457206Y-139077204D01*
X115458765Y-139009262D01*
X115460101Y-138925688D01*
X115461298Y-138824395D01*
X115462437Y-138703300D01*
X115462814Y-138658600D01*
X115463831Y-138533449D01*
X115464589Y-138429082D01*
X115465032Y-138343707D01*
X115465099Y-138275533D01*
X115464734Y-138222765D01*
X115463877Y-138183614D01*
X115462470Y-138156285D01*
X115460454Y-138138986D01*
X115457772Y-138129926D01*
X115454365Y-138127312D01*
X115450173Y-138129351D01*
X115445700Y-138133667D01*
X115435345Y-138146602D01*
X115413287Y-138175676D01*
X115381086Y-138218759D01*
X115340303Y-138273718D01*
X115292499Y-138338423D01*
X115239234Y-138410742D01*
X115182069Y-138488544D01*
X115122566Y-138569698D01*
X115062284Y-138652072D01*
X115002784Y-138733536D01*
X114945627Y-138811957D01*
X114892374Y-138885204D01*
X114844586Y-138951147D01*
X114803822Y-139007654D01*
X114771645Y-139052593D01*
X114749614Y-139083834D01*
X114745046Y-139090466D01*
X114722125Y-139127369D01*
X114695317Y-139175359D01*
X114669918Y-139224897D01*
X114666697Y-139231577D01*
X114645019Y-139279772D01*
X114632433Y-139317334D01*
X114626703Y-139353160D01*
X114625585Y-139395200D01*
X114626219Y-139471400D01*
X113471780Y-139471400D01*
X113562944Y-139377669D01*
X113609741Y-139327775D01*
X113660028Y-139271295D01*
X113706073Y-139217026D01*
X113726498Y-139191673D01*
X113756936Y-139152128D01*
X113796991Y-139098916D01*
X113845490Y-139033667D01*
X113901264Y-138958011D01*
X113963140Y-138873577D01*
X114029948Y-138781994D01*
X114100516Y-138684892D01*
X114173674Y-138583901D01*
X114248250Y-138480650D01*
X114323073Y-138376768D01*
X114396972Y-138273885D01*
X114468775Y-138173631D01*
X114537313Y-138077636D01*
X114601413Y-137987527D01*
X114659904Y-137904936D01*
X114711615Y-137831492D01*
X114755376Y-137768824D01*
X114790014Y-137718561D01*
X114814359Y-137682334D01*
X114827240Y-137661771D01*
X114828998Y-137657668D01*
X114821039Y-137646342D01*
X114800244Y-137619162D01*
X114767976Y-137577829D01*
X114725599Y-137524044D01*
X114674476Y-137459506D01*
X114615970Y-137385918D01*
X114551443Y-137304978D01*
X114482260Y-137218388D01*
X114409782Y-137127848D01*
X114335375Y-137035060D01*
X114275646Y-136960702D01*
X113264640Y-136960702D01*
X113258731Y-136973659D01*
X113244401Y-136995908D01*
X113243354Y-136997391D01*
X113224567Y-137027544D01*
X113204920Y-137064375D01*
X113201021Y-137072511D01*
X113197485Y-137080940D01*
X113194359Y-137091059D01*
X113191615Y-137104260D01*
X113189221Y-137121938D01*
X113187148Y-137145484D01*
X113185364Y-137176293D01*
X113183841Y-137215757D01*
X113182548Y-137265269D01*
X113181455Y-137326223D01*
X113180532Y-137400011D01*
X113179748Y-137488028D01*
X113179074Y-137591665D01*
X113178479Y-137712316D01*
X113177934Y-137851374D01*
X113177408Y-138010232D01*
X113176874Y-138189089D01*
X113176335Y-138374207D01*
X113175901Y-138538145D01*
X113175638Y-138682303D01*
X113175613Y-138808079D01*
X113175894Y-138916871D01*
X113176548Y-139010077D01*
X113177643Y-139089097D01*
X113179247Y-139155328D01*
X113181426Y-139210170D01*
X113184248Y-139255021D01*
X113187780Y-139291278D01*
X113192090Y-139320341D01*
X113197246Y-139343609D01*
X113203314Y-139362479D01*
X113210362Y-139378351D01*
X113218458Y-139392622D01*
X113227669Y-139406691D01*
X113236169Y-139419158D01*
X113253305Y-139445452D01*
X113263451Y-139463037D01*
X113264640Y-139466257D01*
X113253733Y-139467334D01*
X113222540Y-139468335D01*
X113173352Y-139469235D01*
X113108462Y-139470010D01*
X113030159Y-139470637D01*
X112940736Y-139471091D01*
X112842485Y-139471349D01*
X112773574Y-139471400D01*
X112668581Y-139471180D01*
X112571739Y-139470548D01*
X112485236Y-139469549D01*
X112411261Y-139468227D01*
X112352003Y-139466626D01*
X112309649Y-139464791D01*
X112286389Y-139462765D01*
X112282507Y-139461493D01*
X112290205Y-139446591D01*
X112298203Y-139438560D01*
X112311375Y-139421434D01*
X112328614Y-139391183D01*
X112340536Y-139366622D01*
X112367174Y-139307711D01*
X112370249Y-138130845D01*
X112373324Y-136953978D01*
X112818982Y-136953978D01*
X112916799Y-136954142D01*
X113007193Y-136954611D01*
X113087759Y-136955347D01*
X113156091Y-136956316D01*
X113209785Y-136957480D01*
X113246434Y-136958803D01*
X113263633Y-136960249D01*
X113264640Y-136960702D01*
X114275646Y-136960702D01*
X114260399Y-136941722D01*
X114186219Y-136849537D01*
X114114198Y-136760204D01*
X114045698Y-136675424D01*
X113982084Y-136596898D01*
X113924717Y-136526326D01*
X113874962Y-136465409D01*
X113834181Y-136415847D01*
X113817017Y-136395178D01*
X113730725Y-136294516D01*
X113654126Y-136211259D01*
X113585312Y-136143438D01*
X113522377Y-136089089D01*
X113512996Y-136081722D01*
X113473485Y-136051117D01*
X114605245Y-136050867D01*
X114599956Y-136098844D01*
X114603259Y-136156188D01*
X114624790Y-136224463D01*
X114664764Y-136304212D01*
X114710072Y-136376495D01*
X114726290Y-136399140D01*
X114754343Y-136436696D01*
X114792559Y-136487021D01*
X114839266Y-136547973D01*
X114892790Y-136617411D01*
X114951460Y-136693194D01*
X115013604Y-136773180D01*
X115077550Y-136855228D01*
X115141624Y-136937196D01*
X115204156Y-137016943D01*
X115263472Y-137092327D01*
X115317900Y-137161207D01*
X115365768Y-137221442D01*
X115405404Y-137270889D01*
X115435135Y-137307408D01*
X115453290Y-137328858D01*
X115456349Y-137332156D01*
X115459208Y-137324149D01*
X115461422Y-137293855D01*
X115462986Y-137241556D01*
X115463896Y-137167531D01*
X115464149Y-137072063D01*
X115463742Y-136955434D01*
X115462833Y-136835445D01*
X115461511Y-136703333D01*
X115459986Y-136591594D01*
X115458010Y-136498025D01*
X115455335Y-136420419D01*
X115451711Y-136356574D01*
X115446890Y-136304283D01*
X115440623Y-136261344D01*
X115432661Y-136225551D01*
X115422756Y-136194700D01*
X115410660Y-136166586D01*
X115396122Y-136139005D01*
X115381440Y-136113966D01*
X115343443Y-136050867D01*
X116403326Y-136050867D01*
X116706163Y-136050867D01*
X116706130Y-136044617D01*
X116705324Y-135942544D01*
X116704299Y-135853633D01*
X116703029Y-135776941D01*
X116701489Y-135711527D01*
X116699653Y-135656449D01*
X116697496Y-135610765D01*
X116694992Y-135573534D01*
X116692116Y-135543813D01*
X116688842Y-135520662D01*
X116685144Y-135503139D01*
X116680998Y-135490301D01*
X116676376Y-135481208D01*
X116671255Y-135474918D01*
X116665607Y-135470488D01*
X116659408Y-135466978D01*
X116652633Y-135463445D01*
X116646637Y-135459876D01*
X116641404Y-135457300D01*
X116633228Y-135454972D01*
X116621015Y-135452878D01*
X116603670Y-135451007D01*
X116580098Y-135449347D01*
X116549206Y-135447884D01*
X116509897Y-135446608D01*
X116461079Y-135445504D01*
X116401656Y-135444561D01*
X116330533Y-135443767D01*
X116246617Y-135443109D01*
X116148812Y-135442575D01*
X116036023Y-135442153D01*
X115907158Y-135441829D01*
X115761120Y-135441592D01*
X115596815Y-135441430D01*
X115413149Y-135441330D01*
X115209026Y-135441280D01*
X114997882Y-135441267D01*
X113377529Y-135441267D01*
X113377529Y-135538054D01*
M02*
