G04 #@! TF.GenerationSoftware,KiCad,Pcbnew,(5.1.4)-1*
G04 #@! TF.CreationDate,2019-10-17T13:45:54+02:00*
G04 #@! TF.ProjectId,Project3_ArduinoClone,50726f6a-6563-4743-935f-41726475696e,v1*
G04 #@! TF.SameCoordinates,Original*
G04 #@! TF.FileFunction,Copper,L1,Top*
G04 #@! TF.FilePolarity,Positive*
%FSLAX46Y46*%
G04 Gerber Fmt 4.6, Leading zero omitted, Abs format (unit mm)*
G04 Created by KiCad (PCBNEW (5.1.4)-1) date 2019-10-17 13:45:54*
%MOMM*%
%LPD*%
G04 APERTURE LIST*
%ADD10R,1.700000X1.700000*%
%ADD11O,1.700000X1.700000*%
%ADD12C,0.100000*%
%ADD13C,1.150000*%
%ADD14R,1.700000X0.650000*%
%ADD15R,1.750000X0.550000*%
%ADD16R,1.750000X1.800000*%
%ADD17R,3.500000X2.400000*%
%ADD18R,0.550000X1.500000*%
%ADD19R,1.500000X0.550000*%
%ADD20C,1.000000*%
%ADD21C,0.800000*%
%ADD22C,0.300000*%
%ADD23C,0.250000*%
G04 APERTURE END LIST*
D10*
X79502000Y-127762000D03*
D11*
X79502000Y-130302000D03*
D12*
G36*
X92914505Y-128841204D02*
G01*
X92938773Y-128844804D01*
X92962572Y-128850765D01*
X92985671Y-128859030D01*
X93007850Y-128869520D01*
X93028893Y-128882132D01*
X93048599Y-128896747D01*
X93066777Y-128913223D01*
X93083253Y-128931401D01*
X93097868Y-128951107D01*
X93110480Y-128972150D01*
X93120970Y-128994329D01*
X93129235Y-129017428D01*
X93135196Y-129041227D01*
X93138796Y-129065495D01*
X93140000Y-129089999D01*
X93140000Y-129990001D01*
X93138796Y-130014505D01*
X93135196Y-130038773D01*
X93129235Y-130062572D01*
X93120970Y-130085671D01*
X93110480Y-130107850D01*
X93097868Y-130128893D01*
X93083253Y-130148599D01*
X93066777Y-130166777D01*
X93048599Y-130183253D01*
X93028893Y-130197868D01*
X93007850Y-130210480D01*
X92985671Y-130220970D01*
X92962572Y-130229235D01*
X92938773Y-130235196D01*
X92914505Y-130238796D01*
X92890001Y-130240000D01*
X92239999Y-130240000D01*
X92215495Y-130238796D01*
X92191227Y-130235196D01*
X92167428Y-130229235D01*
X92144329Y-130220970D01*
X92122150Y-130210480D01*
X92101107Y-130197868D01*
X92081401Y-130183253D01*
X92063223Y-130166777D01*
X92046747Y-130148599D01*
X92032132Y-130128893D01*
X92019520Y-130107850D01*
X92009030Y-130085671D01*
X92000765Y-130062572D01*
X91994804Y-130038773D01*
X91991204Y-130014505D01*
X91990000Y-129990001D01*
X91990000Y-129089999D01*
X91991204Y-129065495D01*
X91994804Y-129041227D01*
X92000765Y-129017428D01*
X92009030Y-128994329D01*
X92019520Y-128972150D01*
X92032132Y-128951107D01*
X92046747Y-128931401D01*
X92063223Y-128913223D01*
X92081401Y-128896747D01*
X92101107Y-128882132D01*
X92122150Y-128869520D01*
X92144329Y-128859030D01*
X92167428Y-128850765D01*
X92191227Y-128844804D01*
X92215495Y-128841204D01*
X92239999Y-128840000D01*
X92890001Y-128840000D01*
X92914505Y-128841204D01*
X92914505Y-128841204D01*
G37*
D13*
X92565000Y-129540000D03*
D12*
G36*
X94964505Y-128841204D02*
G01*
X94988773Y-128844804D01*
X95012572Y-128850765D01*
X95035671Y-128859030D01*
X95057850Y-128869520D01*
X95078893Y-128882132D01*
X95098599Y-128896747D01*
X95116777Y-128913223D01*
X95133253Y-128931401D01*
X95147868Y-128951107D01*
X95160480Y-128972150D01*
X95170970Y-128994329D01*
X95179235Y-129017428D01*
X95185196Y-129041227D01*
X95188796Y-129065495D01*
X95190000Y-129089999D01*
X95190000Y-129990001D01*
X95188796Y-130014505D01*
X95185196Y-130038773D01*
X95179235Y-130062572D01*
X95170970Y-130085671D01*
X95160480Y-130107850D01*
X95147868Y-130128893D01*
X95133253Y-130148599D01*
X95116777Y-130166777D01*
X95098599Y-130183253D01*
X95078893Y-130197868D01*
X95057850Y-130210480D01*
X95035671Y-130220970D01*
X95012572Y-130229235D01*
X94988773Y-130235196D01*
X94964505Y-130238796D01*
X94940001Y-130240000D01*
X94289999Y-130240000D01*
X94265495Y-130238796D01*
X94241227Y-130235196D01*
X94217428Y-130229235D01*
X94194329Y-130220970D01*
X94172150Y-130210480D01*
X94151107Y-130197868D01*
X94131401Y-130183253D01*
X94113223Y-130166777D01*
X94096747Y-130148599D01*
X94082132Y-130128893D01*
X94069520Y-130107850D01*
X94059030Y-130085671D01*
X94050765Y-130062572D01*
X94044804Y-130038773D01*
X94041204Y-130014505D01*
X94040000Y-129990001D01*
X94040000Y-129089999D01*
X94041204Y-129065495D01*
X94044804Y-129041227D01*
X94050765Y-129017428D01*
X94059030Y-128994329D01*
X94069520Y-128972150D01*
X94082132Y-128951107D01*
X94096747Y-128931401D01*
X94113223Y-128913223D01*
X94131401Y-128896747D01*
X94151107Y-128882132D01*
X94172150Y-128869520D01*
X94194329Y-128859030D01*
X94217428Y-128850765D01*
X94241227Y-128844804D01*
X94265495Y-128841204D01*
X94289999Y-128840000D01*
X94940001Y-128840000D01*
X94964505Y-128841204D01*
X94964505Y-128841204D01*
G37*
D13*
X94615000Y-129540000D03*
D12*
G36*
X94837505Y-125539204D02*
G01*
X94861773Y-125542804D01*
X94885572Y-125548765D01*
X94908671Y-125557030D01*
X94930850Y-125567520D01*
X94951893Y-125580132D01*
X94971599Y-125594747D01*
X94989777Y-125611223D01*
X95006253Y-125629401D01*
X95020868Y-125649107D01*
X95033480Y-125670150D01*
X95043970Y-125692329D01*
X95052235Y-125715428D01*
X95058196Y-125739227D01*
X95061796Y-125763495D01*
X95063000Y-125787999D01*
X95063000Y-126688001D01*
X95061796Y-126712505D01*
X95058196Y-126736773D01*
X95052235Y-126760572D01*
X95043970Y-126783671D01*
X95033480Y-126805850D01*
X95020868Y-126826893D01*
X95006253Y-126846599D01*
X94989777Y-126864777D01*
X94971599Y-126881253D01*
X94951893Y-126895868D01*
X94930850Y-126908480D01*
X94908671Y-126918970D01*
X94885572Y-126927235D01*
X94861773Y-126933196D01*
X94837505Y-126936796D01*
X94813001Y-126938000D01*
X94162999Y-126938000D01*
X94138495Y-126936796D01*
X94114227Y-126933196D01*
X94090428Y-126927235D01*
X94067329Y-126918970D01*
X94045150Y-126908480D01*
X94024107Y-126895868D01*
X94004401Y-126881253D01*
X93986223Y-126864777D01*
X93969747Y-126846599D01*
X93955132Y-126826893D01*
X93942520Y-126805850D01*
X93932030Y-126783671D01*
X93923765Y-126760572D01*
X93917804Y-126736773D01*
X93914204Y-126712505D01*
X93913000Y-126688001D01*
X93913000Y-125787999D01*
X93914204Y-125763495D01*
X93917804Y-125739227D01*
X93923765Y-125715428D01*
X93932030Y-125692329D01*
X93942520Y-125670150D01*
X93955132Y-125649107D01*
X93969747Y-125629401D01*
X93986223Y-125611223D01*
X94004401Y-125594747D01*
X94024107Y-125580132D01*
X94045150Y-125567520D01*
X94067329Y-125557030D01*
X94090428Y-125548765D01*
X94114227Y-125542804D01*
X94138495Y-125539204D01*
X94162999Y-125538000D01*
X94813001Y-125538000D01*
X94837505Y-125539204D01*
X94837505Y-125539204D01*
G37*
D13*
X94488000Y-126238000D03*
D12*
G36*
X92787505Y-125539204D02*
G01*
X92811773Y-125542804D01*
X92835572Y-125548765D01*
X92858671Y-125557030D01*
X92880850Y-125567520D01*
X92901893Y-125580132D01*
X92921599Y-125594747D01*
X92939777Y-125611223D01*
X92956253Y-125629401D01*
X92970868Y-125649107D01*
X92983480Y-125670150D01*
X92993970Y-125692329D01*
X93002235Y-125715428D01*
X93008196Y-125739227D01*
X93011796Y-125763495D01*
X93013000Y-125787999D01*
X93013000Y-126688001D01*
X93011796Y-126712505D01*
X93008196Y-126736773D01*
X93002235Y-126760572D01*
X92993970Y-126783671D01*
X92983480Y-126805850D01*
X92970868Y-126826893D01*
X92956253Y-126846599D01*
X92939777Y-126864777D01*
X92921599Y-126881253D01*
X92901893Y-126895868D01*
X92880850Y-126908480D01*
X92858671Y-126918970D01*
X92835572Y-126927235D01*
X92811773Y-126933196D01*
X92787505Y-126936796D01*
X92763001Y-126938000D01*
X92112999Y-126938000D01*
X92088495Y-126936796D01*
X92064227Y-126933196D01*
X92040428Y-126927235D01*
X92017329Y-126918970D01*
X91995150Y-126908480D01*
X91974107Y-126895868D01*
X91954401Y-126881253D01*
X91936223Y-126864777D01*
X91919747Y-126846599D01*
X91905132Y-126826893D01*
X91892520Y-126805850D01*
X91882030Y-126783671D01*
X91873765Y-126760572D01*
X91867804Y-126736773D01*
X91864204Y-126712505D01*
X91863000Y-126688001D01*
X91863000Y-125787999D01*
X91864204Y-125763495D01*
X91867804Y-125739227D01*
X91873765Y-125715428D01*
X91882030Y-125692329D01*
X91892520Y-125670150D01*
X91905132Y-125649107D01*
X91919747Y-125629401D01*
X91936223Y-125611223D01*
X91954401Y-125594747D01*
X91974107Y-125580132D01*
X91995150Y-125567520D01*
X92017329Y-125557030D01*
X92040428Y-125548765D01*
X92064227Y-125542804D01*
X92088495Y-125539204D01*
X92112999Y-125538000D01*
X92763001Y-125538000D01*
X92787505Y-125539204D01*
X92787505Y-125539204D01*
G37*
D13*
X92438000Y-126238000D03*
D12*
G36*
X108154505Y-134461204D02*
G01*
X108178773Y-134464804D01*
X108202572Y-134470765D01*
X108225671Y-134479030D01*
X108247850Y-134489520D01*
X108268893Y-134502132D01*
X108288599Y-134516747D01*
X108306777Y-134533223D01*
X108323253Y-134551401D01*
X108337868Y-134571107D01*
X108350480Y-134592150D01*
X108360970Y-134614329D01*
X108369235Y-134637428D01*
X108375196Y-134661227D01*
X108378796Y-134685495D01*
X108380000Y-134709999D01*
X108380000Y-135610001D01*
X108378796Y-135634505D01*
X108375196Y-135658773D01*
X108369235Y-135682572D01*
X108360970Y-135705671D01*
X108350480Y-135727850D01*
X108337868Y-135748893D01*
X108323253Y-135768599D01*
X108306777Y-135786777D01*
X108288599Y-135803253D01*
X108268893Y-135817868D01*
X108247850Y-135830480D01*
X108225671Y-135840970D01*
X108202572Y-135849235D01*
X108178773Y-135855196D01*
X108154505Y-135858796D01*
X108130001Y-135860000D01*
X107479999Y-135860000D01*
X107455495Y-135858796D01*
X107431227Y-135855196D01*
X107407428Y-135849235D01*
X107384329Y-135840970D01*
X107362150Y-135830480D01*
X107341107Y-135817868D01*
X107321401Y-135803253D01*
X107303223Y-135786777D01*
X107286747Y-135768599D01*
X107272132Y-135748893D01*
X107259520Y-135727850D01*
X107249030Y-135705671D01*
X107240765Y-135682572D01*
X107234804Y-135658773D01*
X107231204Y-135634505D01*
X107230000Y-135610001D01*
X107230000Y-134709999D01*
X107231204Y-134685495D01*
X107234804Y-134661227D01*
X107240765Y-134637428D01*
X107249030Y-134614329D01*
X107259520Y-134592150D01*
X107272132Y-134571107D01*
X107286747Y-134551401D01*
X107303223Y-134533223D01*
X107321401Y-134516747D01*
X107341107Y-134502132D01*
X107362150Y-134489520D01*
X107384329Y-134479030D01*
X107407428Y-134470765D01*
X107431227Y-134464804D01*
X107455495Y-134461204D01*
X107479999Y-134460000D01*
X108130001Y-134460000D01*
X108154505Y-134461204D01*
X108154505Y-134461204D01*
G37*
D13*
X107805000Y-135160000D03*
D12*
G36*
X110204505Y-134461204D02*
G01*
X110228773Y-134464804D01*
X110252572Y-134470765D01*
X110275671Y-134479030D01*
X110297850Y-134489520D01*
X110318893Y-134502132D01*
X110338599Y-134516747D01*
X110356777Y-134533223D01*
X110373253Y-134551401D01*
X110387868Y-134571107D01*
X110400480Y-134592150D01*
X110410970Y-134614329D01*
X110419235Y-134637428D01*
X110425196Y-134661227D01*
X110428796Y-134685495D01*
X110430000Y-134709999D01*
X110430000Y-135610001D01*
X110428796Y-135634505D01*
X110425196Y-135658773D01*
X110419235Y-135682572D01*
X110410970Y-135705671D01*
X110400480Y-135727850D01*
X110387868Y-135748893D01*
X110373253Y-135768599D01*
X110356777Y-135786777D01*
X110338599Y-135803253D01*
X110318893Y-135817868D01*
X110297850Y-135830480D01*
X110275671Y-135840970D01*
X110252572Y-135849235D01*
X110228773Y-135855196D01*
X110204505Y-135858796D01*
X110180001Y-135860000D01*
X109529999Y-135860000D01*
X109505495Y-135858796D01*
X109481227Y-135855196D01*
X109457428Y-135849235D01*
X109434329Y-135840970D01*
X109412150Y-135830480D01*
X109391107Y-135817868D01*
X109371401Y-135803253D01*
X109353223Y-135786777D01*
X109336747Y-135768599D01*
X109322132Y-135748893D01*
X109309520Y-135727850D01*
X109299030Y-135705671D01*
X109290765Y-135682572D01*
X109284804Y-135658773D01*
X109281204Y-135634505D01*
X109280000Y-135610001D01*
X109280000Y-134709999D01*
X109281204Y-134685495D01*
X109284804Y-134661227D01*
X109290765Y-134637428D01*
X109299030Y-134614329D01*
X109309520Y-134592150D01*
X109322132Y-134571107D01*
X109336747Y-134551401D01*
X109353223Y-134533223D01*
X109371401Y-134516747D01*
X109391107Y-134502132D01*
X109412150Y-134489520D01*
X109434329Y-134479030D01*
X109457428Y-134470765D01*
X109481227Y-134464804D01*
X109505495Y-134461204D01*
X109529999Y-134460000D01*
X110180001Y-134460000D01*
X110204505Y-134461204D01*
X110204505Y-134461204D01*
G37*
D13*
X109855000Y-135160000D03*
D12*
G36*
X113107505Y-138493204D02*
G01*
X113131773Y-138496804D01*
X113155572Y-138502765D01*
X113178671Y-138511030D01*
X113200850Y-138521520D01*
X113221893Y-138534132D01*
X113241599Y-138548747D01*
X113259777Y-138565223D01*
X113276253Y-138583401D01*
X113290868Y-138603107D01*
X113303480Y-138624150D01*
X113313970Y-138646329D01*
X113322235Y-138669428D01*
X113328196Y-138693227D01*
X113331796Y-138717495D01*
X113333000Y-138741999D01*
X113333000Y-139642001D01*
X113331796Y-139666505D01*
X113328196Y-139690773D01*
X113322235Y-139714572D01*
X113313970Y-139737671D01*
X113303480Y-139759850D01*
X113290868Y-139780893D01*
X113276253Y-139800599D01*
X113259777Y-139818777D01*
X113241599Y-139835253D01*
X113221893Y-139849868D01*
X113200850Y-139862480D01*
X113178671Y-139872970D01*
X113155572Y-139881235D01*
X113131773Y-139887196D01*
X113107505Y-139890796D01*
X113083001Y-139892000D01*
X112432999Y-139892000D01*
X112408495Y-139890796D01*
X112384227Y-139887196D01*
X112360428Y-139881235D01*
X112337329Y-139872970D01*
X112315150Y-139862480D01*
X112294107Y-139849868D01*
X112274401Y-139835253D01*
X112256223Y-139818777D01*
X112239747Y-139800599D01*
X112225132Y-139780893D01*
X112212520Y-139759850D01*
X112202030Y-139737671D01*
X112193765Y-139714572D01*
X112187804Y-139690773D01*
X112184204Y-139666505D01*
X112183000Y-139642001D01*
X112183000Y-138741999D01*
X112184204Y-138717495D01*
X112187804Y-138693227D01*
X112193765Y-138669428D01*
X112202030Y-138646329D01*
X112212520Y-138624150D01*
X112225132Y-138603107D01*
X112239747Y-138583401D01*
X112256223Y-138565223D01*
X112274401Y-138548747D01*
X112294107Y-138534132D01*
X112315150Y-138521520D01*
X112337329Y-138511030D01*
X112360428Y-138502765D01*
X112384227Y-138496804D01*
X112408495Y-138493204D01*
X112432999Y-138492000D01*
X113083001Y-138492000D01*
X113107505Y-138493204D01*
X113107505Y-138493204D01*
G37*
D13*
X112758000Y-139192000D03*
D12*
G36*
X115157505Y-138493204D02*
G01*
X115181773Y-138496804D01*
X115205572Y-138502765D01*
X115228671Y-138511030D01*
X115250850Y-138521520D01*
X115271893Y-138534132D01*
X115291599Y-138548747D01*
X115309777Y-138565223D01*
X115326253Y-138583401D01*
X115340868Y-138603107D01*
X115353480Y-138624150D01*
X115363970Y-138646329D01*
X115372235Y-138669428D01*
X115378196Y-138693227D01*
X115381796Y-138717495D01*
X115383000Y-138741999D01*
X115383000Y-139642001D01*
X115381796Y-139666505D01*
X115378196Y-139690773D01*
X115372235Y-139714572D01*
X115363970Y-139737671D01*
X115353480Y-139759850D01*
X115340868Y-139780893D01*
X115326253Y-139800599D01*
X115309777Y-139818777D01*
X115291599Y-139835253D01*
X115271893Y-139849868D01*
X115250850Y-139862480D01*
X115228671Y-139872970D01*
X115205572Y-139881235D01*
X115181773Y-139887196D01*
X115157505Y-139890796D01*
X115133001Y-139892000D01*
X114482999Y-139892000D01*
X114458495Y-139890796D01*
X114434227Y-139887196D01*
X114410428Y-139881235D01*
X114387329Y-139872970D01*
X114365150Y-139862480D01*
X114344107Y-139849868D01*
X114324401Y-139835253D01*
X114306223Y-139818777D01*
X114289747Y-139800599D01*
X114275132Y-139780893D01*
X114262520Y-139759850D01*
X114252030Y-139737671D01*
X114243765Y-139714572D01*
X114237804Y-139690773D01*
X114234204Y-139666505D01*
X114233000Y-139642001D01*
X114233000Y-138741999D01*
X114234204Y-138717495D01*
X114237804Y-138693227D01*
X114243765Y-138669428D01*
X114252030Y-138646329D01*
X114262520Y-138624150D01*
X114275132Y-138603107D01*
X114289747Y-138583401D01*
X114306223Y-138565223D01*
X114324401Y-138548747D01*
X114344107Y-138534132D01*
X114365150Y-138521520D01*
X114387329Y-138511030D01*
X114410428Y-138502765D01*
X114434227Y-138496804D01*
X114458495Y-138493204D01*
X114482999Y-138492000D01*
X115133001Y-138492000D01*
X115157505Y-138493204D01*
X115157505Y-138493204D01*
G37*
D13*
X114808000Y-139192000D03*
D10*
X104140000Y-121920000D03*
D11*
X106680000Y-121920000D03*
X109220000Y-121920000D03*
X111760000Y-121920000D03*
D10*
X88392000Y-144653000D03*
D11*
X90932000Y-144653000D03*
X93472000Y-144653000D03*
X96012000Y-144653000D03*
X98552000Y-144653000D03*
X101092000Y-144653000D03*
X103632000Y-144653000D03*
X106172000Y-144653000D03*
X108712000Y-144653000D03*
D10*
X82042000Y-134874000D03*
D11*
X79502000Y-134874000D03*
X82042000Y-137414000D03*
X79502000Y-137414000D03*
X82042000Y-139954000D03*
X79502000Y-139954000D03*
X97028000Y-122047000D03*
X94488000Y-122047000D03*
X91948000Y-122047000D03*
D10*
X89408000Y-122047000D03*
D12*
G36*
X108154505Y-138493204D02*
G01*
X108178773Y-138496804D01*
X108202572Y-138502765D01*
X108225671Y-138511030D01*
X108247850Y-138521520D01*
X108268893Y-138534132D01*
X108288599Y-138548747D01*
X108306777Y-138565223D01*
X108323253Y-138583401D01*
X108337868Y-138603107D01*
X108350480Y-138624150D01*
X108360970Y-138646329D01*
X108369235Y-138669428D01*
X108375196Y-138693227D01*
X108378796Y-138717495D01*
X108380000Y-138741999D01*
X108380000Y-139642001D01*
X108378796Y-139666505D01*
X108375196Y-139690773D01*
X108369235Y-139714572D01*
X108360970Y-139737671D01*
X108350480Y-139759850D01*
X108337868Y-139780893D01*
X108323253Y-139800599D01*
X108306777Y-139818777D01*
X108288599Y-139835253D01*
X108268893Y-139849868D01*
X108247850Y-139862480D01*
X108225671Y-139872970D01*
X108202572Y-139881235D01*
X108178773Y-139887196D01*
X108154505Y-139890796D01*
X108130001Y-139892000D01*
X107479999Y-139892000D01*
X107455495Y-139890796D01*
X107431227Y-139887196D01*
X107407428Y-139881235D01*
X107384329Y-139872970D01*
X107362150Y-139862480D01*
X107341107Y-139849868D01*
X107321401Y-139835253D01*
X107303223Y-139818777D01*
X107286747Y-139800599D01*
X107272132Y-139780893D01*
X107259520Y-139759850D01*
X107249030Y-139737671D01*
X107240765Y-139714572D01*
X107234804Y-139690773D01*
X107231204Y-139666505D01*
X107230000Y-139642001D01*
X107230000Y-138741999D01*
X107231204Y-138717495D01*
X107234804Y-138693227D01*
X107240765Y-138669428D01*
X107249030Y-138646329D01*
X107259520Y-138624150D01*
X107272132Y-138603107D01*
X107286747Y-138583401D01*
X107303223Y-138565223D01*
X107321401Y-138548747D01*
X107341107Y-138534132D01*
X107362150Y-138521520D01*
X107384329Y-138511030D01*
X107407428Y-138502765D01*
X107431227Y-138496804D01*
X107455495Y-138493204D01*
X107479999Y-138492000D01*
X108130001Y-138492000D01*
X108154505Y-138493204D01*
X108154505Y-138493204D01*
G37*
D13*
X107805000Y-139192000D03*
D12*
G36*
X110204505Y-138493204D02*
G01*
X110228773Y-138496804D01*
X110252572Y-138502765D01*
X110275671Y-138511030D01*
X110297850Y-138521520D01*
X110318893Y-138534132D01*
X110338599Y-138548747D01*
X110356777Y-138565223D01*
X110373253Y-138583401D01*
X110387868Y-138603107D01*
X110400480Y-138624150D01*
X110410970Y-138646329D01*
X110419235Y-138669428D01*
X110425196Y-138693227D01*
X110428796Y-138717495D01*
X110430000Y-138741999D01*
X110430000Y-139642001D01*
X110428796Y-139666505D01*
X110425196Y-139690773D01*
X110419235Y-139714572D01*
X110410970Y-139737671D01*
X110400480Y-139759850D01*
X110387868Y-139780893D01*
X110373253Y-139800599D01*
X110356777Y-139818777D01*
X110338599Y-139835253D01*
X110318893Y-139849868D01*
X110297850Y-139862480D01*
X110275671Y-139872970D01*
X110252572Y-139881235D01*
X110228773Y-139887196D01*
X110204505Y-139890796D01*
X110180001Y-139892000D01*
X109529999Y-139892000D01*
X109505495Y-139890796D01*
X109481227Y-139887196D01*
X109457428Y-139881235D01*
X109434329Y-139872970D01*
X109412150Y-139862480D01*
X109391107Y-139849868D01*
X109371401Y-139835253D01*
X109353223Y-139818777D01*
X109336747Y-139800599D01*
X109322132Y-139780893D01*
X109309520Y-139759850D01*
X109299030Y-139737671D01*
X109290765Y-139714572D01*
X109284804Y-139690773D01*
X109281204Y-139666505D01*
X109280000Y-139642001D01*
X109280000Y-138741999D01*
X109281204Y-138717495D01*
X109284804Y-138693227D01*
X109290765Y-138669428D01*
X109299030Y-138646329D01*
X109309520Y-138624150D01*
X109322132Y-138603107D01*
X109336747Y-138583401D01*
X109353223Y-138565223D01*
X109371401Y-138548747D01*
X109391107Y-138534132D01*
X109412150Y-138521520D01*
X109434329Y-138511030D01*
X109457428Y-138502765D01*
X109481227Y-138496804D01*
X109505495Y-138493204D01*
X109529999Y-138492000D01*
X110180001Y-138492000D01*
X110204505Y-138493204D01*
X110204505Y-138493204D01*
G37*
D13*
X109855000Y-139192000D03*
D12*
G36*
X86074505Y-123253204D02*
G01*
X86098773Y-123256804D01*
X86122572Y-123262765D01*
X86145671Y-123271030D01*
X86167850Y-123281520D01*
X86188893Y-123294132D01*
X86208599Y-123308747D01*
X86226777Y-123325223D01*
X86243253Y-123343401D01*
X86257868Y-123363107D01*
X86270480Y-123384150D01*
X86280970Y-123406329D01*
X86289235Y-123429428D01*
X86295196Y-123453227D01*
X86298796Y-123477495D01*
X86300000Y-123501999D01*
X86300000Y-124402001D01*
X86298796Y-124426505D01*
X86295196Y-124450773D01*
X86289235Y-124474572D01*
X86280970Y-124497671D01*
X86270480Y-124519850D01*
X86257868Y-124540893D01*
X86243253Y-124560599D01*
X86226777Y-124578777D01*
X86208599Y-124595253D01*
X86188893Y-124609868D01*
X86167850Y-124622480D01*
X86145671Y-124632970D01*
X86122572Y-124641235D01*
X86098773Y-124647196D01*
X86074505Y-124650796D01*
X86050001Y-124652000D01*
X85399999Y-124652000D01*
X85375495Y-124650796D01*
X85351227Y-124647196D01*
X85327428Y-124641235D01*
X85304329Y-124632970D01*
X85282150Y-124622480D01*
X85261107Y-124609868D01*
X85241401Y-124595253D01*
X85223223Y-124578777D01*
X85206747Y-124560599D01*
X85192132Y-124540893D01*
X85179520Y-124519850D01*
X85169030Y-124497671D01*
X85160765Y-124474572D01*
X85154804Y-124450773D01*
X85151204Y-124426505D01*
X85150000Y-124402001D01*
X85150000Y-123501999D01*
X85151204Y-123477495D01*
X85154804Y-123453227D01*
X85160765Y-123429428D01*
X85169030Y-123406329D01*
X85179520Y-123384150D01*
X85192132Y-123363107D01*
X85206747Y-123343401D01*
X85223223Y-123325223D01*
X85241401Y-123308747D01*
X85261107Y-123294132D01*
X85282150Y-123281520D01*
X85304329Y-123271030D01*
X85327428Y-123262765D01*
X85351227Y-123256804D01*
X85375495Y-123253204D01*
X85399999Y-123252000D01*
X86050001Y-123252000D01*
X86074505Y-123253204D01*
X86074505Y-123253204D01*
G37*
D13*
X85725000Y-123952000D03*
D12*
G36*
X84024505Y-123253204D02*
G01*
X84048773Y-123256804D01*
X84072572Y-123262765D01*
X84095671Y-123271030D01*
X84117850Y-123281520D01*
X84138893Y-123294132D01*
X84158599Y-123308747D01*
X84176777Y-123325223D01*
X84193253Y-123343401D01*
X84207868Y-123363107D01*
X84220480Y-123384150D01*
X84230970Y-123406329D01*
X84239235Y-123429428D01*
X84245196Y-123453227D01*
X84248796Y-123477495D01*
X84250000Y-123501999D01*
X84250000Y-124402001D01*
X84248796Y-124426505D01*
X84245196Y-124450773D01*
X84239235Y-124474572D01*
X84230970Y-124497671D01*
X84220480Y-124519850D01*
X84207868Y-124540893D01*
X84193253Y-124560599D01*
X84176777Y-124578777D01*
X84158599Y-124595253D01*
X84138893Y-124609868D01*
X84117850Y-124622480D01*
X84095671Y-124632970D01*
X84072572Y-124641235D01*
X84048773Y-124647196D01*
X84024505Y-124650796D01*
X84000001Y-124652000D01*
X83349999Y-124652000D01*
X83325495Y-124650796D01*
X83301227Y-124647196D01*
X83277428Y-124641235D01*
X83254329Y-124632970D01*
X83232150Y-124622480D01*
X83211107Y-124609868D01*
X83191401Y-124595253D01*
X83173223Y-124578777D01*
X83156747Y-124560599D01*
X83142132Y-124540893D01*
X83129520Y-124519850D01*
X83119030Y-124497671D01*
X83110765Y-124474572D01*
X83104804Y-124450773D01*
X83101204Y-124426505D01*
X83100000Y-124402001D01*
X83100000Y-123501999D01*
X83101204Y-123477495D01*
X83104804Y-123453227D01*
X83110765Y-123429428D01*
X83119030Y-123406329D01*
X83129520Y-123384150D01*
X83142132Y-123363107D01*
X83156747Y-123343401D01*
X83173223Y-123325223D01*
X83191401Y-123308747D01*
X83211107Y-123294132D01*
X83232150Y-123281520D01*
X83254329Y-123271030D01*
X83277428Y-123262765D01*
X83301227Y-123256804D01*
X83325495Y-123253204D01*
X83349999Y-123252000D01*
X84000001Y-123252000D01*
X84024505Y-123253204D01*
X84024505Y-123253204D01*
G37*
D13*
X83675000Y-123952000D03*
D14*
X97696000Y-126619000D03*
X97696000Y-127889000D03*
X97696000Y-129159000D03*
X97696000Y-130429000D03*
X104996000Y-130429000D03*
X104996000Y-129159000D03*
X104996000Y-127889000D03*
X104996000Y-126619000D03*
X104996000Y-135255000D03*
X104996000Y-136525000D03*
X104996000Y-137795000D03*
X104996000Y-139065000D03*
X97696000Y-139065000D03*
X97696000Y-137795000D03*
X97696000Y-136525000D03*
X97696000Y-135255000D03*
D15*
X108441000Y-126365000D03*
X108441000Y-127635000D03*
X108441000Y-128905000D03*
X108441000Y-130175000D03*
X115841000Y-130175000D03*
X115841000Y-128905000D03*
X115841000Y-127635000D03*
X115841000Y-126365000D03*
D16*
X112574000Y-135255000D03*
X115824000Y-135255000D03*
D17*
X84081000Y-127762000D03*
X89281000Y-127762000D03*
D18*
X87751000Y-141487000D03*
D19*
X86351000Y-134487000D03*
X86351000Y-135287000D03*
X86351000Y-136087000D03*
X86351000Y-136887000D03*
X86351000Y-137687000D03*
X86351000Y-138487000D03*
X86351000Y-139287000D03*
X86351000Y-140087000D03*
D18*
X88551000Y-141487000D03*
X89351000Y-141487000D03*
X90151000Y-141487000D03*
X90951000Y-141487000D03*
X91751000Y-141487000D03*
X92551000Y-141487000D03*
X93351000Y-141487000D03*
D19*
X94751000Y-140087000D03*
X94751000Y-139287000D03*
X94751000Y-138487000D03*
X94751000Y-137687000D03*
X94751000Y-136887000D03*
X94751000Y-136087000D03*
X94751000Y-135287000D03*
X94751000Y-134487000D03*
D18*
X93351000Y-133087000D03*
X92551000Y-133087000D03*
X91751000Y-133087000D03*
X90951000Y-133087000D03*
X90151000Y-133087000D03*
X89351000Y-133087000D03*
X88551000Y-133087000D03*
X87751000Y-133087000D03*
D20*
X108712000Y-133704000D03*
X108712000Y-131206000D03*
X101444800Y-123120300D03*
X107126800Y-131025300D03*
X100514200Y-130487600D03*
D21*
X88013900Y-130033300D03*
X91149500Y-137532600D03*
X92500600Y-138384700D03*
X93658100Y-125086100D03*
X89420400Y-125938600D03*
X89959100Y-139163300D03*
X93213000Y-134478400D03*
X91121800Y-134901200D03*
X83771800Y-136428100D03*
X84963600Y-135129300D03*
X87702200Y-135540400D03*
X94240100Y-141487000D03*
X89510600Y-140136400D03*
X90951000Y-131734700D03*
X102806800Y-137732100D03*
X90145800Y-130791800D03*
D22*
X79502000Y-127762000D02*
X80702300Y-127762000D01*
X83675000Y-123952000D02*
X80702300Y-126924700D01*
X80702300Y-126924700D02*
X80702300Y-127762000D01*
X91948000Y-122047000D02*
X90747600Y-123247400D01*
X90747600Y-123247400D02*
X87690300Y-123247400D01*
X87690300Y-123247400D02*
X87301300Y-122858400D01*
X87301300Y-122858400D02*
X84768600Y-122858400D01*
X84768600Y-122858400D02*
X83675000Y-123952000D01*
X107805000Y-135160000D02*
X108712000Y-134253000D01*
X108712000Y-134253000D02*
X108712000Y-133704000D01*
X106196300Y-135255000D02*
X106291300Y-135160000D01*
X106291300Y-135160000D02*
X107805000Y-135160000D01*
X109666300Y-128905000D02*
X109666300Y-130601600D01*
X109666300Y-130601600D02*
X109061900Y-131206000D01*
X109061900Y-131206000D02*
X108712000Y-131206000D01*
X101899200Y-135255000D02*
X101899200Y-130608200D01*
X101899200Y-130608200D02*
X100450000Y-129159000D01*
X100450000Y-129159000D02*
X97696000Y-129159000D01*
X108441000Y-128905000D02*
X109666300Y-128905000D01*
X104996000Y-135255000D02*
X106196300Y-135255000D01*
X101899200Y-135255000D02*
X104996000Y-135255000D01*
X93650700Y-137687000D02*
X92746000Y-136782300D01*
X92746000Y-136782300D02*
X90838800Y-136782300D01*
X90838800Y-136782300D02*
X90734100Y-136887000D01*
X90734100Y-136887000D02*
X87451300Y-136887000D01*
X97696000Y-137795000D02*
X99359200Y-137795000D01*
X99359200Y-137795000D02*
X101899200Y-135255000D01*
X95851300Y-137687000D02*
X95959300Y-137795000D01*
X95959300Y-137795000D02*
X97696000Y-137795000D01*
X87451300Y-138487000D02*
X87451300Y-136887000D01*
X106680000Y-123120300D02*
X106680000Y-123120400D01*
X106680000Y-123120400D02*
X111371100Y-123120400D01*
X111371100Y-123120400D02*
X114615700Y-126365000D01*
X106680000Y-121920000D02*
X106680000Y-123120300D01*
X106680000Y-123120300D02*
X101444800Y-123120300D01*
X115841000Y-126365000D02*
X114615700Y-126365000D01*
X86351000Y-136887000D02*
X87451300Y-136887000D01*
X86351000Y-138487000D02*
X87451300Y-138487000D01*
X93650700Y-137687000D02*
X93650700Y-139287000D01*
X107215700Y-128905000D02*
X106196300Y-127885600D01*
X106196300Y-127885600D02*
X106196300Y-126619000D01*
X104996000Y-126619000D02*
X106196300Y-126619000D01*
X108441000Y-128905000D02*
X107215700Y-128905000D01*
X94751000Y-137687000D02*
X95851300Y-137687000D01*
X94751000Y-139287000D02*
X93650700Y-139287000D01*
X94751000Y-137687000D02*
X93650700Y-137687000D01*
X104996000Y-136525000D02*
X108490000Y-136525000D01*
X108490000Y-136525000D02*
X109855000Y-135160000D01*
X101346100Y-139065000D02*
X101346100Y-138120600D01*
X101346100Y-138120600D02*
X102941700Y-136525000D01*
X102941700Y-136525000D02*
X104996000Y-136525000D01*
X107126800Y-131025300D02*
X107215700Y-130936400D01*
X107215700Y-130936400D02*
X107215700Y-130175000D01*
X108441000Y-130175000D02*
X107215700Y-130175000D01*
X107215700Y-130175000D02*
X107215700Y-129631100D01*
X107215700Y-129631100D02*
X105473600Y-127889000D01*
X105473600Y-127889000D02*
X104996000Y-127889000D01*
X79502000Y-139954000D02*
X80702300Y-139954000D01*
X85250700Y-137687000D02*
X85250700Y-138447400D01*
X85250700Y-138447400D02*
X82533200Y-141164900D01*
X82533200Y-141164900D02*
X81540100Y-141164900D01*
X81540100Y-141164900D02*
X80702300Y-140327100D01*
X80702300Y-140327100D02*
X80702300Y-139954000D01*
X85250700Y-136087000D02*
X85250700Y-137687000D01*
X93650700Y-136887000D02*
X93045700Y-136282000D01*
X93045700Y-136282000D02*
X90631600Y-136282000D01*
X90631600Y-136282000D02*
X90586700Y-136326900D01*
X90586700Y-136326900D02*
X87427700Y-136326900D01*
X87427700Y-136326900D02*
X87187800Y-136087000D01*
X87187800Y-136087000D02*
X86351000Y-136087000D01*
X93157900Y-121517900D02*
X93157900Y-124207300D01*
X93157900Y-124207300D02*
X92438000Y-124927200D01*
X92438000Y-124927200D02*
X92438000Y-126238000D01*
X90608300Y-122047000D02*
X90608300Y-121671900D01*
X90608300Y-121671900D02*
X91456700Y-120823500D01*
X91456700Y-120823500D02*
X92463500Y-120823500D01*
X92463500Y-120823500D02*
X93157900Y-121517900D01*
X102939700Y-121920000D02*
X101866300Y-120846600D01*
X101866300Y-120846600D02*
X93829200Y-120846600D01*
X93829200Y-120846600D02*
X93157900Y-121517900D01*
X104140000Y-121920000D02*
X102939700Y-121920000D01*
X89408000Y-122047000D02*
X90608300Y-122047000D01*
X101346100Y-139065000D02*
X101346100Y-139175700D01*
X101346100Y-139175700D02*
X105045400Y-142875000D01*
X105045400Y-142875000D02*
X106172000Y-142875000D01*
X101346100Y-139065000D02*
X98896300Y-139065000D01*
X106172000Y-142875000D02*
X106172000Y-143452700D01*
X109855000Y-139192000D02*
X106172000Y-142875000D01*
X97696000Y-139065000D02*
X98896300Y-139065000D01*
X97696000Y-130429000D02*
X98896300Y-130429000D01*
X100514200Y-130487600D02*
X98954900Y-130487600D01*
X98954900Y-130487600D02*
X98896300Y-130429000D01*
X106172000Y-144653000D02*
X106172000Y-143452700D01*
X94751000Y-136887000D02*
X93650700Y-136887000D01*
X86351000Y-137687000D02*
X85250700Y-137687000D01*
X86351000Y-136087000D02*
X85250700Y-136087000D01*
X92565000Y-129540000D02*
X92565000Y-126365000D01*
X92565000Y-126365000D02*
X92438000Y-126238000D01*
D23*
X84081000Y-129287300D02*
X87267900Y-129287300D01*
X87267900Y-129287300D02*
X88013900Y-130033300D01*
X88013900Y-130033300D02*
X91419200Y-130033300D01*
X91419200Y-130033300D02*
X91965500Y-130579600D01*
X91965500Y-130579600D02*
X93575400Y-130579600D01*
X93575400Y-130579600D02*
X94615000Y-129540000D01*
X86351000Y-139287000D02*
X87426300Y-139287000D01*
X84081000Y-127762000D02*
X84081000Y-129287300D01*
X87426300Y-139287000D02*
X89180700Y-137532600D01*
X89180700Y-137532600D02*
X91149500Y-137532600D01*
X92500600Y-138384700D02*
X89630200Y-138384700D01*
X89630200Y-138384700D02*
X87927900Y-140087000D01*
X87927900Y-140087000D02*
X86351000Y-140087000D01*
X89281000Y-126236700D02*
X89420400Y-126097300D01*
X89420400Y-126097300D02*
X89420400Y-125938600D01*
X93658100Y-125086100D02*
X94488000Y-125916000D01*
X94488000Y-125916000D02*
X94488000Y-126238000D01*
X89281000Y-127762000D02*
X89281000Y-126236700D01*
X112758000Y-139192000D02*
X111702900Y-138136900D01*
X111702900Y-138136900D02*
X109245300Y-138136900D01*
X109245300Y-138136900D02*
X108190200Y-139192000D01*
X108190200Y-139192000D02*
X107805000Y-139192000D01*
X94751000Y-140087000D02*
X92871500Y-140087000D01*
X92871500Y-140087000D02*
X91947800Y-139163300D01*
X91947800Y-139163300D02*
X89959100Y-139163300D01*
X95288700Y-140087000D02*
X94751000Y-140087000D01*
X95288700Y-140087000D02*
X95826300Y-140087000D01*
X95826300Y-140087000D02*
X100730200Y-140087000D01*
X100730200Y-140087000D02*
X104902000Y-144258800D01*
X104902000Y-144258800D02*
X104902000Y-145045400D01*
X104902000Y-145045400D02*
X105689800Y-145833200D01*
X105689800Y-145833200D02*
X106671100Y-145833200D01*
X106671100Y-145833200D02*
X107442000Y-145062300D01*
X107442000Y-145062300D02*
X107442000Y-144244000D01*
X107442000Y-144244000D02*
X110492300Y-141193700D01*
X110492300Y-141193700D02*
X112806300Y-141193700D01*
X112806300Y-141193700D02*
X114808000Y-139192000D01*
X89351000Y-134162300D02*
X92896900Y-134162300D01*
X92896900Y-134162300D02*
X93213000Y-134478400D01*
X89351000Y-133087000D02*
X89351000Y-134162300D01*
X88551000Y-133087000D02*
X88551000Y-134162300D01*
X88551000Y-134162300D02*
X89289900Y-134901200D01*
X89289900Y-134901200D02*
X91121800Y-134901200D01*
X87751000Y-133087000D02*
X85973200Y-133087000D01*
X85973200Y-133087000D02*
X83771800Y-135288400D01*
X83771800Y-135288400D02*
X83771800Y-136428100D01*
X86351000Y-134487000D02*
X85275700Y-134487000D01*
X85275700Y-134487000D02*
X85275700Y-134817200D01*
X85275700Y-134817200D02*
X84963600Y-135129300D01*
X86351000Y-135287000D02*
X87448800Y-135287000D01*
X87448800Y-135287000D02*
X87702200Y-135540400D01*
X96012000Y-144653000D02*
X94836700Y-144653000D01*
X87751000Y-141487000D02*
X87751000Y-142562300D01*
X87751000Y-142562300D02*
X87205000Y-143108300D01*
X87205000Y-143108300D02*
X87205000Y-145626100D01*
X87205000Y-145626100D02*
X87407200Y-145828300D01*
X87407200Y-145828300D02*
X94028800Y-145828300D01*
X94028800Y-145828300D02*
X94836700Y-145020400D01*
X94836700Y-145020400D02*
X94836700Y-144653000D01*
X98552000Y-144653000D02*
X97376700Y-144653000D01*
X88551000Y-141487000D02*
X88551000Y-142562300D01*
X88551000Y-142562300D02*
X89466400Y-143477700D01*
X89466400Y-143477700D02*
X96568800Y-143477700D01*
X96568800Y-143477700D02*
X97376700Y-144285600D01*
X97376700Y-144285600D02*
X97376700Y-144653000D01*
X99916700Y-144653000D02*
X99916700Y-144285600D01*
X99916700Y-144285600D02*
X98658500Y-143027400D01*
X98658500Y-143027400D02*
X89816100Y-143027400D01*
X89816100Y-143027400D02*
X89351000Y-142562300D01*
X89351000Y-141487000D02*
X89351000Y-142562300D01*
X101092000Y-144653000D02*
X99916700Y-144653000D01*
X102456700Y-144653000D02*
X102456700Y-144285700D01*
X102456700Y-144285700D02*
X100733300Y-142562300D01*
X100733300Y-142562300D02*
X90151000Y-142562300D01*
X103632000Y-144653000D02*
X102456700Y-144653000D01*
X90151000Y-141487000D02*
X90151000Y-142562300D01*
X93351000Y-141487000D02*
X94240100Y-141487000D01*
X92551000Y-140411700D02*
X89785900Y-140411700D01*
X89785900Y-140411700D02*
X89510600Y-140136400D01*
X92551000Y-141487000D02*
X92551000Y-140411700D01*
X83784200Y-130949100D02*
X82005600Y-129170600D01*
X82005600Y-129170600D02*
X82005600Y-126368400D01*
X82005600Y-126368400D02*
X82259700Y-126114300D01*
X82259700Y-126114300D02*
X83562700Y-126114300D01*
X83562700Y-126114300D02*
X85725000Y-123952000D01*
X90151000Y-132011700D02*
X84846700Y-132011700D01*
X84846700Y-132011700D02*
X83784200Y-130949100D01*
X82042000Y-138778700D02*
X81674700Y-138778700D01*
X81674700Y-138778700D02*
X80866600Y-137970600D01*
X80866600Y-137970600D02*
X80866600Y-133866700D01*
X80866600Y-133866700D02*
X83784200Y-130949100D01*
X82042000Y-139954000D02*
X82042000Y-138778700D01*
X90151000Y-133087000D02*
X90151000Y-132011700D01*
X103820700Y-125734800D02*
X101891100Y-125734800D01*
X101891100Y-125734800D02*
X98203300Y-122047000D01*
X115841000Y-128905000D02*
X114483600Y-128905000D01*
X114483600Y-128905000D02*
X111313400Y-125734800D01*
X111313400Y-125734800D02*
X103820700Y-125734800D01*
X103820700Y-129159000D02*
X103820700Y-125734800D01*
X104996000Y-129159000D02*
X103820700Y-129159000D01*
X97028000Y-122047000D02*
X98203300Y-122047000D01*
X90951000Y-132011700D02*
X90951000Y-131734700D01*
X90951000Y-133087000D02*
X90951000Y-132011700D01*
X104996000Y-137795000D02*
X103820700Y-137795000D01*
X102806800Y-137732100D02*
X103757800Y-137732100D01*
X103757800Y-137732100D02*
X103820700Y-137795000D01*
X110792700Y-135876500D02*
X110792700Y-134467800D01*
X110792700Y-134467800D02*
X109141100Y-132816200D01*
X109141100Y-132816200D02*
X107645600Y-132816200D01*
X107645600Y-132816200D02*
X106171300Y-131341900D01*
X106171300Y-131341900D02*
X106171300Y-130429000D01*
X106171300Y-139065000D02*
X107522900Y-137713400D01*
X107522900Y-137713400D02*
X108955800Y-137713400D01*
X108955800Y-137713400D02*
X110792700Y-135876500D01*
X117041300Y-130175000D02*
X117041300Y-136303400D01*
X117041300Y-136303400D02*
X116817800Y-136526900D01*
X116817800Y-136526900D02*
X111443100Y-136526900D01*
X111443100Y-136526900D02*
X110792700Y-135876500D01*
X115841000Y-130175000D02*
X117041300Y-130175000D01*
X104996000Y-130429000D02*
X103820700Y-130429000D01*
X94488000Y-122047000D02*
X95663300Y-122047000D01*
X95663300Y-122047000D02*
X95663300Y-122362600D01*
X95663300Y-122362600D02*
X96523000Y-123222300D01*
X96523000Y-123222300D02*
X96614000Y-123222300D01*
X96614000Y-123222300D02*
X103820700Y-130429000D01*
X104996000Y-130429000D02*
X106171300Y-130429000D01*
X104996000Y-139065000D02*
X106171300Y-139065000D01*
X91751000Y-133087000D02*
X91751000Y-131507900D01*
X91751000Y-131507900D02*
X91034900Y-130791800D01*
X91034900Y-130791800D02*
X90145800Y-130791800D01*
X96520700Y-126619000D02*
X96070400Y-127069300D01*
X96070400Y-127069300D02*
X96070400Y-131162800D01*
X96070400Y-131162800D02*
X96814600Y-131907000D01*
X96814600Y-131907000D02*
X96814600Y-135255000D01*
X97696000Y-126619000D02*
X96520700Y-126619000D01*
X96814600Y-135255000D02*
X96520700Y-135255000D01*
X97696000Y-135255000D02*
X96814600Y-135255000D01*
X94751000Y-135287000D02*
X96488700Y-135287000D01*
X96488700Y-135287000D02*
X96520700Y-135255000D01*
X97696000Y-127889000D02*
X98871300Y-127889000D01*
X94751000Y-134487000D02*
X95826300Y-134487000D01*
X95826300Y-134487000D02*
X95826300Y-134031700D01*
X95826300Y-134031700D02*
X95593800Y-133799200D01*
X95593800Y-133799200D02*
X95593800Y-126842800D01*
X95593800Y-126842800D02*
X96520500Y-125916100D01*
X96520500Y-125916100D02*
X98637000Y-125916100D01*
X98637000Y-125916100D02*
X98871300Y-126150400D01*
X98871300Y-126150400D02*
X98871300Y-127889000D01*
X97696000Y-136525000D02*
X98871300Y-136525000D01*
X97696000Y-127889000D02*
X96520700Y-127889000D01*
X96520700Y-127889000D02*
X96520700Y-130976100D01*
X96520700Y-130976100D02*
X98871300Y-133326700D01*
X98871300Y-133326700D02*
X98871300Y-136525000D01*
X112574000Y-135255000D02*
X112574000Y-131079000D01*
X112574000Y-131079000D02*
X109765000Y-128270000D01*
X109765000Y-128270000D02*
X107406700Y-128270000D01*
X107406700Y-128270000D02*
X107240700Y-128104000D01*
X107240700Y-128104000D02*
X107240700Y-126365000D01*
X108441000Y-126365000D02*
X107240700Y-126365000D01*
X115824000Y-134029700D02*
X115824000Y-133692100D01*
X115824000Y-133692100D02*
X109766900Y-127635000D01*
X109766900Y-127635000D02*
X109641300Y-127635000D01*
X108441000Y-127635000D02*
X109641300Y-127635000D01*
X115824000Y-135255000D02*
X115824000Y-134029700D01*
M02*
