G04 #@! TF.GenerationSoftware,KiCad,Pcbnew,(5.1.4)-1*
G04 #@! TF.CreationDate,2019-10-17T13:45:54+02:00*
G04 #@! TF.ProjectId,Project3_ArduinoClone,50726f6a-6563-4743-935f-41726475696e,v1*
G04 #@! TF.SameCoordinates,Original*
G04 #@! TF.FileFunction,Soldermask,Bot*
G04 #@! TF.FilePolarity,Negative*
%FSLAX46Y46*%
G04 Gerber Fmt 4.6, Leading zero omitted, Abs format (unit mm)*
G04 Created by KiCad (PCBNEW (5.1.4)-1) date 2019-10-17 13:45:54*
%MOMM*%
%LPD*%
G04 APERTURE LIST*
%ADD10C,0.100000*%
G04 APERTURE END LIST*
D10*
G36*
X91042442Y-143758518D02*
G01*
X91108627Y-143765037D01*
X91278466Y-143816557D01*
X91434991Y-143900222D01*
X91470729Y-143929552D01*
X91572186Y-144012814D01*
X91655448Y-144114271D01*
X91684778Y-144150009D01*
X91768443Y-144306534D01*
X91819963Y-144476373D01*
X91837359Y-144653000D01*
X91819963Y-144829627D01*
X91768443Y-144999466D01*
X91684778Y-145155991D01*
X91655448Y-145191729D01*
X91572186Y-145293186D01*
X91470729Y-145376448D01*
X91434991Y-145405778D01*
X91278466Y-145489443D01*
X91108627Y-145540963D01*
X91042443Y-145547481D01*
X90976260Y-145554000D01*
X90887740Y-145554000D01*
X90821557Y-145547481D01*
X90755373Y-145540963D01*
X90585534Y-145489443D01*
X90429009Y-145405778D01*
X90393271Y-145376448D01*
X90291814Y-145293186D01*
X90208552Y-145191729D01*
X90179222Y-145155991D01*
X90095557Y-144999466D01*
X90044037Y-144829627D01*
X90026641Y-144653000D01*
X90044037Y-144476373D01*
X90095557Y-144306534D01*
X90179222Y-144150009D01*
X90208552Y-144114271D01*
X90291814Y-144012814D01*
X90393271Y-143929552D01*
X90429009Y-143900222D01*
X90585534Y-143816557D01*
X90755373Y-143765037D01*
X90821558Y-143758518D01*
X90887740Y-143752000D01*
X90976260Y-143752000D01*
X91042442Y-143758518D01*
X91042442Y-143758518D01*
G37*
G36*
X89293000Y-145554000D02*
G01*
X87491000Y-145554000D01*
X87491000Y-143752000D01*
X89293000Y-143752000D01*
X89293000Y-145554000D01*
X89293000Y-145554000D01*
G37*
G36*
X93582442Y-143758518D02*
G01*
X93648627Y-143765037D01*
X93818466Y-143816557D01*
X93974991Y-143900222D01*
X94010729Y-143929552D01*
X94112186Y-144012814D01*
X94195448Y-144114271D01*
X94224778Y-144150009D01*
X94308443Y-144306534D01*
X94359963Y-144476373D01*
X94377359Y-144653000D01*
X94359963Y-144829627D01*
X94308443Y-144999466D01*
X94224778Y-145155991D01*
X94195448Y-145191729D01*
X94112186Y-145293186D01*
X94010729Y-145376448D01*
X93974991Y-145405778D01*
X93818466Y-145489443D01*
X93648627Y-145540963D01*
X93582443Y-145547481D01*
X93516260Y-145554000D01*
X93427740Y-145554000D01*
X93361557Y-145547481D01*
X93295373Y-145540963D01*
X93125534Y-145489443D01*
X92969009Y-145405778D01*
X92933271Y-145376448D01*
X92831814Y-145293186D01*
X92748552Y-145191729D01*
X92719222Y-145155991D01*
X92635557Y-144999466D01*
X92584037Y-144829627D01*
X92566641Y-144653000D01*
X92584037Y-144476373D01*
X92635557Y-144306534D01*
X92719222Y-144150009D01*
X92748552Y-144114271D01*
X92831814Y-144012814D01*
X92933271Y-143929552D01*
X92969009Y-143900222D01*
X93125534Y-143816557D01*
X93295373Y-143765037D01*
X93361558Y-143758518D01*
X93427740Y-143752000D01*
X93516260Y-143752000D01*
X93582442Y-143758518D01*
X93582442Y-143758518D01*
G37*
G36*
X96122442Y-143758518D02*
G01*
X96188627Y-143765037D01*
X96358466Y-143816557D01*
X96514991Y-143900222D01*
X96550729Y-143929552D01*
X96652186Y-144012814D01*
X96735448Y-144114271D01*
X96764778Y-144150009D01*
X96848443Y-144306534D01*
X96899963Y-144476373D01*
X96917359Y-144653000D01*
X96899963Y-144829627D01*
X96848443Y-144999466D01*
X96764778Y-145155991D01*
X96735448Y-145191729D01*
X96652186Y-145293186D01*
X96550729Y-145376448D01*
X96514991Y-145405778D01*
X96358466Y-145489443D01*
X96188627Y-145540963D01*
X96122443Y-145547481D01*
X96056260Y-145554000D01*
X95967740Y-145554000D01*
X95901557Y-145547481D01*
X95835373Y-145540963D01*
X95665534Y-145489443D01*
X95509009Y-145405778D01*
X95473271Y-145376448D01*
X95371814Y-145293186D01*
X95288552Y-145191729D01*
X95259222Y-145155991D01*
X95175557Y-144999466D01*
X95124037Y-144829627D01*
X95106641Y-144653000D01*
X95124037Y-144476373D01*
X95175557Y-144306534D01*
X95259222Y-144150009D01*
X95288552Y-144114271D01*
X95371814Y-144012814D01*
X95473271Y-143929552D01*
X95509009Y-143900222D01*
X95665534Y-143816557D01*
X95835373Y-143765037D01*
X95901558Y-143758518D01*
X95967740Y-143752000D01*
X96056260Y-143752000D01*
X96122442Y-143758518D01*
X96122442Y-143758518D01*
G37*
G36*
X98662442Y-143758518D02*
G01*
X98728627Y-143765037D01*
X98898466Y-143816557D01*
X99054991Y-143900222D01*
X99090729Y-143929552D01*
X99192186Y-144012814D01*
X99275448Y-144114271D01*
X99304778Y-144150009D01*
X99388443Y-144306534D01*
X99439963Y-144476373D01*
X99457359Y-144653000D01*
X99439963Y-144829627D01*
X99388443Y-144999466D01*
X99304778Y-145155991D01*
X99275448Y-145191729D01*
X99192186Y-145293186D01*
X99090729Y-145376448D01*
X99054991Y-145405778D01*
X98898466Y-145489443D01*
X98728627Y-145540963D01*
X98662443Y-145547481D01*
X98596260Y-145554000D01*
X98507740Y-145554000D01*
X98441557Y-145547481D01*
X98375373Y-145540963D01*
X98205534Y-145489443D01*
X98049009Y-145405778D01*
X98013271Y-145376448D01*
X97911814Y-145293186D01*
X97828552Y-145191729D01*
X97799222Y-145155991D01*
X97715557Y-144999466D01*
X97664037Y-144829627D01*
X97646641Y-144653000D01*
X97664037Y-144476373D01*
X97715557Y-144306534D01*
X97799222Y-144150009D01*
X97828552Y-144114271D01*
X97911814Y-144012814D01*
X98013271Y-143929552D01*
X98049009Y-143900222D01*
X98205534Y-143816557D01*
X98375373Y-143765037D01*
X98441558Y-143758518D01*
X98507740Y-143752000D01*
X98596260Y-143752000D01*
X98662442Y-143758518D01*
X98662442Y-143758518D01*
G37*
G36*
X101202442Y-143758518D02*
G01*
X101268627Y-143765037D01*
X101438466Y-143816557D01*
X101594991Y-143900222D01*
X101630729Y-143929552D01*
X101732186Y-144012814D01*
X101815448Y-144114271D01*
X101844778Y-144150009D01*
X101928443Y-144306534D01*
X101979963Y-144476373D01*
X101997359Y-144653000D01*
X101979963Y-144829627D01*
X101928443Y-144999466D01*
X101844778Y-145155991D01*
X101815448Y-145191729D01*
X101732186Y-145293186D01*
X101630729Y-145376448D01*
X101594991Y-145405778D01*
X101438466Y-145489443D01*
X101268627Y-145540963D01*
X101202443Y-145547481D01*
X101136260Y-145554000D01*
X101047740Y-145554000D01*
X100981557Y-145547481D01*
X100915373Y-145540963D01*
X100745534Y-145489443D01*
X100589009Y-145405778D01*
X100553271Y-145376448D01*
X100451814Y-145293186D01*
X100368552Y-145191729D01*
X100339222Y-145155991D01*
X100255557Y-144999466D01*
X100204037Y-144829627D01*
X100186641Y-144653000D01*
X100204037Y-144476373D01*
X100255557Y-144306534D01*
X100339222Y-144150009D01*
X100368552Y-144114271D01*
X100451814Y-144012814D01*
X100553271Y-143929552D01*
X100589009Y-143900222D01*
X100745534Y-143816557D01*
X100915373Y-143765037D01*
X100981558Y-143758518D01*
X101047740Y-143752000D01*
X101136260Y-143752000D01*
X101202442Y-143758518D01*
X101202442Y-143758518D01*
G37*
G36*
X108822442Y-143758518D02*
G01*
X108888627Y-143765037D01*
X109058466Y-143816557D01*
X109214991Y-143900222D01*
X109250729Y-143929552D01*
X109352186Y-144012814D01*
X109435448Y-144114271D01*
X109464778Y-144150009D01*
X109548443Y-144306534D01*
X109599963Y-144476373D01*
X109617359Y-144653000D01*
X109599963Y-144829627D01*
X109548443Y-144999466D01*
X109464778Y-145155991D01*
X109435448Y-145191729D01*
X109352186Y-145293186D01*
X109250729Y-145376448D01*
X109214991Y-145405778D01*
X109058466Y-145489443D01*
X108888627Y-145540963D01*
X108822443Y-145547481D01*
X108756260Y-145554000D01*
X108667740Y-145554000D01*
X108601557Y-145547481D01*
X108535373Y-145540963D01*
X108365534Y-145489443D01*
X108209009Y-145405778D01*
X108173271Y-145376448D01*
X108071814Y-145293186D01*
X107988552Y-145191729D01*
X107959222Y-145155991D01*
X107875557Y-144999466D01*
X107824037Y-144829627D01*
X107806641Y-144653000D01*
X107824037Y-144476373D01*
X107875557Y-144306534D01*
X107959222Y-144150009D01*
X107988552Y-144114271D01*
X108071814Y-144012814D01*
X108173271Y-143929552D01*
X108209009Y-143900222D01*
X108365534Y-143816557D01*
X108535373Y-143765037D01*
X108601558Y-143758518D01*
X108667740Y-143752000D01*
X108756260Y-143752000D01*
X108822442Y-143758518D01*
X108822442Y-143758518D01*
G37*
G36*
X103742442Y-143758518D02*
G01*
X103808627Y-143765037D01*
X103978466Y-143816557D01*
X104134991Y-143900222D01*
X104170729Y-143929552D01*
X104272186Y-144012814D01*
X104355448Y-144114271D01*
X104384778Y-144150009D01*
X104468443Y-144306534D01*
X104519963Y-144476373D01*
X104537359Y-144653000D01*
X104519963Y-144829627D01*
X104468443Y-144999466D01*
X104384778Y-145155991D01*
X104355448Y-145191729D01*
X104272186Y-145293186D01*
X104170729Y-145376448D01*
X104134991Y-145405778D01*
X103978466Y-145489443D01*
X103808627Y-145540963D01*
X103742443Y-145547481D01*
X103676260Y-145554000D01*
X103587740Y-145554000D01*
X103521557Y-145547481D01*
X103455373Y-145540963D01*
X103285534Y-145489443D01*
X103129009Y-145405778D01*
X103093271Y-145376448D01*
X102991814Y-145293186D01*
X102908552Y-145191729D01*
X102879222Y-145155991D01*
X102795557Y-144999466D01*
X102744037Y-144829627D01*
X102726641Y-144653000D01*
X102744037Y-144476373D01*
X102795557Y-144306534D01*
X102879222Y-144150009D01*
X102908552Y-144114271D01*
X102991814Y-144012814D01*
X103093271Y-143929552D01*
X103129009Y-143900222D01*
X103285534Y-143816557D01*
X103455373Y-143765037D01*
X103521558Y-143758518D01*
X103587740Y-143752000D01*
X103676260Y-143752000D01*
X103742442Y-143758518D01*
X103742442Y-143758518D01*
G37*
G36*
X106282442Y-143758518D02*
G01*
X106348627Y-143765037D01*
X106518466Y-143816557D01*
X106674991Y-143900222D01*
X106710729Y-143929552D01*
X106812186Y-144012814D01*
X106895448Y-144114271D01*
X106924778Y-144150009D01*
X107008443Y-144306534D01*
X107059963Y-144476373D01*
X107077359Y-144653000D01*
X107059963Y-144829627D01*
X107008443Y-144999466D01*
X106924778Y-145155991D01*
X106895448Y-145191729D01*
X106812186Y-145293186D01*
X106710729Y-145376448D01*
X106674991Y-145405778D01*
X106518466Y-145489443D01*
X106348627Y-145540963D01*
X106282443Y-145547481D01*
X106216260Y-145554000D01*
X106127740Y-145554000D01*
X106061557Y-145547481D01*
X105995373Y-145540963D01*
X105825534Y-145489443D01*
X105669009Y-145405778D01*
X105633271Y-145376448D01*
X105531814Y-145293186D01*
X105448552Y-145191729D01*
X105419222Y-145155991D01*
X105335557Y-144999466D01*
X105284037Y-144829627D01*
X105266641Y-144653000D01*
X105284037Y-144476373D01*
X105335557Y-144306534D01*
X105419222Y-144150009D01*
X105448552Y-144114271D01*
X105531814Y-144012814D01*
X105633271Y-143929552D01*
X105669009Y-143900222D01*
X105825534Y-143816557D01*
X105995373Y-143765037D01*
X106061558Y-143758518D01*
X106127740Y-143752000D01*
X106216260Y-143752000D01*
X106282442Y-143758518D01*
X106282442Y-143758518D01*
G37*
G36*
X79612442Y-139059518D02*
G01*
X79678627Y-139066037D01*
X79848466Y-139117557D01*
X80004991Y-139201222D01*
X80040729Y-139230552D01*
X80142186Y-139313814D01*
X80225448Y-139415271D01*
X80254778Y-139451009D01*
X80338443Y-139607534D01*
X80389963Y-139777373D01*
X80407359Y-139954000D01*
X80389963Y-140130627D01*
X80338443Y-140300466D01*
X80254778Y-140456991D01*
X80225448Y-140492729D01*
X80142186Y-140594186D01*
X80040729Y-140677448D01*
X80004991Y-140706778D01*
X79848466Y-140790443D01*
X79678627Y-140841963D01*
X79612443Y-140848481D01*
X79546260Y-140855000D01*
X79457740Y-140855000D01*
X79391557Y-140848481D01*
X79325373Y-140841963D01*
X79155534Y-140790443D01*
X78999009Y-140706778D01*
X78963271Y-140677448D01*
X78861814Y-140594186D01*
X78778552Y-140492729D01*
X78749222Y-140456991D01*
X78665557Y-140300466D01*
X78614037Y-140130627D01*
X78596641Y-139954000D01*
X78614037Y-139777373D01*
X78665557Y-139607534D01*
X78749222Y-139451009D01*
X78778552Y-139415271D01*
X78861814Y-139313814D01*
X78963271Y-139230552D01*
X78999009Y-139201222D01*
X79155534Y-139117557D01*
X79325373Y-139066037D01*
X79391558Y-139059518D01*
X79457740Y-139053000D01*
X79546260Y-139053000D01*
X79612442Y-139059518D01*
X79612442Y-139059518D01*
G37*
G36*
X82152442Y-139059518D02*
G01*
X82218627Y-139066037D01*
X82388466Y-139117557D01*
X82544991Y-139201222D01*
X82580729Y-139230552D01*
X82682186Y-139313814D01*
X82765448Y-139415271D01*
X82794778Y-139451009D01*
X82878443Y-139607534D01*
X82929963Y-139777373D01*
X82947359Y-139954000D01*
X82929963Y-140130627D01*
X82878443Y-140300466D01*
X82794778Y-140456991D01*
X82765448Y-140492729D01*
X82682186Y-140594186D01*
X82580729Y-140677448D01*
X82544991Y-140706778D01*
X82388466Y-140790443D01*
X82218627Y-140841963D01*
X82152443Y-140848481D01*
X82086260Y-140855000D01*
X81997740Y-140855000D01*
X81931557Y-140848481D01*
X81865373Y-140841963D01*
X81695534Y-140790443D01*
X81539009Y-140706778D01*
X81503271Y-140677448D01*
X81401814Y-140594186D01*
X81318552Y-140492729D01*
X81289222Y-140456991D01*
X81205557Y-140300466D01*
X81154037Y-140130627D01*
X81136641Y-139954000D01*
X81154037Y-139777373D01*
X81205557Y-139607534D01*
X81289222Y-139451009D01*
X81318552Y-139415271D01*
X81401814Y-139313814D01*
X81503271Y-139230552D01*
X81539009Y-139201222D01*
X81695534Y-139117557D01*
X81865373Y-139066037D01*
X81931558Y-139059518D01*
X81997740Y-139053000D01*
X82086260Y-139053000D01*
X82152442Y-139059518D01*
X82152442Y-139059518D01*
G37*
G36*
X82152442Y-136519518D02*
G01*
X82218627Y-136526037D01*
X82388466Y-136577557D01*
X82544991Y-136661222D01*
X82580729Y-136690552D01*
X82682186Y-136773814D01*
X82765448Y-136875271D01*
X82794778Y-136911009D01*
X82878443Y-137067534D01*
X82929963Y-137237373D01*
X82947359Y-137414000D01*
X82929963Y-137590627D01*
X82878443Y-137760466D01*
X82794778Y-137916991D01*
X82765448Y-137952729D01*
X82682186Y-138054186D01*
X82580729Y-138137448D01*
X82544991Y-138166778D01*
X82388466Y-138250443D01*
X82218627Y-138301963D01*
X82152442Y-138308482D01*
X82086260Y-138315000D01*
X81997740Y-138315000D01*
X81931558Y-138308482D01*
X81865373Y-138301963D01*
X81695534Y-138250443D01*
X81539009Y-138166778D01*
X81503271Y-138137448D01*
X81401814Y-138054186D01*
X81318552Y-137952729D01*
X81289222Y-137916991D01*
X81205557Y-137760466D01*
X81154037Y-137590627D01*
X81136641Y-137414000D01*
X81154037Y-137237373D01*
X81205557Y-137067534D01*
X81289222Y-136911009D01*
X81318552Y-136875271D01*
X81401814Y-136773814D01*
X81503271Y-136690552D01*
X81539009Y-136661222D01*
X81695534Y-136577557D01*
X81865373Y-136526037D01*
X81931558Y-136519518D01*
X81997740Y-136513000D01*
X82086260Y-136513000D01*
X82152442Y-136519518D01*
X82152442Y-136519518D01*
G37*
G36*
X79612442Y-136519518D02*
G01*
X79678627Y-136526037D01*
X79848466Y-136577557D01*
X80004991Y-136661222D01*
X80040729Y-136690552D01*
X80142186Y-136773814D01*
X80225448Y-136875271D01*
X80254778Y-136911009D01*
X80338443Y-137067534D01*
X80389963Y-137237373D01*
X80407359Y-137414000D01*
X80389963Y-137590627D01*
X80338443Y-137760466D01*
X80254778Y-137916991D01*
X80225448Y-137952729D01*
X80142186Y-138054186D01*
X80040729Y-138137448D01*
X80004991Y-138166778D01*
X79848466Y-138250443D01*
X79678627Y-138301963D01*
X79612442Y-138308482D01*
X79546260Y-138315000D01*
X79457740Y-138315000D01*
X79391558Y-138308482D01*
X79325373Y-138301963D01*
X79155534Y-138250443D01*
X78999009Y-138166778D01*
X78963271Y-138137448D01*
X78861814Y-138054186D01*
X78778552Y-137952729D01*
X78749222Y-137916991D01*
X78665557Y-137760466D01*
X78614037Y-137590627D01*
X78596641Y-137414000D01*
X78614037Y-137237373D01*
X78665557Y-137067534D01*
X78749222Y-136911009D01*
X78778552Y-136875271D01*
X78861814Y-136773814D01*
X78963271Y-136690552D01*
X78999009Y-136661222D01*
X79155534Y-136577557D01*
X79325373Y-136526037D01*
X79391558Y-136519518D01*
X79457740Y-136513000D01*
X79546260Y-136513000D01*
X79612442Y-136519518D01*
X79612442Y-136519518D01*
G37*
G36*
X82943000Y-135775000D02*
G01*
X81141000Y-135775000D01*
X81141000Y-133973000D01*
X82943000Y-133973000D01*
X82943000Y-135775000D01*
X82943000Y-135775000D01*
G37*
G36*
X79612443Y-133979519D02*
G01*
X79678627Y-133986037D01*
X79848466Y-134037557D01*
X80004991Y-134121222D01*
X80040729Y-134150552D01*
X80142186Y-134233814D01*
X80225448Y-134335271D01*
X80254778Y-134371009D01*
X80338443Y-134527534D01*
X80389963Y-134697373D01*
X80407359Y-134874000D01*
X80389963Y-135050627D01*
X80338443Y-135220466D01*
X80254778Y-135376991D01*
X80225448Y-135412729D01*
X80142186Y-135514186D01*
X80040729Y-135597448D01*
X80004991Y-135626778D01*
X79848466Y-135710443D01*
X79678627Y-135761963D01*
X79612442Y-135768482D01*
X79546260Y-135775000D01*
X79457740Y-135775000D01*
X79391558Y-135768482D01*
X79325373Y-135761963D01*
X79155534Y-135710443D01*
X78999009Y-135626778D01*
X78963271Y-135597448D01*
X78861814Y-135514186D01*
X78778552Y-135412729D01*
X78749222Y-135376991D01*
X78665557Y-135220466D01*
X78614037Y-135050627D01*
X78596641Y-134874000D01*
X78614037Y-134697373D01*
X78665557Y-134527534D01*
X78749222Y-134371009D01*
X78778552Y-134335271D01*
X78861814Y-134233814D01*
X78963271Y-134150552D01*
X78999009Y-134121222D01*
X79155534Y-134037557D01*
X79325373Y-133986037D01*
X79391557Y-133979519D01*
X79457740Y-133973000D01*
X79546260Y-133973000D01*
X79612443Y-133979519D01*
X79612443Y-133979519D01*
G37*
G36*
X79612443Y-129407519D02*
G01*
X79678627Y-129414037D01*
X79848466Y-129465557D01*
X80004991Y-129549222D01*
X80040729Y-129578552D01*
X80142186Y-129661814D01*
X80225448Y-129763271D01*
X80254778Y-129799009D01*
X80338443Y-129955534D01*
X80389963Y-130125373D01*
X80407359Y-130302000D01*
X80389963Y-130478627D01*
X80338443Y-130648466D01*
X80254778Y-130804991D01*
X80225448Y-130840729D01*
X80142186Y-130942186D01*
X80040729Y-131025448D01*
X80004991Y-131054778D01*
X79848466Y-131138443D01*
X79678627Y-131189963D01*
X79612442Y-131196482D01*
X79546260Y-131203000D01*
X79457740Y-131203000D01*
X79391558Y-131196482D01*
X79325373Y-131189963D01*
X79155534Y-131138443D01*
X78999009Y-131054778D01*
X78963271Y-131025448D01*
X78861814Y-130942186D01*
X78778552Y-130840729D01*
X78749222Y-130804991D01*
X78665557Y-130648466D01*
X78614037Y-130478627D01*
X78596641Y-130302000D01*
X78614037Y-130125373D01*
X78665557Y-129955534D01*
X78749222Y-129799009D01*
X78778552Y-129763271D01*
X78861814Y-129661814D01*
X78963271Y-129578552D01*
X78999009Y-129549222D01*
X79155534Y-129465557D01*
X79325373Y-129414037D01*
X79391557Y-129407519D01*
X79457740Y-129401000D01*
X79546260Y-129401000D01*
X79612443Y-129407519D01*
X79612443Y-129407519D01*
G37*
G36*
X80403000Y-128663000D02*
G01*
X78601000Y-128663000D01*
X78601000Y-126861000D01*
X80403000Y-126861000D01*
X80403000Y-128663000D01*
X80403000Y-128663000D01*
G37*
G36*
X90309000Y-122948000D02*
G01*
X88507000Y-122948000D01*
X88507000Y-121146000D01*
X90309000Y-121146000D01*
X90309000Y-122948000D01*
X90309000Y-122948000D01*
G37*
G36*
X92058443Y-121152519D02*
G01*
X92124627Y-121159037D01*
X92294466Y-121210557D01*
X92450991Y-121294222D01*
X92486729Y-121323552D01*
X92588186Y-121406814D01*
X92671448Y-121508271D01*
X92700778Y-121544009D01*
X92784443Y-121700534D01*
X92835963Y-121870373D01*
X92853359Y-122047000D01*
X92835963Y-122223627D01*
X92784443Y-122393466D01*
X92700778Y-122549991D01*
X92692411Y-122560186D01*
X92588186Y-122687186D01*
X92486729Y-122770448D01*
X92450991Y-122799778D01*
X92294466Y-122883443D01*
X92124627Y-122934963D01*
X92058442Y-122941482D01*
X91992260Y-122948000D01*
X91903740Y-122948000D01*
X91837558Y-122941482D01*
X91771373Y-122934963D01*
X91601534Y-122883443D01*
X91445009Y-122799778D01*
X91409271Y-122770448D01*
X91307814Y-122687186D01*
X91203589Y-122560186D01*
X91195222Y-122549991D01*
X91111557Y-122393466D01*
X91060037Y-122223627D01*
X91042641Y-122047000D01*
X91060037Y-121870373D01*
X91111557Y-121700534D01*
X91195222Y-121544009D01*
X91224552Y-121508271D01*
X91307814Y-121406814D01*
X91409271Y-121323552D01*
X91445009Y-121294222D01*
X91601534Y-121210557D01*
X91771373Y-121159037D01*
X91837557Y-121152519D01*
X91903740Y-121146000D01*
X91992260Y-121146000D01*
X92058443Y-121152519D01*
X92058443Y-121152519D01*
G37*
G36*
X94598443Y-121152519D02*
G01*
X94664627Y-121159037D01*
X94834466Y-121210557D01*
X94990991Y-121294222D01*
X95026729Y-121323552D01*
X95128186Y-121406814D01*
X95211448Y-121508271D01*
X95240778Y-121544009D01*
X95324443Y-121700534D01*
X95375963Y-121870373D01*
X95393359Y-122047000D01*
X95375963Y-122223627D01*
X95324443Y-122393466D01*
X95240778Y-122549991D01*
X95232411Y-122560186D01*
X95128186Y-122687186D01*
X95026729Y-122770448D01*
X94990991Y-122799778D01*
X94834466Y-122883443D01*
X94664627Y-122934963D01*
X94598442Y-122941482D01*
X94532260Y-122948000D01*
X94443740Y-122948000D01*
X94377558Y-122941482D01*
X94311373Y-122934963D01*
X94141534Y-122883443D01*
X93985009Y-122799778D01*
X93949271Y-122770448D01*
X93847814Y-122687186D01*
X93743589Y-122560186D01*
X93735222Y-122549991D01*
X93651557Y-122393466D01*
X93600037Y-122223627D01*
X93582641Y-122047000D01*
X93600037Y-121870373D01*
X93651557Y-121700534D01*
X93735222Y-121544009D01*
X93764552Y-121508271D01*
X93847814Y-121406814D01*
X93949271Y-121323552D01*
X93985009Y-121294222D01*
X94141534Y-121210557D01*
X94311373Y-121159037D01*
X94377557Y-121152519D01*
X94443740Y-121146000D01*
X94532260Y-121146000D01*
X94598443Y-121152519D01*
X94598443Y-121152519D01*
G37*
G36*
X97138443Y-121152519D02*
G01*
X97204627Y-121159037D01*
X97374466Y-121210557D01*
X97530991Y-121294222D01*
X97566729Y-121323552D01*
X97668186Y-121406814D01*
X97751448Y-121508271D01*
X97780778Y-121544009D01*
X97864443Y-121700534D01*
X97915963Y-121870373D01*
X97933359Y-122047000D01*
X97915963Y-122223627D01*
X97864443Y-122393466D01*
X97780778Y-122549991D01*
X97772411Y-122560186D01*
X97668186Y-122687186D01*
X97566729Y-122770448D01*
X97530991Y-122799778D01*
X97374466Y-122883443D01*
X97204627Y-122934963D01*
X97138442Y-122941482D01*
X97072260Y-122948000D01*
X96983740Y-122948000D01*
X96917558Y-122941482D01*
X96851373Y-122934963D01*
X96681534Y-122883443D01*
X96525009Y-122799778D01*
X96489271Y-122770448D01*
X96387814Y-122687186D01*
X96283589Y-122560186D01*
X96275222Y-122549991D01*
X96191557Y-122393466D01*
X96140037Y-122223627D01*
X96122641Y-122047000D01*
X96140037Y-121870373D01*
X96191557Y-121700534D01*
X96275222Y-121544009D01*
X96304552Y-121508271D01*
X96387814Y-121406814D01*
X96489271Y-121323552D01*
X96525009Y-121294222D01*
X96681534Y-121210557D01*
X96851373Y-121159037D01*
X96917557Y-121152519D01*
X96983740Y-121146000D01*
X97072260Y-121146000D01*
X97138443Y-121152519D01*
X97138443Y-121152519D01*
G37*
G36*
X111870442Y-121025518D02*
G01*
X111936627Y-121032037D01*
X112106466Y-121083557D01*
X112262991Y-121167222D01*
X112298729Y-121196552D01*
X112400186Y-121279814D01*
X112483448Y-121381271D01*
X112512778Y-121417009D01*
X112596443Y-121573534D01*
X112647963Y-121743373D01*
X112665359Y-121920000D01*
X112647963Y-122096627D01*
X112596443Y-122266466D01*
X112512778Y-122422991D01*
X112483448Y-122458729D01*
X112400186Y-122560186D01*
X112298729Y-122643448D01*
X112262991Y-122672778D01*
X112106466Y-122756443D01*
X111936627Y-122807963D01*
X111870443Y-122814481D01*
X111804260Y-122821000D01*
X111715740Y-122821000D01*
X111649557Y-122814481D01*
X111583373Y-122807963D01*
X111413534Y-122756443D01*
X111257009Y-122672778D01*
X111221271Y-122643448D01*
X111119814Y-122560186D01*
X111036552Y-122458729D01*
X111007222Y-122422991D01*
X110923557Y-122266466D01*
X110872037Y-122096627D01*
X110854641Y-121920000D01*
X110872037Y-121743373D01*
X110923557Y-121573534D01*
X111007222Y-121417009D01*
X111036552Y-121381271D01*
X111119814Y-121279814D01*
X111221271Y-121196552D01*
X111257009Y-121167222D01*
X111413534Y-121083557D01*
X111583373Y-121032037D01*
X111649558Y-121025518D01*
X111715740Y-121019000D01*
X111804260Y-121019000D01*
X111870442Y-121025518D01*
X111870442Y-121025518D01*
G37*
G36*
X109330442Y-121025518D02*
G01*
X109396627Y-121032037D01*
X109566466Y-121083557D01*
X109722991Y-121167222D01*
X109758729Y-121196552D01*
X109860186Y-121279814D01*
X109943448Y-121381271D01*
X109972778Y-121417009D01*
X110056443Y-121573534D01*
X110107963Y-121743373D01*
X110125359Y-121920000D01*
X110107963Y-122096627D01*
X110056443Y-122266466D01*
X109972778Y-122422991D01*
X109943448Y-122458729D01*
X109860186Y-122560186D01*
X109758729Y-122643448D01*
X109722991Y-122672778D01*
X109566466Y-122756443D01*
X109396627Y-122807963D01*
X109330443Y-122814481D01*
X109264260Y-122821000D01*
X109175740Y-122821000D01*
X109109557Y-122814481D01*
X109043373Y-122807963D01*
X108873534Y-122756443D01*
X108717009Y-122672778D01*
X108681271Y-122643448D01*
X108579814Y-122560186D01*
X108496552Y-122458729D01*
X108467222Y-122422991D01*
X108383557Y-122266466D01*
X108332037Y-122096627D01*
X108314641Y-121920000D01*
X108332037Y-121743373D01*
X108383557Y-121573534D01*
X108467222Y-121417009D01*
X108496552Y-121381271D01*
X108579814Y-121279814D01*
X108681271Y-121196552D01*
X108717009Y-121167222D01*
X108873534Y-121083557D01*
X109043373Y-121032037D01*
X109109558Y-121025518D01*
X109175740Y-121019000D01*
X109264260Y-121019000D01*
X109330442Y-121025518D01*
X109330442Y-121025518D01*
G37*
G36*
X106790442Y-121025518D02*
G01*
X106856627Y-121032037D01*
X107026466Y-121083557D01*
X107182991Y-121167222D01*
X107218729Y-121196552D01*
X107320186Y-121279814D01*
X107403448Y-121381271D01*
X107432778Y-121417009D01*
X107516443Y-121573534D01*
X107567963Y-121743373D01*
X107585359Y-121920000D01*
X107567963Y-122096627D01*
X107516443Y-122266466D01*
X107432778Y-122422991D01*
X107403448Y-122458729D01*
X107320186Y-122560186D01*
X107218729Y-122643448D01*
X107182991Y-122672778D01*
X107026466Y-122756443D01*
X106856627Y-122807963D01*
X106790443Y-122814481D01*
X106724260Y-122821000D01*
X106635740Y-122821000D01*
X106569557Y-122814481D01*
X106503373Y-122807963D01*
X106333534Y-122756443D01*
X106177009Y-122672778D01*
X106141271Y-122643448D01*
X106039814Y-122560186D01*
X105956552Y-122458729D01*
X105927222Y-122422991D01*
X105843557Y-122266466D01*
X105792037Y-122096627D01*
X105774641Y-121920000D01*
X105792037Y-121743373D01*
X105843557Y-121573534D01*
X105927222Y-121417009D01*
X105956552Y-121381271D01*
X106039814Y-121279814D01*
X106141271Y-121196552D01*
X106177009Y-121167222D01*
X106333534Y-121083557D01*
X106503373Y-121032037D01*
X106569558Y-121025518D01*
X106635740Y-121019000D01*
X106724260Y-121019000D01*
X106790442Y-121025518D01*
X106790442Y-121025518D01*
G37*
G36*
X105041000Y-122821000D02*
G01*
X103239000Y-122821000D01*
X103239000Y-121019000D01*
X105041000Y-121019000D01*
X105041000Y-122821000D01*
X105041000Y-122821000D01*
G37*
M02*
