M48
; DRILL file {KiCad (5.1.4)-1} date 17/10/2019 13:46:05
; FORMAT={-:-/ absolute / inch / decimal}
; #@! TF.CreationDate,2019-10-17T13:46:05+02:00
; #@! TF.GenerationSoftware,Kicad,Pcbnew,(5.1.4)-1
; #@! TF.FileFunction,Plated,1,2,PTH
FMAT,2
INCH
T1C0.0157
T2C0.0236
T3C0.0394
%
G90
G05
T1
X3.2981Y-5.3712
X3.345Y-5.3201
X3.4528Y-5.3362
X3.4651Y-5.1194
X3.5205Y-4.9582
X3.524Y-5.5172
X3.5417Y-5.4789
X3.549Y-5.1493
X3.5807Y-5.1864
X3.5875Y-5.3111
X3.5886Y-5.4147
X3.6418Y-5.4482
X3.6698Y-5.2944
X3.6873Y-4.9246
X3.7102Y-5.5704
X4.0475Y-5.4225
T2
X3.9573Y-5.1373
X3.9939Y-4.8473
X4.2176Y-5.1585
X4.28Y-5.1656
X4.28Y-5.2639
T3
X3.48Y-5.695
X3.58Y-5.695
X3.68Y-5.695
X3.78Y-5.695
X3.88Y-5.695
X3.98Y-5.695
X4.08Y-5.695
X4.18Y-5.695
X4.28Y-5.695
X3.13Y-5.03
X3.13Y-5.13
X3.13Y-5.31
X3.13Y-5.41
X3.13Y-5.51
X3.23Y-5.31
X3.23Y-5.41
X3.23Y-5.51
X3.52Y-4.805
X3.62Y-4.805
X3.72Y-4.805
X3.82Y-4.805
X4.1Y-4.8
X4.2Y-4.8
X4.3Y-4.8
X4.4Y-4.8
T0
M30
